/* XPM */
static char *Y2dj[] = {
/* columns rows colors chars-per-pixel */
"32 32 168 2 ",
"   c #1E1A16",
".  c #1E1A19",
"X  c #211715",
"o  c #211A16",
"O  c #22171B",
"+  c #211B18",
"@  c #143D34",
"#  c #2F3436",
"$  c #313436",
"%  c #333438",
"&  c #1F5D4D",
"*  c #1F5D50",
"=  c #205D4D",
"-  c #5B5F64",
";  c #576160",
":  c #5B6064",
">  c #4F6A75",
",  c #4F6F7A",
"<  c #4B6574",
"1  c #566E70",
"2  c #516F7A",
"3  c #577477",
"4  c #5B7076",
"5  c #5C7977",
"6  c #53727C",
"7  c #5A747B",
"8  c #57787F",
"9  c #5D797B",
"0  c #2C856E",
"q  c #2D8570",
"w  c #318570",
"e  c #4F6B80",
"r  c #4D7181",
"t  c #547384",
"y  c #5C7581",
"u  c #567884",
"i  c #5C7A85",
"p  c #55768B",
"a  c #577A8A",
"s  c #5C7B8A",
"d  c #5C718C",
"f  c #5F7B91",
"g  c #627B85",
"h  c #657D8B",
"j  c #6C7F8D",
"k  c #667F93",
"l  c #6B7F95",
"z  c #36A789",
"x  c #39A78C",
"c  c #37A98C",
"v  c #39A98D",
"b  c #5E828E",
"n  c #63818D",
"m  c #6A848D",
"M  c #70848F",
"N  c #648191",
"B  c #6B8593",
"V  c #6C8993",
"C  c #718594",
"Z  c #728A95",
"A  c #798B95",
"S  c #748B98",
"D  c #7A8C9A",
"F  c #74909A",
"G  c #7D929D",
"H  c #7D9A9E",
"J  c #768EA2",
"K  c #7F91A5",
"L  c #7DADBE",
"P  c #78A3B8",
"I  c #7CADC3",
"U  c #79B0CF",
"Y  c #81959E",
"T  c #88979E",
"R  c #80989C",
"E  c #969C9F",
"W  c #989C9F",
"Q  c #8294A2",
"!  c #8698A2",
"~  c #8B9AA5",
"^  c #969CA1",
"/  c #989BA1",
"(  c #939FAB",
")  c #95A3AD",
"_  c #84ACB3",
"`  c #89AEBE",
"'  c #95A3B0",
"]  c #99A5B2",
"[  c #86B2BB",
"{  c #86B4C5",
"}  c #8AB5C2",
"|  c #8CBAC6",
" . c #86B5CB",
".. c #89B5CD",
"X. c #8AB9CC",
"o. c #85BACC",
"O. c #91B4C7",
"+. c #92BBC6",
"@. c #91BCCC",
"#. c #84B4D0",
"$. c #89B2D0",
"%. c #81BBD1",
"&. c #8FBFD3",
"*. c #83BBDA",
"=. c #92BCD4",
"-. c #91BED8",
";. c #AAB0C0",
":. c #8CC2CE",
">. c #91C3CC",
",. c #8DC2D6",
"<. c #8AC1DA",
"1. c #92C1D3",
"2. c #9CC5D4",
"3. c #9ACCD6",
"4. c #92C2D9",
"5. c #9CC5DB",
"6. c #94CDDE",
"7. c #9CCADE",
"8. c #A2C6DB",
"9. c #A8CBDE",
"0. c #AAD0D9",
"q. c #95C4E4",
"w. c #98C6E0",
"e. c #9DCAE2",
"r. c #A3C5E3",
"t. c #AEC7E6",
"y. c #A6CEE5",
"u. c #ACCDE4",
"i. c #A0CDEC",
"p. c #AACEEA",
"a. c #A4D1E3",
"s. c #ABD2E4",
"d. c #ACD8E5",
"f. c #A6D1EB",
"g. c #ACD3EA",
"h. c #B2D4E4",
"j. c #B9D5E6",
"k. c #B2D5ED",
"l. c #BAD5EA",
"z. c #B3D9ED",
"x. c #BADBED",
"c. c #AFD2F0",
"v. c #B2D7F1",
"b. c #B3DAF3",
"n. c #BBDCF1",
"m. c #BCDBF8",
"M. c #B4E0F4",
"N. c #BDE2F3",
"B. c #BDE2F9",
"V. c #D5D7DA",
"C. c #D2D9D8",
"Z. c #C3DBEC",
"A. c #C4DFF4",
"S. c #C2DEF9",
"D. c #C0E0ED",
"F. c #C5E3F4",
"G. c #C3E5FB",
"H. c #C8E3F8",
"J. c #CBE9FD",
"K. c #D3EEFE",
"L. c #D9EFFC",
"P. c #D1F0FF",
"I. c #DAF4FE",
"U. c #E1F1FE",
"Y. c #EEFFFE",
"T. c #F3FFFD",
"R. c white",
"E. c #FDFEFE",
/* pixels */
"P I U ,.>...5.s.T.{ v.5.p. .I g.I X.5.g.N.d.N.a.k.l.Z.R.1.e.m.3.",
" .&.q.e.p.4.-.| =.3.8.$.I m.z.r.L.<.-.-.z.l.o.+.s.x.7.7.q.-.M.n.",
" . .s H V V V g i 6 ) h ;.S C ! i a g i H b K b M T h n D C F.n.",
"#.*.a B G ] S m V 8 a k N l ~ s t V Q ) ! F b H i ~ ) D l D t.k.",
"e.%.s C + .   o                 . .                 O . y A L.-.",
"e.*.N p   $ #   @ & & & @ = & & & & & @ & & & @ + % # . m h r.q.",
"$.*.s p   $ $   & & = & @ & & & & & & @ & & & & . $ $ X ~ m 5.u.",
"4.<.a t   # - + 0 0 0 0 & 0 q 0 0 0 , & 0 0 0 0   - $   A Z Z.x.",
"o.F.C g o - : o 0 q q q & q 0 q 0 0 q & q 0 q q   - :   m D n.k.",
"L 1.V h o : - o 0 q 0 0 & 0 q 0 0 0 0 & 0 q q 0 + : - . Q h 5.X.",
"{ { 6 2 + : ; + v v c v 0 v x c c c c q v c v v + : - . S S A.&.",
"` ` 3 4 o : ^ o c c v c 0 c v z x v c 0 c v v z   / -   h Z F.y.",
"` ` t 3 . E W + c v z v 0 v c c c z v q v c x z   E / . A V H.K.",
":.X.B 4 + E ^   0 0 0 0 = 0 0 q q 0 0 = 0 0 0 0   W / X ' N y.N.",
"<.6.m ~   E ^   & 0 w 0 = 0 0 0 0 0 q = 0 q q & + W /   N s e.&.",
":.>.9 g + E C.$   +     + +   o o   +   o   +   # V./ . Y Q -.-.",
"F.Y.7 7 o ^ V.V.V.C.V.C./ o E V.V.E o ^ C.V.C.V.V.C./ . ] e f.G.",
"{ } G 5 + : E ^ ^ / / : . / V.W E V./ . : / E / E E -   n G e.e.",
"J.z.g C   +     o       X - V.    V.- o       o   .   . D N 5.e.",
"5.e.n V   - : o & & & & @   V.  + V.  @ & & & &   - :   Y C g...",
"c.z.l <   E ^ . & 0 q & & . ; V.V.- . & & q 0 &   W /   j A _ S.",
"4.r.S y   ^ ^   q q 0 & q & . - -   & q & 0 q w + ^ ^ + Y ] 5.r.",
"I.w.> , o W :   0 0 0 & q 0 & .   & 0 q & 0 0 0   : W   m A Z.*.",
"P.{ 6 e   - : o & 0 0 & 0 0 q & & 0 0 0 & 0 0 & + - : o S m R.P ",
"l._ 4 u . : : o     o   o   o             .     + - :   G g x.l.",
"B.8.G y   : $ + # : : E E E E / ^ E ^ ^ / : : $ + # : o Z i 2.U.",
"k.@.4 n o $ $   % $ : - : ^ W / ^ ^ ^ : - : $ %   $ $   F Z h.R.",
"e.y.m g +   o + .   + X       o   +     .   . .   o + X F ) 0.l.",
"0.M.j C 3 V u n i F g 2 S K 2 s y A n s j t , h V N G n n ! K.N.",
"G. .h 8 6 h g 4 4 3 7 D n k V Z J Q S V g l d p p m R H V m s.+.",
"I e.7.-.4.s.8.d.+.j.n.K.J.m.J.J.J.a.h.u.S.t.e.n.T.e.G.-.2.x.=.N.",
"B. .f.v.x.k.,.4.3.a.O.[ 5.I 7.e.e.u.p.@.j.l.r.$.e.b.X.9.F.k.F.u."
};
