/* XPM */
static char *Ymdj[] = {
/* columns rows colors chars-per-pixel */
"32 32 171 2 ",
"   c #1E1A16",
".  c #1E1A19",
"X  c #211916",
"o  c #211A19",
"O  c #21211F",
"+  c #212222",
"@  c #2F3332",
"#  c #323232",
"$  c #6A2C07",
"%  c #6C2A0A",
"&  c #474747",
"*  c #484646",
"=  c #474946",
"-  c #464649",
";  c #484649",
":  c #474948",
">  c #484848",
",  c #595959",
"<  c #4F6F7D",
"1  c #4D6874",
"2  c #576E74",
"3  c #536E7A",
"4  c #4C717A",
"5  c #577377",
"6  c #5B7276",
"7  c #57737C",
"8  c #5A757B",
"9  c #5D797A",
"0  c #60777F",
"q  c #A65325",
"w  c #A95325",
"e  c #E69434",
"r  c #E89534",
"t  c #E59438",
"y  c #E89338",
"u  c #FCDA65",
"i  c #4F6B81",
"p  c #4E7286",
"a  c #567482",
"s  c #5C7783",
"d  c #577886",
"f  c #5D7A85",
"g  c #55768A",
"h  c #58768B",
"j  c #567A8A",
"k  c #5C7B8A",
"l  c #5A7890",
"z  c #657781",
"x  c #647C84",
"c  c #657C8B",
"v  c #6C7F8D",
"b  c #627D91",
"n  c #6A7E94",
"m  c #5F848D",
"M  c #63828D",
"N  c #6A838C",
"B  c #6C898F",
"V  c #70848D",
"C  c #648391",
"Z  c #6B8492",
"A  c #6C8A96",
"S  c #718696",
"D  c #738B96",
"F  c #7A8B94",
"G  c #72879A",
"H  c #758C99",
"J  c #7B8C9B",
"K  c #76909C",
"L  c #7D929D",
"P  c #7E9C9E",
"I  c #758EA2",
"U  c #788CA5",
"Y  c #7F92A1",
"T  c #78A5BA",
"R  c #7CADBD",
"E  c #74A2B9",
"W  c #7CADC4",
"Q  c #7AB0CA",
"!  c #808E99",
"~  c #80959E",
"^  c #8294A2",
"/  c #8B97A2",
"(  c #8A9BA3",
")  c #8999A9",
"_  c #94A4AC",
"`  c #9AA4AE",
"'  c #92A1A4",
"]  c #86ADB2",
"[  c #84AEBB",
"{  c #88ABBE",
"}  c #9DA6B7",
"|  c #86B3BA",
" . c #8AB2BE",
".. c #8BAEC1",
"X. c #8AB3C3",
"o. c #89B9C7",
"O. c #85B6CC",
"+. c #85B9CD",
"@. c #8ABACB",
"#. c #8AB2CC",
"$. c #93B4C7",
"%. c #92BAC3",
"&. c #92BBCC",
"*. c #86B3D2",
"=. c #82B9D7",
"-. c #8FBFD4",
";. c #83BBDA",
":. c #8BB9DA",
">. c #93B7D1",
",. c #91BDD5",
"<. c #91BDD8",
"1. c #AAB0C0",
"2. c #8EC2CC",
"3. c #94C3CD",
"4. c #8EC1D4",
"5. c #8CC2D9",
"6. c #91C1D5",
"7. c #9ACCD5",
"8. c #92C2D9",
"9. c #9CC6DB",
"0. c #96CEDF",
"q. c #9DCBDF",
"w. c #9DC2D5",
"e. c #A2C6DE",
"r. c #A6CDDE",
"t. c #ABCFDD",
"y. c #96C4E2",
"u. c #99C6E2",
"i. c #9DCAE2",
"p. c #A3C4E2",
"a. c #AEC7E5",
"s. c #A5CFE3",
"d. c #A9CEE4",
"f. c #A0CEEF",
"g. c #AACEE8",
"h. c #B0CAE3",
"j. c #B0CFEB",
"k. c #A3D0E3",
"l. c #ADD3E4",
"z. c #A6D1E9",
"x. c #ADD2EB",
"c. c #B4D5E3",
"v. c #B9D9E6",
"b. c #B2D5EB",
"n. c #B9D4EA",
"m. c #B4D9ED",
"M. c #BADBED",
"N. c #B7D7F0",
"B. c #B2D9F3",
"V. c #BADCF2",
"C. c #BADCF9",
"Z. c #B4E1F6",
"A. c #BEE1F4",
"S. c #B7E1F9",
"D. c #BDE3F8",
"F. c #C2DDED",
"G. c #C4DDF4",
"H. c #C3DEFB",
"J. c #C2E2EF",
"K. c #C3E3F5",
"L. c #C8E8F7",
"P. c #C5E6FD",
"I. c #C9E5FC",
"U. c #CDEAFE",
"Y. c #D2EFFF",
"T. c #D9EFFC",
"R. c #DCF3FE",
"E. c #EEFFFF",
"W. c #F0FFFC",
"Q. c #FEFFFF",
"!. c #FEFFFE",
/* pixels */
"E W Q 5.3.+.e.x.E.X.B.9.g.*.W z.Q o.9.b.D.l.J.z.x.M.G.Q.4.q.C.7.",
"O.,.u.i.g.5.6.%.>.9.9.*.W V.N.p.R.:.-.6.b.v.+.%.l.v.u.i.y.6.S.M.",
"+.O.l ~ Z A Z x f 7 _ M 1.H S / d k s k Y m ^ Z N ( c c J S G.M.",
"O.=.d G L _ D Z Z a j c Z n ( k p N ^ _ ) H k L x ( ' H Z J a.x.",
"f.=.j Z X o .     . . o         o o       . .         . s F T.<.",
"i.;.Z g o % $ X O # # # O # # # # # @ + # # # O . % % X N c p.y.",
"+.;.k j . % $ o # @ # @ O # @ # # # # O # # # #   % % o / v i.d.",
"5.4.j d   % q   = ; ; ; # ; - & = ; = # = = ; *   w $ . H D F.V.",
"O.K.S z   w q   : = = = # ; * ; ; & = # = * = ;   q q o N L M.c.",
"[ 6.D j X q w . : : = ; # = & & & & * # ; * ; =   q q   ^ c 9.O.",
"[ X.7 3 X q q . , , , , ; , , , , , , ; , , , , o q q   D H G.<.",
" .[ 7 7 X q e o , , , , * , , , , , , = , , , , o e q X M D K.s.",
"{ ..d 6 X e e . , , , , = , , , , , , & , , , ,   e y X D Z I.Y.",
"-.2.C 6   e r X = ; * ; # ; = * & - & # = = ; *   e e   _ C s.A.",
"5.0.M (   e e . # = ; = # ; = ; * = ; @ * ; = # X e e   N h i.-.",
"2.@.9 c   e u %   .             .           . X % u y   ^ ^ <.5.",
"L.E.0 8   e u u u u u u e o e u u e o e u u u u u u e   } i z.D.",
"O.X.H 8   w e e e e r q   e u e e u e   q e e e e e q   c L i.i.",
"L.b.c Z . .   o . . o .   q u X   u q         .   .     H M p.i.",
"9.0.M Z   w q   # # # # o   u     u   O # # # @   q q   ~ S x.#.",
"x.b.n 1   e e   @ & = # # o q u u q . # # ; & # . e e X v F [ H.",
"y.p.D a   e e o = ; ; # = @ o q q o @ = # ; ; ; . e e   L ` 9.p.",
"R.u.1 3   e q   ; * = # = ; #     # ; * # = * ;   q r X N F J.:.",
"Y. .3 p . q w   # = * # * = ; # # * * * # * = # . q q   D V !.T ",
"v.] 6 a   q q     .     .     X o .   o       X . q q X ! x m.n.",
"K.9.~ s   q % . % q w e r e e e t r e e e q w %   % q   A x e.R.",
"x.&.5 M   % %   % % q w q r r e r r e q q q % %   % %   K S c.!.",
"f.r.Z z   o X     .               o X         o   X     K _ t.v.",
"d.S.c D 3 Z d b s J z 3 I ^ 4 k d F M d v a p c Z C L M M ~ U.M.",
"A.X.b 8 7 x s 6 6 5 7 H b b S D U ~ H S c n h g j N ^ P B V c.2.",
"W i.i.5.9.d.e.c.&.v.V.Y.U.C.U.I.I.s.c.l.G.a.q.V.E.q.K.6.w.M.>.A.",
"A.+.x.b.b.B.4.6.7.s.$.[ 9.W q.i.i.d.d.&.v.n.p.*.i.B.&.r.L.b.L.d."
};
