/* XPM */
static char *ZGRvb3I_[] = {
/* columns rows colors chars-per-pixel */
"32 32 169 2 ",
"   c #1E160F",
".  c #1D190F",
"X  c #1C1613",
"o  c #1E1A14",
"O  c #1E1A19",
"+  c #21190E",
"@  c #201710",
"#  c #231C14",
"$  c #291E16",
"%  c #231D19",
"&  c #281F1A",
"*  c #252116",
"=  c #292116",
"-  c #262119",
";  c #2B231A",
":  c #2F291D",
">  c #31261A",
",  c #31291D",
"<  c #7E5F29",
"1  c #7D5F30",
"2  c #7D6327",
"3  c #7C622E",
"4  c #7F6031",
"5  c #486A76",
"6  c #4F6D7C",
"7  c #526F77",
"8  c #4E707A",
"9  c #597076",
"0  c #55737D",
"q  c #59737B",
"w  c #815D2B",
"e  c #806226",
"r  c #8B6527",
"t  c #83642C",
"y  c #89642B",
"u  c #8C6B2D",
"i  c #846A2F",
"p  c #916A2D",
"a  c #986D29",
"s  c #8D702C",
"d  c #94702D",
"f  c #9B722F",
"g  c #856531",
"h  c #8B6531",
"j  c #856A32",
"k  c #8B6C33",
"l  c #926E32",
"z  c #926F39",
"x  c #8C7032",
"c  c #8C713C",
"v  c #957235",
"b  c #9B7333",
"n  c #95763D",
"m  c #9B763B",
"M  c #9D7E3E",
"N  c #A07739",
"B  c #917842",
"V  c #997C49",
"C  c #B98B3E",
"Z  c #CD9A3F",
"A  c #D69B3E",
"S  c #D99A3D",
"D  c #AE8640",
"F  c #BC9242",
"G  c #B89349",
"H  c #A78953",
"J  c #AC8F55",
"K  c #A08452",
"L  c #B59854",
"P  c #B79959",
"I  c #B19251",
"U  c #C59441",
"Y  c #CD9744",
"T  c #C59940",
"R  c #CD9A41",
"E  c #CC9E4A",
"W  c #C39E4E",
"Q  c #D79B44",
"!  c #DF9E40",
"~  c #D09E49",
"^  c #C59F56",
"/  c #CEA34D",
"(  c #DCA546",
")  c #DBA64A",
"_  c #DBAB4B",
"`  c #C8A156",
"'  c #CAAB5B",
"]  c #D5A454",
"[  c #D8A651",
"{  c #D5A855",
"}  c #DCAE53",
"|  c #DBAF5A",
" . c #D7B053",
".. c #DCB05C",
"X. c #E3A643",
"o. c #E2A945",
"O. c #EAAB43",
"+. c #E1A44A",
"@. c #E2AC49",
"#. c #EBAB4A",
"$. c #F0AD45",
"%. c #E9B047",
"&. c #F7B24F",
"*. c #E1AE53",
"=. c #E5B45D",
"-. c #E8B75A",
";. c #E7B85C",
":. c #ECB455",
">. c #C09E6E",
",. c #CEA861",
"<. c #C0A66B",
"1. c #D7B061",
"2. c #D9B665",
"3. c #EBBD68",
"4. c #F4C25F",
"5. c #F6C36A",
"6. c #E8C172",
"7. c #516E80",
"8. c #557684",
"9. c #5C7682",
"0. c #5A7B85",
"q. c #557589",
"w. c #5C7C8A",
"e. c #667F8D",
"r. c #637F92",
"t. c #6B7F92",
"y. c #5F8091",
"u. c #64828D",
"i. c #6B838E",
"p. c #668192",
"a. c #6B8493",
"s. c #6C8A95",
"d. c #6B8898",
"f. c #66859A",
"g. c #738695",
"h. c #748B95",
"j. c #728799",
"k. c #758C9A",
"l. c #7A8D9C",
"z. c #76929D",
"x. c #7B919C",
"c. c #7D8EA0",
"v. c #7D93A2",
"b. c #80979F",
"n. c #808DA0",
"m. c #8295A5",
"M. c #8799A3",
"N. c #8A9AA7",
"B. c #8D9FA9",
"V. c #929BA2",
"C. c #9BADB5",
"Z. c #A7ADB9",
"A. c #A4B3B8",
"S. c #86B7D5",
"D. c #86BBDA",
"F. c #90BED6",
"G. c #9BBFD5",
"H. c #9CC6DF",
"J. c #ACCAE4",
"K. c #A7D5E4",
"L. c #A9D7E7",
"P. c #A6D0E8",
"I. c #B0D1E4",
"U. c #BBDBEF",
"Y. c #B2D1ED",
"T. c #C3D9EC",
"R. c #C9EBF7",
"E. c #CFEAFB",
"W. c #C4E4F9",
/* pixels */
"5 6 8.w.0.8.e.g.C.q c.u.d.q.7.s.6 q p.j.l.g.z.s.g.k.l.Z.w.p.l.u.",
"9.w.w.a.a.w.0.9.9.r.w.J +.| U ( o.X.5.*.1.h.9.q g.l.e.u.r.w.z.k.",
"q.8.F.R.P.L.K.| E ^ 2.P ( ] F A A A ( 5.' E Q ) X.R.G.H.T.Y.v.k.",
"8.q.D.K.W.3.] | @.) ) g c h 4 g < e u m e E Y E E <.>.U.I.U.t.g.",
"f.q.S...I L ) t i k t t n k g e t 3 t n t y 1 i 3 G J H ` T.N.w.",
"p.q. ...W w p p r k g ; % ; ; # % $ = = # t i g y 1 4 G P ,.t.r.",
"8.q.{ @.k j p > = , > ; o : = # # = = ; * $ # # - j r l [ *.e.a.",
"0.` | k s # $ , = > ; , # # # * # ; = : # # = # % ; = p u X.O.l.",
"8.[ _ s k - # # ; $ = ; - = = = * , > $ % - * # = - # u d +.@.g.",
"0 ) _ x j # & # ; ; $ $ - * # = = > = = # # # = # = = i k A :.0.",
"9 o.} u x # $ o : # # ; - * * o + = ; # = # $ + # - ; k k ) Z w.",
"9 O.@.p u # # = & $ = # - # = = + = = # # = # o - - O u u ( ( s.",
"0 o.O.l k # O : # : ; ; - = * # # % o = # = # # # & & p l #.&.M.",
"0.+.$.d g & # ; # # * o o O o O # o O # # * # # - ; = h b #.#.z.",
"w.R ( f u O O O % O O o - o O O O # # # # - * # # ; > < l _ *.w.",
"0./ Q N a # # % O O o O o o o o o # # O o O O O # - # < k ( ( w.",
"b.( X.b m O o o X o X # X X # O o o o O o X O # # $ # i j *.o.v.",
"0 Q &.a b   X O O o + # X # X o # o . o # # . # $ . X r u O.O.p.",
"b.T @.k s o . o   # + . O . # @ $ o o o # o O X . o O k r +.( r.",
"e._ _ k u   +   . + # @ # # #   # . . o o O o O O # o m r R ! q.",
"j._ ) j m     + # # # @ # X o   # O o # X O # X # # ; b b +.X.x.",
"r.D _ M V # # @ X # @ # # # o o o o   @ o O @ # - # = p b +.+.i.",
"B.;.=.V n o # + o = #   + $ o o . . # # # o X # & = > t f X.X.q.",
"M.6.-.B K o . # X # # # + + o o # # # o # # . , ; O = 3 b O.X.6 ",
"h...-.j V . # o @ = # o o   o # # + # o $ o # ; : = > t j _ @.g.",
"z./ ( u j o * * . # # . * = = # = $ o # # # - # * # = i y 3.) V.",
"j._ / w u # # =   # # # # ; = - = ; + o O o # # # = = r u *.} A.",
"a.( E t d + = # # o + + $ # = = ; # * # . O O @ # # - k t *.X.h.",
"a.Y R r p # # . + # # # # - # # = # ; = % X # # o * + 2 u *.Z k.",
"z.F U p p # # # $ # + # - * & = ; $ # # X # X O O O @ 2 b Q Y 9.",
"8 F Q h l s.e.s.q k.l.M.m.l.m.m.v.a.h.g.n.g.a.k.C.u.l.j v X.Y z.",
"l.8.s.k.k.h.w.0.u.a.9.9 p.8 u.p.a.i.s.q g.g.r.q.r.k.e.i.v.h.x.a."
};
