/* XPM */
static char *ZGZp[] = {
/* columns rows colors chars-per-pixel */
"32 32 196 2 ",
"   c #4F6C7A",
".  c #496B75",
"X  c #576F75",
"o  c #526E7D",
"O  c #4E717D",
"+  c #587175",
"@  c #53727C",
"#  c #5A737B",
"$  c #557584",
"%  c #5B7583",
"&  c #567883",
"*  c #5C7B85",
"=  c #53778A",
"-  c #56798B",
";  c #5B7C8A",
":  c #647F8C",
">  c #647C86",
",  c #627F92",
"<  c #6A7E92",
"1  c #5A828E",
"2  c #5E8290",
"3  c #5E899A",
"4  c #63828D",
"5  c #6B848E",
"6  c #70848B",
"7  c #648292",
"8  c #6B8593",
"9  c #648894",
"0  c #6B8B94",
"q  c #63869A",
"w  c #62899A",
"e  c #6A8C9B",
"r  c #728694",
"t  c #738B95",
"y  c #7A8C95",
"u  c #738599",
"i  c #748D9A",
"p  c #7B8D9C",
"a  c #6B919C",
"s  c #739195",
"d  c #72929C",
"f  c #7A929D",
"g  c #74999E",
"h  c #5E8BA3",
"j  c #618CA2",
"k  c #6A8DA3",
"l  c #7A8EA0",
"z  c #738FA4",
"x  c #6591A1",
"c  c #6A91A2",
"v  c #6F99A7",
"b  c #6791A9",
"n  c #6992A9",
"m  c #6E99AB",
"M  c #7192A2",
"N  c #7C95A3",
"B  c #7298A2",
"V  c #7A99A4",
"C  c #7296AA",
"Z  c #7299AB",
"A  c #7B9BAC",
"S  c #7995AA",
"D  c #759CB1",
"F  c #7B9DB1",
"G  c #7AA0AB",
"H  c #76A0B4",
"J  c #7DA1B2",
"K  c #7CA4B9",
"L  c #7CACC3",
"P  c #76A9C8",
"I  c #79AECD",
"U  c #7CB1CE",
"Y  c #7FBBD7",
"T  c #80919D",
"R  c #8695A4",
"E  c #849BA5",
"W  c #8A9AA7",
"Q  c #819DAB",
"!  c #8B9DAC",
"~  c #919CA2",
"^  c #829DB1",
"/  c #84A1AD",
"(  c #83A3B4",
")  c #8AA5B4",
"_  c #84A9B5",
"`  c #8CA9B4",
"'  c #83A5B8",
"]  c #8AA5B9",
"[  c #84A9BB",
"{  c #8CAABB",
"}  c #92A6B6",
"|  c #93A9B3",
" . c #9AA9B4",
".. c #91A6B9",
"X. c #93ACBB",
"o. c #9AAEBA",
"O. c #87B1BD",
"+. c #8CB2BB",
"@. c #95B0BD",
"#. c #9BB1BD",
"$. c #92BABD",
"%. c #A5AEB6",
"&. c #A5B3B4",
"*. c #8EADC2",
"=. c #9AAEC1",
"-. c #93ACC0",
";. c #88B2C4",
":. c #89B9C7",
">. c #87B3CE",
",. c #86B9CD",
"<. c #89B9CA",
"1. c #85B3C3",
"2. c #95B1C1",
"3. c #9BB3C2",
"4. c #91BAC3",
"5. c #9CB9C6",
"6. c #9CB6CA",
"7. c #91B9CC",
"8. c #9FB9C8",
"9. c #86BBD7",
"0. c #86B9D8",
"q. c #87B6D7",
"w. c #90BED6",
"e. c #9CBED4",
"r. c #91BEDA",
"t. c #9BBED9",
"y. c #A1B5C2",
"u. c #A3B9C5",
"i. c #A3B7CA",
"p. c #A2BBC9",
"a. c #ABBCCA",
"s. c #B0BDCD",
"d. c #94BFE1",
"f. c #91C1CE",
"g. c #99C3CF",
"h. c #8EC2D0",
"j. c #8BC1DB",
"k. c #91C1D6",
"l. c #9CC4D4",
"z. c #91C1D8",
"x. c #9CC5DA",
"c. c #96CDDC",
"v. c #9ACCD9",
"b. c #ADC2CC",
"n. c #B2C2CF",
"m. c #A5C7DB",
"M. c #A6CCDC",
"N. c #ACC6D6",
"B. c #B5C3D2",
"V. c #BBCAD4",
"C. c #B0CDDD",
"Z. c #B9CBD8",
"A. c #BED0DE",
"S. c #94C5E1",
"D. c #9ECAE2",
"F. c #A5C6E3",
"G. c #A5CFE3",
"H. c #A9CFE4",
"J. c #ACC7E4",
"K. c #B0CFE4",
"L. c #A7D1E3",
"P. c #ACD4E6",
"I. c #AED8E6",
"U. c #ABD3E9",
"Y. c #B1D3E4",
"T. c #BBD3E4",
"R. c #B9D9E6",
"E. c #B1D4EB",
"W. c #B2D8ED",
"Q. c #B9DBEE",
"!. c #B2D8E5",
"~. c #BCDEF1",
"^. c #BBDDF8",
"/. c #BEE1F4",
"(. c #B3E1F0",
"). c #C1D3DC",
"_. c #C8D5DE",
"`. c #C4D2E1",
"'. c #CBDAE9",
"]. c #C7D8E7",
"[. c #D3DCE4",
"{. c #C3DEF1",
"}. c #C4E1EF",
"|. c #C5E2F4",
" X c #C7E9F5",
".X c #C5E4F9",
"XX c #CAE7FD",
"oX c #C7EBF9",
"OX c #C5EAFA",
"+X c #CDECF9",
"@X c #D3EDFD",
"#X c #DBF4FE",
"$X c #E4F7FE",
"%X c #E6FDFF",
"&X c #ECFFFE",
"*X c white",
/* pixels */
". @ $ - * & < r  .# z : 8 %   e o & : u f 0 s 8 u y p %.* 9 l 4 ",
"% - , 8 7 ; ; # * 4 : %   l i < W - * ; t t & * r y , 7 , ; d p ",
"$ @ r.OXL.I.U.f.k.O.$Xx.*XQ.P.@X7.9.7.k..XS.@XH.C.+Xx.l.{.E.p i ",
"$ = 9.Y..X%X!.M.L.<.z.S.G.F.@Xz.U H..X&X+XQ.r.oXf.#X$XQ.J.Q.8 r ",
"q = 9.L.x 8./ ( { F M e `.A F F A 2.` C 2.5.2.B ` ! 3./ 7.].W - ",
"7 = D.Y C B B.d d X.X.( 9 ( J 0 e ) 5.m ] A k 2.m E ( | m.t.< , ",
"& - w.0.@.0 B a ) A F 2.6.A M M A F ..c ( j ( J J B #.` @Xm.: 8 ",
"; ; 9.,.A C { J 3.c ' C D #...`.w 9 3.n ' D ( i._.G s u.R.!.y p ",
"& f P.e.w C j 4 ( A e 2 A u.i.y.! C j *.h ] '.'.q `.E | L.}.p 6 ",
"X ; E.r.C C C ` D q > Z 7 ( 9 A u.a `.y.6.a.`.Z.T.x [ A .Xx.4 & ",
"o $ *.L `.D F k { ' b k b e A A d X.z _.Z.o.B.B.k 2.[ @.W.~.T ; ",
"+ + O.O.M 2 d 4 e C 1 7 3 m D J ^ B.e M ^ a.A.5.j { C ( x.U.R 8 ",
"# # :.+.d x a 2 8 A a b m v H / +.} ) ..a...6.w n { F ( !.H.f R ",
"; & L._ f s d d X.: ( 4 9 a G ` ) @.N ` E C C F b.j ( D %XD.8 f ",
"; 7 M.#Xt t a ` Z.@.j 8 3 g / ` / G / ) S k ( ] A i.C i m.r.7 ; ",
"* * $.l.g s ` / | Q d 0 M A ` G _ X.0 { k F 6.( F [ D e .XXX; ; ",
"R  .4.4./ G B ( X.B 0 5 4 A G m v d B ` C 2.X.^ n Z n 9 &XP 8 N ",
"$ # /.$.A / u.` | X.A A d ( / v d a C X.F { ^ =.F n B Q F. X< , ",
"f t z.G.` G { Z A.A X.X.m ( 2.H G ) 9 N #.#.] S w Z B ! ~.H.4 7 ",
"4 7 H.L.( a x ).G '.c X.x a A ] ( V.2 5.A #.F w *.b.A n..XK.u $ ",
"r i F.D 7 w F [.c 5.y.A q w [.` ` 2.A A A 5.n k { @.X.V m.Q.X p ",
", < W.>.; w B V.5.A =.A 7 G ).N F 0 7 X.A ] ) ( ( J d @.|.&X< < ",
"! 2 K L J w e / s.b.c ) M q u.A.c 9 c C F ( B 8.` G +./ M.T.y - ",
"E # O.I 4 0 b A A { X.F / 4 *.Q ( ( k w ( e k F { g g _ I.C.%.o ",
"y X { 1.4 4 a e ) ( V 0 4 C F { o.A C A q j N.A a 0 G @./.l.t t ",
"f :  X7.e F a a e e 5.J 5.( ( ( p.F i A C ( C =.0 / ` _ !.f.4 ~ ",
"u % $.v.0 w 0 0 e ( #.B.[ J { ( X.A ] A C F k k _ / ` ` (.K.t &.",
"4 8 M.e.G X.).Z.2.' ( q F Z J _ @.N V B.) C J ( y.2.A / ~.%X6 p ",
"8 i x.E.[ L.,.x.7.^.4.L ^..XL f.<.Q.x.7.F.>.I S.H.F.|.v.v. XR f ",
"N % x.<.<.l.7.+.+.+.;.{.S.d.Y.E.^. XW.P.t.F.q.>.9.G. XOXI.M.r # ",
"  7 : ; 4 8 5 r # y i R R l R N R 5 r r p r < p o.7 f > > p & f ",
"f $ t t t t 1 ; 4 8 % # : O 7 7 7 8 8 % t u < $ , i * 5 f i T 8 "
};
