/* XPM */
static char *d2Rvb3I_[] = {
/* columns rows colors chars-per-pixel */
"32 32 179 2 ",
"   c #1E160F",
".  c #1C180D",
"X  c #1C1613",
"o  c #1E1A14",
"O  c #1E1A18",
"+  c #20170E",
"@  c #221A0F",
"#  c #201710",
"$  c #231C14",
"%  c #291E15",
"&  c #231D19",
"*  c #281F18",
"=  c #252116",
"-  c #292116",
";  c #262119",
":  c #2A231A",
">  c #2F291D",
",  c #31271C",
"<  c #31291B",
"1  c #352B21",
"2  c #7C5E2D",
"3  c #7F5F30",
"4  c #7E6127",
"5  c #7E622C",
"6  c #7A6331",
"7  c #805F2C",
"8  c #846427",
"9  c #886627",
"0  c #84642C",
"q  c #89652B",
"w  c #83692E",
"e  c #8C6B2D",
"r  c #926C2D",
"t  c #94662A",
"y  c #8D702E",
"u  c #97702E",
"i  c #866530",
"p  c #896430",
"a  c #866933",
"s  c #8C6C33",
"d  c #926D32",
"f  c #8C723A",
"g  c #947133",
"h  c #9C7335",
"j  c #97773C",
"k  c #9C7439",
"l  c #9E7C3F",
"z  c #967742",
"x  c #977B49",
"c  c #987D48",
"v  c #9A7C46",
"b  c #AD873E",
"n  c #CD973F",
"m  c #CD9A3F",
"M  c #C1943F",
"N  c #D79A3E",
"B  c #DA9B3E",
"V  c #E1A83F",
"C  c #AF8E4C",
"Z  c #BA8A42",
"A  c #BD9142",
"S  c #B6934B",
"D  c #AD8E57",
"F  c #A38753",
"G  c #AF9050",
"H  c #BA9658",
"J  c #B3945A",
"K  c #B59860",
"L  c #C59541",
"P  c #C59843",
"I  c #CD9942",
"U  c #C39C4E",
"Y  c #CD9E49",
"T  c #CC974B",
"R  c #D49B44",
"E  c #D19C4B",
"W  c #C39C51",
"Q  c #CFA34B",
"!  c #DEA446",
"~  c #D2A34B",
"^  c #DBA64A",
"/  c #DCAC4B",
"(  c #D6A443",
")  c #CCA057",
"_  c #C4A457",
"`  c #D8A651",
"'  c #DBAC54",
"]  c #D8A758",
"[  c #D2AA56",
"{  c #DBB15E",
"}  c #E3A643",
"|  c #E2AA44",
" . c #EBAA44",
".. c #E1A44A",
"X. c #E2AD4B",
"o. c #E9AC4A",
"O. c #F6B14F",
"+. c #E2AE53",
"@. c #E3B355",
"#. c #E3B55D",
"$. c #EAB65A",
"%. c #E6B862",
"&. c #E0B66A",
"*. c #F7C469",
"=. c #F6C461",
"-. c #E8C271",
";. c #587789",
":. c #597A8B",
">. c #637A8C",
",. c #66808D",
"<. c #6D8392",
"1. c #6D8993",
"2. c #718795",
"3. c #7B8C9A",
"4. c #778D9A",
"5. c #7E919F",
"6. c #77A4BC",
"7. c #7BADC4",
"8. c #7DAFCA",
"9. c #82969F",
"0. c #8397A2",
"q. c #82AEBC",
"w. c #89AFBC",
"e. c #8AB0B9",
"r. c #8FB6C7",
"t. c #86B4CE",
"y. c #85B9CD",
"u. c #8BB9CB",
"i. c #87B6C6",
"p. c #92BAC6",
"a. c #91B9CB",
"s. c #84BAD5",
"d. c #81BBD8",
"f. c #91BED6",
"g. c #92BED9",
"h. c #91C1CD",
"j. c #8EC2D4",
"k. c #8AC1DC",
"l. c #91C1D7",
"z. c #97CDD7",
"x. c #98CCD7",
"c. c #92C2DA",
"v. c #9DC5DB",
"b. c #A5CBDC",
"n. c #94C5E3",
"m. c #9EC7E2",
"M. c #9ECAE2",
"N. c #9DCFEA",
"B. c #A3C5E2",
"V. c #A5CEE2",
"C. c #AACCE4",
"Z. c #A7D0E6",
"A. c #ACD3EA",
"S. c #A8D4E7",
"D. c #B0D1E5",
"F. c #BCD5E5",
"G. c #B2D5ED",
"H. c #B9D4EA",
"J. c #B4D8EA",
"K. c #B9DAED",
"L. c #B4DAF4",
"P. c #BBDDF5",
"I. c #BCE2EF",
"U. c #BEE1F3",
"Y. c #BEE6FF",
"T. c #B3E1F8",
"R. c #C3DDEE",
"E. c #C3DDF5",
"W. c #C3E2F6",
"Q. c #C5E5FA",
"!. c #CBE7FF",
"~. c #CDE9FF",
"^. c #C7EBF9",
"/. c #D4EEFE",
"(. c #D0F0FF",
"). c #DCF7FF",
"_. c #E0F2FE",
"`. c #F3FFFE",
"'. c #FFFFFF",
/* pixels */
"6.7.8.k.h.y.v.G.`.i.G.v.Z.t.7.A.7.i.v.G.E.S.I.V.A.K.W.'.j.M.P.z.",
"t.f.n.M.S.c.g.p.f.v.v.K ! { L } ! } =.' &.J.u.p.D.K.v.M.n.f.T.K.",
"y.y.:.9.<.1.1.' P W [ C ^ ) A N N B ! *._ P R ( } 9.>.,.3.2.E.K.",
"t.d.;.1.5.%.E ] X.^ ^ i z 0 6 0 2 0 e j 4 Y R Y P J J 4.>.3.C.A.",
"N.8.;.' G H ^ 8 0 r i i j s 0 4 0 5 w j 8 q i 0 0 S D D W 3./.g.",
"N.s.[ ] U 0 e e 9 s 0 : $ : : $ & $ = : $ 0 i p i 2 2 S S ) B.n.",
"y.s.Q X.f w r < = 1 : : $ : - % $ - - : % = $ & ; a 9 d ] / b.C.",
"c._ ' e s $ - , - < : > = ; & - $ : - : % $ $ $ $ : * d 9 V  .P.",
"s.` / y e $ $ % : % % : : - $ % $ < < % $ ; = $ $ : ; e u ..X.D.",
"w./ / y a $ % $ : - % : ; = = - - < - - = $ $ - $ ; - w a N $.y.",
"q.} ' e f % $ o > $ $ : ; ; = = % : - $ - $ $ $ = : : e s ~ N f.",
"w. .X.e s & $ - * % % $ ; & $ $ @ - % $ $ - $ o = * O e e ! ! V.",
"e.}  .y s $ & : $ > : : : ; ; & O $ o $ $ - $ $ ; ; ; r d  .O./.",
"j... .u i $ ; ; & $ = o o O o o $ o $ & $ = $ $ & : - p h  .o.U.",
"k.n ! h e o o o & O o o ; O o o O $ $ & & ; $ $ = = : 8 d X.+.g.",
"j.Q N k u o = & O O o O o O o o o $ $ O o o O & $ $ $ 2 s ^ ~ c.",
"W.} } h h O o o X o X o X X $ O o o o o O # O $ @ % $ w 0 +.} Y.",
"y.B O.g h . X o $ . $ $ X $ X o $ X X o $ $ o $ $ @ X 8 u  . .v.",
"^.M / y y O   $ X $ . @ $ o $ + - $ X X $ X O X $ o O d q ! / m.",
"v./ X.i s X @ #   $ $ X $ $ $   $ o . o O o o o O o O j 9 I ! t.",
"G./ ( s j .   @ $ $ $ # $ o X   = X o $ X o o o $ $ : g r .. .E.",
"c.C X.l v O $ + X @ # $ $ $ o o o o   o o o o $ : % - t h } ..B.",
").#.#.c j o # $ o - $   @ $ X $ o o $ $ o $ o $ & = < 7 h } } s.",
"(.-.@.z F o o @ X $ $ $ $ + o X $ . $ $ $ $ o , : $ - 5 g  . .6.",
"K.{ $.y x o o o   % $ $ o o o * % @ o o $ X $ - : > < 0 p +.o.F.",
"W.~ ^ e a X % = $ $ . @ = & % $ - = $ $ $ $ ; & & $ - 8 0 #.^ _.",
"A./ Q 2 e $ $ -   $ % @ $ - = = = - $ X o & $ $ $ - % 9 r ' ' '.",
"V./ Y 7 g $ $ %   $ $ $ - = - : - $ $ $ X $ o o $ $ ; f 8 @.} F.",
"Z.m I 9 r $ @ # @ $ = o $ * $ & - % - - & o O $ O $ $ 4 e +.L P.",
"U.L M i r @ $ = $ $ @ $ - % % ; - % = $ # $ X O o O O 4 k B T r.",
"7.Z E e g V.b.Z.a.H.K./.~.P.!.Q.!.V.J.D.E.C.M.L.`.V.W.a g | I I.",
"U.y.A.J.L.G.c.j.z.Z.r.e.v.7.V.M.M.Z.V.r.H.H.B.t.m.L.f.b.Q.J.W.Z."
};
