/* XPM */
static char *dHJhcA__[] = {
/* columns rows colors chars-per-pixel */
"32 32 151 2 ",
"   c #32261E",
".  c #36281F",
"X  c #392A1F",
"o  c #352723",
"O  c #3B2D24",
"+  c #3E2F28",
"@  c #3E3125",
"#  c #3F3228",
"$  c #402F25",
"%  c #433326",
"&  c #43342A",
"*  c #49372B",
"=  c #463929",
"-  c #4C3B2D",
";  c #503F2E",
":  c #4D3C32",
">  c #513F31",
",  c #53422E",
"<  c #58462E",
"1  c #59492F",
"2  c #534133",
"3  c #594535",
"4  c #574831",
"5  c #5C4B34",
"6  c #564339",
"7  c #5A473C",
"8  c #5D4B3B",
"9  c #614C3D",
"0  c #694F38",
"q  c #6B5136",
"w  c #675139",
"e  c #6A533B",
"r  c #6A593F",
"t  c #72573E",
"y  c #73593E",
"u  c #795C3F",
"i  c #5E4B41",
"p  c #624D42",
"a  c #655142",
"s  c #6E5642",
"d  c #705540",
"f  c #745941",
"g  c #795D40",
"h  c #756142",
"j  c #7D6444",
"k  c #7C6944",
"l  c #7D6449",
"z  c #7F6A4F",
"x  c #816545",
"c  c #836648",
"v  c #866E4A",
"b  c #8E6E48",
"n  c #8D734C",
"m  c #907047",
"M  c #92754E",
"N  c #947C4E",
"B  c #867352",
"V  c #887453",
"C  c #8E7A54",
"Z  c #8F7B59",
"A  c #937651",
"S  c #957B52",
"D  c #9B7D54",
"F  c #9B8154",
"G  c #9E8856",
"H  c #97835E",
"J  c #9A835C",
"K  c #9B885E",
"L  c #A58552",
"P  c #A38B55",
"I  c #A1845A",
"U  c #A68D59",
"Y  c #A88F5A",
"T  c #AD945C",
"R  c #9E8462",
"E  c #9F8960",
"W  c #AA8E66",
"Q  c #AE9264",
"!  c #B09465",
"~  c #B89F67",
"^  c #B1946A",
"/  c #B29A69",
"(  c #B89E6A",
")  c #BDA573",
"_  c #BEA972",
"`  c #C1A76E",
"'  c #C2A86F",
"]  c #CBAD6F",
"[  c #C2A770",
"{  c #C5AB73",
"}  c #C3A976",
"|  c #C1AA76",
" . c #C5AB75",
".. c #C4A876",
"X. c #C5A977",
"o. c #C4AA77",
"O. c #C6AB76",
"+. c #C3AA75",
"@. c #CAAB72",
"#. c #C9AC72",
"$. c #CBAC73",
"%. c #C9AC74",
"&. c #CAAD75",
"*. c #CAAC76",
"=. c #CBAD77",
"-. c #CBAE76",
";. c #CCAD74",
":. c #CBAD74",
">. c #C4A97A",
",. c #C7AD7A",
"<. c #C5AB79",
"1. c #C8AE7D",
"2. c #CAB073",
"3. c #D5B87E",
"4. c #D7BA7E",
"5. c #DCBF87",
"6. c #DCBF83",
"7. c #DEBF88",
"8. c #DDC182",
"9. c #DBC184",
"0. c #DAC286",
"q. c #DBC387",
"w. c #DCC285",
"e. c #DFC384",
"r. c #DDC386",
"t. c #DCC287",
"y. c #DEC487",
"u. c #DEC184",
"i. c #DBC289",
"p. c #DDC088",
"a. c #DCC289",
"s. c #DFC288",
"d. c #DFC588",
"f. c #DEC489",
"g. c #DFC58A",
"h. c #DEC68A",
"j. c #DEC489",
"k. c #E1C387",
"l. c #E2C589",
"z. c #E4C78D",
"x. c #E0C68B",
"c. c #E6CA89",
"v. c #E2CA8C",
"b. c #E3C98E",
"n. c #E6CD8D",
"m. c #E9CD8C",
"M. c #EBCD8D",
"N. c #EBCE8E",
"B. c #EBD08D",
"V. c #ECCE92",
"C. c #EBCF90",
/* pixels */
"z m D F S S D D D D D D D D D D D D D D D D D D D D D D D D S b ",
"l L +.9.k.w.5.a.w.w.w.w.y.y.9.9.9.w.w.w.9.9.d.9.i.i.u.5.a.6.( D ",
"l -./ / >.>.O.| ........O...O...O...O...O.....O.o.O.[ O.,.Q  ./ ",
"l ;.h.r : f g g u g g g g u g g g g g g g g f g g g u g q W v.^ ",
"l #.x.s & 3 d f f f f f f d f f f f f f f u f f f g j g t ! z.Q ",
"l #.w.f * 2 9 p p p p p p p p p p p p p p p i i 6 : : 6 4 W z.Q ",
"j #.y.r % ; * 6 7 7 7 7 7 7 i 7 7 7 7 7 7 7 i * * 8 , - o Z M.Q ",
"j *.k.8 o & & $ - 3 2 3 > > > > > 2 2 > > > 2 O H v.Q P 1 B M.Q ",
"j *.a.8 % 2 : ; ; 3 9 9 9 i i 9 i i i p p p p O K _ A P , V n.Q ",
"j *.x.5 % 2 2 2 > > 7 i p i i 9 i p 8 6 > 3 7 O J W j V O C M.Q ",
"l #.d.5 & 3 2 2 ; > > 8 p 9 9 i i p : & - - *   J ' N P < V M.Q ",
"j -.d.8 @ 2 - - > ; - - 6 8 8 7 8 i & h Y x j * H ' N T 4 B V.Q ",
"j #.d.8   = @ % % % @ # @ - 3 3 3 6 + k M u j % J _ S U 1 V M.^ ",
"l ;.h.8   - 2 2 ; > > > 2 - 2 7 3 7 & k h 9 e . J ' N U 4 V M.Q ",
"j #.d.w   % - 2 2 2 > ; 2 & % = & & o x n t x % J ' N U 4 B C.Q ",
"j -.a.8   @ @ - > > 2 , 2 % 9 j p i & k M u x = H ' N Y < V C.Q ",
"l #.h.w   % * & * > - 2 2 @ q s 8 p & j n f x % J ' N Y < V M.Q ",
"j 2.h.8   & & @ @ @ @ @ @ @ e 3 : 3 O k n t x % H ' N Y < V M.Q ",
"l 2.h.5   # @ @ @ @ # % @ O w s i i # k M u x % H ' N Y < V B.Q ",
"l #.h.8   @ @ @ @ 6 i 2 , @ w s i i # k m t x = H { N Y < B M.Q ",
"l ;.d.8   @ # @ @ 6 6 2 2 @ e s i i & k n f x = J ' N U < V C.Q ",
"l #.h.w   % # O @ 6 - * * O w s i p & h M f x * H ' N Y < B C.! ",
"l 2.h.5   % @ @ @ 7 2 2 2 @ e s i p & j n t x % H ' N Y 1 B C.Q ",
"c #.h.8 % 2 * = @ 6 6 > : & e s 6 p & j M f l % H ' N U < V M.Q ",
"j -.x.5 & ; * * O 7 3 - 2 & w s i p & k n t x % H ' N U 4 B B.Q ",
"l #.v.5 & * % % O 6 3 - 2 @ w s i p & j M u x % H ` N P 4 B M.! ",
"l #.q.8 & : * - % 7 7 2 2 % e f i p & k N u c - K 2.F T 5 V C.^ ",
"l ] x.8 O * & & O > > * - O 9 e 6 i O h v e g % Z ( n G ; B B.Q ",
"l #.9.9 O % & % % & * % & & % * & & & = - * % % - > - : X S n.^ ",
"l ] / ) ,.O. .,.,.O.>.O.>.O.O...| >.>.| ....o. ._ ) _ ) ,.! _ / ",
"x L [ 6.w.u.w.w.6.w.6.k.w.6.u.u.k.w.k.w.k.u.u.k.a.w.u.w.k.4.~ A ",
"B b S S M M M A M M M M M M M M M M A M M M M M M A A M N S A v "
};
