/* XPM */
static char *Zmxvb3I_[] = {
/* columns rows colors chars-per-pixel */
"32 32 183 2 ",
"   c #5D524C",
".  c #5D4C56",
"X  c #5E5653",
"o  c #5D5855",
"O  c #5E5858",
"+  c #65594D",
"@  c #635A54",
"#  c #6C5F56",
"$  c #645B5B",
"%  c #6A5E5C",
"&  c #6A6157",
"*  c #66635F",
"=  c #6B635D",
"-  c #6A6A5C",
";  c #716557",
":  c #766B57",
">  c #71655C",
",  c #736A5C",
"<  c #73705F",
"1  c #7B725E",
"2  c #645B62",
"3  c #695D63",
"4  c #666465",
"5  c #6B6363",
"6  c #6A6963",
"7  c #676569",
"8  c #6B6369",
"9  c #6C6A6C",
"0  c #736565",
"q  c #7A6562",
"w  c #726C65",
"e  c #7A6C63",
"r  c #76666C",
"t  c #79656D",
"y  c #726B6B",
"u  c #7A6C6C",
"i  c #6D7066",
"p  c #6F706C",
"a  c #737164",
"s  c #7B7363",
"d  c #77716D",
"f  c #7B726D",
"g  c #7D796D",
"h  c #6C6B70",
"j  c #776571",
"k  c #796570",
"l  c #766D70",
"z  c #7A6D74",
"x  c #7B6E79",
"c  c #6F7271",
"v  c #757272",
"b  c #7B7274",
"n  c #7C7B74",
"m  c #7C7179",
"M  c #7E7A7C",
"N  c #817464",
"B  c #847965",
"V  c #82746C",
"C  c #837A6B",
"Z  c #897D6C",
"A  c #817474",
"S  c #837A75",
"D  c #8A7C73",
"F  c #81737B",
"G  c #817A7C",
"H  c #897C7C",
"J  c #907F75",
"K  c #7F8173",
"L  c #7F807A",
"P  c #858063",
"I  c #86816E",
"U  c #8A826C",
"Y  c #938369",
"T  c #828174",
"R  c #8C8072",
"E  c #83817B",
"W  c #8B837C",
"Q  c #8E887D",
"!  c #978D72",
"~  c #92867D",
"^  c #928C7B",
"/  c #9B8A7D",
"(  c #90917F",
")  c #9D907F",
"_  c #A49B7C",
"`  c #7F7782",
"'  c #7E7C81",
"]  c #837681",
"[  c #817A81",
"{  c #8A7F83",
"}  c #838283",
"|  c #8A8282",
" . c #848984",
".. c #898983",
"X. c #85858A",
"o. c #8A8689",
"O. c #868989",
"+. c #8D8B89",
"@. c #938D82",
"#. c #948789",
"$. c #928C8A",
"%. c #9C8B8B",
"&. c #8E9082",
"*. c #8C918A",
"=. c #969082",
"-. c #9B9286",
";. c #94918C",
":. c #9B938B",
">. c #9C8B93",
",. c #9B8F98",
"<. c #9A9092",
"1. c #979890",
"2. c #9E9995",
"3. c #9B9099",
"4. c #9E9B9C",
"5. c #A48C82",
"6. c #A48C8E",
"7. c #A59385",
"8. c #A5948A",
"9. c #A59B89",
"0. c #AC9E8B",
"q. c #A58A93",
"w. c #A49393",
"e. c #A69D95",
"r. c #AE9E92",
"t. c #A2919A",
"y. c #A5919A",
"u. c #A5919C",
"i. c #A2919B",
"p. c #A39998",
"a. c #A59A9A",
"s. c #A49A9B",
"d. c #AF9C98",
"f. c #AF9B9C",
"g. c #AC9A9A",
"h. c #B7AE8D",
"j. c #A6A593",
"k. c #A3A294",
"l. c #A9A393",
"z. c #A3A49F",
"x. c #B9AE90",
"c. c #B0A79E",
"v. c #B9AA9C",
"b. c #9F9DA0",
"n. c #A597A4",
"m. c #A797A4",
"M. c #A599A3",
"N. c #A49AA3",
"B. c #A69BA3",
"V. c #A69CA5",
"C. c #A49BA3",
"Z. c #A5A3A4",
"A. c gray65",
"S. c #A6A5A5",
"D. c #ACA0A4",
"F. c #AEA5A6",
"G. c #A9A5A6",
"H. c #A6A8A7",
"J. c #ADADA1",
"K. c #A8ADA6",
"L. c #AEAEA3",
"P. c #A5A6A8",
"I. c #A6A5A9",
"U. c #A9A4A8",
"Y. c #A9A4A9",
"T. c #A7ADA9",
"R. c #A8A9AD",
"E. c #ADAFAC",
"W. c #ABABAC",
"Q. c #B1A6A0",
"!. c #B1A2A3",
"~. c #B2AFA0",
"^. c #BAADA4",
"/. c #B1B2AC",
"(. c #AEAEB0",
"). c #B4B9B2",
"_. c #C3BA93",
"`. c #C2B7A5",
"'. c #C6C0A6",
"]. c #C8C2A8",
"[. c #C5C4B2",
"{. c #CFC7B2",
"}. c #CEC8B8",
/* pixels */
"2 5 6 2 5 5 y 5 n & & # 5 * $ > 3 $ 0 $ a ; < = @ e a B . $ 2 5 ",
"5 $ 4 5 v h 9 n v # 3 $ 0 3 $ y @ 3 $ # & a n - 0 y 9 y = = @ 3 ",
"7 d t.4.E.H.K.{.-.e.Q.w.H e.6.B.e.3.w.q.w.3.G.3.u.N.N.N.s.8.w 3 ",
"p 8 t.F.T.H.E.c.J.e.^.-.F.3.,.y.<.f.0.8.w.%.j.#.<.t.N.H.C.u.2 5 ",
"7 9 n.s.y [ } X.;.S n M x ' u z b :.A M f A } m M b ` M P.Z.8 w ",
"7 2 ,.n.} f } | O.} +.v [ [ W V A y :.G M l b A G F G m s.N.8 2 ",
"5 3 3.V.[ '  .v X.G T b ' F z H q 0 1 G R u y t x x m ' n.3.3 2 ",
"2 3 f.>.' M | | ' G S } u b v z A Q C C G A u x m G m [ 3.u.8 $ ",
"2 3 n.u.*.M M [ ' | m v x H S H W Q ) V S m A x { } ' { ,.,.r d ",
"3 8 V.V.} o.[ G } } F m x v F } W E I S G ] b [ } [ ] ' %.N.8 2 ",
"8 8 ,.I.[ F [ ' X.F [ S m [ A F b G T S E m ] [ ' [ M ` s.V.2 2 ",
"2 8 R.C.X.}  .[ { 0 F m F G x z b Q d f G z G G G v m } 4.Y.8 3 ",
"8 c A.R.M G S M S 0 x x m V z m B S M ..E b m m m m m } ).4.h y ",
"9 7 S.s.W | G  .' { f m ] H e u W W } } G m ' x ] z { } T.L.7 8 ",
"9 2 S./.Q , M L G m F [ F [ M u G n G x r x m b [  .G m s.P.9 8 ",
"9 8 A.P.v G m f z b F z m m ' { F x z j G L v G W b  .F 3.4.i 5 ",
"4 9 V.C.b m G | F | e V y ' F x x u F G ;.G [ E y S Q S t.8.9 9 ",
"$ 8 a.b.v ] m [ F b t F m b x m b x j H +.W S b z x l M P.c.9 9 ",
"# h k.Y.z x ' x x [ { u [ F [ b [ b } { G } S q f M M W P.V.9 6 ",
"@ 7 ~.W.b G o.' x x [ x M F [ x F x S '  .G } D f S O.X.V.8.5 = ",
"2 o e.V.m m [ [ G ' { x [ M ' x z E +.} [ $.y Z ` n @.G H p.3 = ",
"r $ >.P.m n G } G ' M r { ] ] ] x [ } } }  .F W T D x v 8.3.9 $ ",
"a 9 a.3.o.} [ M [ X.' | M G G [ x b M } } G F -.C | E A ) e.= n ",
"a 9 t.3.[ [ ' O.O.} } ..v S X.u f K R T v ] G U L E U D / e.w = ",
"# 3 N.N.} } } ' X.M { W T } b C G n g 1.| y S ..&.=.S B 0.0.: s ",
"5 % Z.V.m  .} } } { y -.C ( S x M p.~ f D b G } +.;.T k.~ 0.& 1 ",
"$ 9 1 2.;.S } F { S T Z N T -.v ~ Q ( ^ b z M } }  .;...x.7.; , ",
"2 p }.W G C n ' [ S W _ Y ! f V u E E ;.0 z A ' ' X. .M _.^.+ # ",
"= 5 9.9.9.#.J.c.a.c.r.;.8.6.J r.$.f.v.w.t.y.3.s.A.A.(.'.].e.s & ",
", > 5./ c.j./.H.J.f.v.8.e.h.8.a.r.9.%.>.,.3.t.:.V.b.A.[.+.Q.5 $ ",
"1 a : 5 y O 9 9 4 8 w , > # > 4 @ 3 3 3 8 6 $ 3 $ 9 * i v 8 8 m ",
"% y @ - 6 9 4 * 9 5 - = 1 @ #   O 5 4 5 8 C - = O l a - 9 $ 3 7 "
};
