/* XPM */
static char *Z2Nj[] = {
/* columns rows colors chars-per-pixel */
"32 32 168 2 ",
"   c #1E1A16",
".  c #1E1A19",
"X  c #211916",
"o  c #211A19",
"O  c #143D34",
"+  c #6C2A0A",
"@  c #6A2C07",
"#  c #1F5D4D",
"$  c #1F5D50",
"%  c #205D4D",
"&  c #1C604B",
"*  c #4F6F7D",
"=  c #4D6874",
"-  c #576E74",
";  c #536E7A",
":  c #4C717A",
">  c #577377",
",  c #5B7276",
"<  c #57737D",
"1  c #5A757B",
"2  c #5D797A",
"3  c #60777F",
"4  c #A65325",
"5  c #A95325",
"6  c #2C856E",
"7  c #30856E",
"8  c #2C8571",
"9  c #308570",
"0  c #E69434",
"q  c #E89434",
"w  c #E59438",
"e  c #E89338",
"r  c #FCDA64",
"t  c #4F6B81",
"y  c #4E7187",
"u  c #557483",
"i  c #5D7683",
"p  c #577886",
"a  c #5D7A86",
"s  c #56768A",
"d  c #59768B",
"f  c #567B8A",
"g  c #5B7B8A",
"h  c #5A7890",
"j  c #657781",
"k  c #647C84",
"l  c #657C8B",
"z  c #6C7F8D",
"x  c #637D90",
"c  c #6B7E95",
"v  c #36A789",
"b  c #39A78C",
"n  c #37A98C",
"m  c #39A98D",
"M  c #5E828E",
"N  c #63828C",
"B  c #6A848D",
"V  c #6C898F",
"C  c #70848D",
"Z  c #648391",
"A  c #6B8592",
"S  c #6C8A96",
"D  c #718695",
"F  c #738B96",
"G  c #7A8B94",
"H  c #72879A",
"J  c #758C99",
"K  c #7B8C9B",
"L  c #75909B",
"P  c #7D929C",
"I  c #7E9C9E",
"U  c #788CA5",
"Y  c #758EA2",
"T  c #7F91A5",
"R  c #78A5BA",
"E  c #79A7BB",
"W  c #7CADC3",
"Q  c #7AB0CA",
"!  c #808E99",
"~  c #80959E",
"^  c #8294A2",
"/  c #8B97A2",
"(  c #8698A2",
")  c #8B9AA4",
"_  c #95A4AC",
"`  c #96A3A9",
"'  c #84AEBB",
"]  c #88ABBE",
"[  c #86ADB2",
"{  c #9DA6B7",
"}  c #86B3BA",
"|  c #8AB2BE",
" . c #8BAEC1",
".. c #87B2C5",
"X. c #8AB4C3",
"o. c #89B9C7",
"O. c #85B6CC",
"+. c #85B9CD",
"@. c #8ABACB",
"#. c #8AB2CC",
"$. c #93B4C7",
"%. c #93BAC6",
"&. c #92BBCC",
"*. c #87B3D1",
"=. c #82B9D7",
"-. c #8FBFD6",
";. c #83BBDA",
":. c #8BB9DA",
">. c #93B7D1",
",. c #91BDD5",
"<. c #91BDD8",
"1. c #AAB0C0",
"2. c #8EC2CC",
"3. c #94C3CD",
"4. c #8EC1D4",
"5. c #8CC2DA",
"6. c #91C1D5",
"7. c #9ACCD5",
"8. c #92C2D9",
"9. c #9CC6DB",
"0. c #96CEDF",
"q. c #9DCBDF",
"w. c #9DC2D5",
"e. c #A2C6DE",
"r. c #A6CDDE",
"t. c #ABCFDD",
"y. c #96C4E2",
"u. c #99C6E2",
"i. c #9DCAE2",
"p. c #A3C5E2",
"a. c #AEC7E5",
"s. c #A5CFE3",
"d. c #A9CEE4",
"f. c #A0CEEF",
"g. c #ABCFEB",
"h. c #B0CAE3",
"j. c #ADD3E4",
"k. c #A6D1E9",
"l. c #ADD2EA",
"z. c #A3D0E3",
"x. c #B4D5E3",
"c. c #B9D9E6",
"v. c #B2D5EB",
"b. c #BAD5E9",
"n. c #B4D9ED",
"m. c #BBDBEE",
"M. c #B2D9F3",
"N. c #BADCF1",
"B. c #BADCF9",
"V. c #B4E1F6",
"C. c #BEE1F4",
"Z. c #B7E1F9",
"A. c #BDE3F8",
"S. c #C2DCEC",
"D. c #C4DDF4",
"F. c #C3DEFB",
"G. c #C1E1EE",
"H. c #C3E3F5",
"J. c #C8E8F7",
"K. c #C5E6FD",
"L. c #C9E5FC",
"P. c #CDEAFE",
"I. c #D2EFFF",
"U. c #D9EFFC",
"Y. c #DCF3FE",
"T. c #EEFFFF",
"R. c #F0FFFC",
"E. c #FEFFFE",
/* pixels */
"R W Q 5.3.+.e.j.R...M.9.g.O.W k.W o.9.l.A.j.C.k.l.m.D.E.-.q.B.7.",
"O.-.u.i.g.5.6.%.>.7.e.*.W N.N.p.Y.5.<.<.v.c.o.%.l.c.q.q.y.,.Z.m.",
"O.O.h P A S S k a < ` N 1.J A ( d p k g T M ( A B ~ l N K D D.m.",
"O.=.p H P _ D A A p d N A c / h u A ^ _ ) L g ~ k ) ` L c G a.v.",
"k.=.f A X o o       .           . . .       X o       . i G U.<.",
"i.;.Z d o + @ X O # # # O % # # # # # O # $ & O . + + X B l p.y.",
"=.=.g f . @ + o # # # # O # # # # # # O # # # $   + +   / B i.d.",
"5.4.d p . + 4   6 6 6 8 # 6 8 6 6 6 6 # 6 6 6 6   5 +   J D S.C.",
"+.H.D j   5 4   6 8 8 8 # 8 6 6 8 6 8 % 8 6 8 6 . 4 4 o B P m.x.",
"' 6.D g X 4 5 . 6 8 6 6 # 6 9 6 6 6 6 & 6 8 8 7   4 4   ^ l 9.O.",
"' X.< * X 4 4 X n m n n 6 n b n n n n 8 b n b n X 4 4   F J D.<.",
"} ' < 1   4 0 X n n n n 6 n n b b n n 8 n n b n . 0 4 X N S H.d.",
"]  .p , X 0 w . n m n n 6 n n n n v m 7 n b b v   0 e X J A J.I.",
"4.2.N ,   w q   6 9 6 6 % 7 6 8 6 8 8 % 6 6 6 8   e 0   _ Z s.B.",
"5.i.N )   0 q   % 6 8 8 % 8 6 6 8 6 6 % 6 8 6 #   0 0   B g i.,.",
"@.2.2 N   0 r + X o X X   o   X X X o   X   X   + r e X ^ ^ ,.5.",
"J.T.3 2   0 r r r r r r 0 X 0 r r 0 X 0 r r r r r r 0   { t k.K.",
"O.X.J 2   5 w 0 0 0 0 4   0 r w w r 0   4 e 0 0 w 0 4   N P i.i.",
"J.v.g A X     X X       X 4 r     r 4         X         J N 9.i.",
"0.i.B A   4 4   # # # # O   r     r   O # # # #   4 4   ( D g.#.",
"g.v.c =   w w   # 6 8 # % o 4 r r 4 . # % 8 8 #   0 w X z K [ K.",
"y.e.J u X 0 0 X 6 6 6 # 6 %   4 4   # 6 % 6 6 6   0 e o P ` 9.p.",
"Y.u.= ;   0 4   6 6 6 # 6 6 %     % 6 6 # 6 8 6   4 0 X B G S.:.",
"I.| < t o 4 5   % 6 6 # 6 6 6 # # 6 6 7 # 6 6 %   4 4   J B E.R ",
"c.[ - u o 4 4   . .         X X X X   X     .   . 4 4 X ! k n.b.",
"A.9.P i   5 +   + 4 4 0 0 0 0 w w 0 q w 0 4 5 +   + 4   S k e.Y.",
"v.&.1 N X + +   + + 4 5 4 0 0 0 0 q w 4 4 4 + +   + +   J S x.E.",
"i.s.A j   o X           X   X X X X   X       .   X     L ` t.c.",
"d.Z.N H ; B p Z i K j * Y ^ : k p G N a z u s l A Z P N N ~ I.G.",
"H...l 1 < l i , , > < K Z h D H Y ~ K S l c s s p V ^ I V B j.&.",
"W i.u.<.8.j.e.j.@.c.m.I.P.B.P.K.K.s.x.d.D.h.q.N.T.i.J.<.w.m.>.C.",
"A.+.l.n.n.n.6.6.7.s.$.} e.W q.u.s.d.d.&.x.b.p.*.i.M.&.r.H.v.J.d."
};
