/* XPM */
static char *aWNl[] = {
/* columns rows colors chars-per-pixel */
"32 32 199 2 ",
"   c #4B6B76",
".  c #4F6C7A",
"X  c #556D75",
"o  c #526E7C",
"O  c #4E717D",
"+  c #587175",
"@  c #54737C",
"#  c #59737B",
"$  c #5D787F",
"%  c #567584",
"&  c #5A7584",
"*  c #567883",
"=  c #5C7B84",
"-  c #53778A",
";  c #56798B",
":  c #5B7C8A",
">  c #627A86",
",  c #647E8C",
"<  c #627F92",
"1  c #6A7E92",
"2  c #5F838F",
"3  c #5F8391",
"4  c #5E899A",
"5  c #64828D",
"6  c #6B848E",
"7  c #72858D",
"8  c #658393",
"9  c #6B8593",
"0  c #618897",
"q  c #6B8B93",
"w  c #63869A",
"e  c #62899A",
"r  c #6A8C9B",
"t  c #728694",
"y  c #738A95",
"u  c #798B95",
"i  c #738599",
"p  c #748D9A",
"a  c #7A8D9C",
"s  c #798794",
"d  c #6C919D",
"f  c #739195",
"g  c #73929C",
"h  c #7A929D",
"j  c #76999D",
"k  c #5E8BA3",
"l  c #618CA2",
"z  c #6A8DA2",
"x  c #7A8EA0",
"c  c #738FA4",
"v  c #6491A1",
"b  c #6A91A2",
"n  c #6F99A7",
"m  c #6A92A8",
"M  c #6F99AD",
"N  c #7291A0",
"B  c #7E94A2",
"V  c #7298A2",
"C  c #7A99A4",
"Z  c #7296AA",
"A  c #7997AB",
"S  c #7298AA",
"D  c #7B9BAC",
"F  c #759CB1",
"G  c #7C9DB2",
"H  c #7AA0AC",
"J  c #76A1AA",
"K  c #77A3B4",
"L  c #7DA1B2",
"P  c #7BA5BA",
"I  c #74A4BA",
"U  c #7CACC3",
"Y  c #76A9C8",
"T  c #79AECD",
"R  c #7BB0CE",
"E  c #7FBBD7",
"W  c #80919D",
"Q  c #8494A3",
"!  c #849BA5",
"~  c #829EAC",
"^  c #8B9DAC",
"/  c #8A9AA7",
"(  c #919CA2",
")  c #829BB1",
"_  c #83A1AC",
"`  c #97A5AE",
"'  c #83A3B4",
"]  c #8AA5B5",
"[  c #85A9B5",
"{  c #8CAAB4",
"}  c #84A5B9",
"|  c #8AA5BA",
" . c #84A9BB",
".. c #8BABBB",
"X. c #92AAB6",
"o. c #9AA9B4",
"O. c #93ADBC",
"+. c #99AEBB",
"@. c #91A6B9",
"#. c #87B1BD",
"$. c #8DB2BC",
"%. c #95B0BD",
"&. c #92BABD",
"*. c #A5AEB6",
"=. c #A5B3B4",
"-. c #8DADC1",
";. c #94AFC0",
":. c #88B2C4",
">. c #8AB9C7",
",. c #86B4CD",
"<. c #86B9CD",
"1. c #8BB9CA",
"2. c #85B3C3",
"3. c #95B1C2",
"4. c #9AB3C1",
"5. c #92BAC4",
"6. c #9CB9C6",
"7. c #9CB6C9",
"8. c #91B9CC",
"9. c #9FB9C8",
"0. c #91B5CD",
"q. c #86BBD7",
"w. c #87BAD9",
"e. c #87B6D7",
"r. c #90BED6",
"t. c #9BBED3",
"y. c #92BED9",
"u. c #9BBED9",
"i. c #A2B4C3",
"p. c #A3BAC5",
"a. c #A3B6CA",
"s. c #A3BAC9",
"d. c #ACBCCC",
"f. c #B1BECB",
"g. c #94BFE1",
"h. c #91C1CE",
"j. c #99C3CF",
"k. c #8DC2D5",
"l. c #91C1D7",
"z. c #9CC4D4",
"x. c #93C3DB",
"c. c #9CC5DB",
"v. c #96CDDC",
"b. c #9ACCD9",
"n. c #ACC2CC",
"m. c #B2C2CF",
"M. c #A5C7DB",
"N. c #A6CCDC",
"B. c #ACC6D6",
"V. c #B5C4D2",
"C. c #BECEDC",
"Z. c #B4CBD6",
"A. c #BED0DC",
"S. c #94C5E1",
"D. c #9DC7E0",
"F. c #9ECAE2",
"G. c #A4C6E3",
"H. c #A5CFE3",
"J. c #A9CFE4",
"K. c #ACC7E4",
"L. c #B0CFE4",
"P. c #A7D0E3",
"I. c #ACD4E6",
"U. c #AED8E6",
"Y. c #ABD3E9",
"T. c #B1D5E4",
"R. c #BCD3E3",
"E. c #B2D4EB",
"W. c #B2D8EE",
"Q. c #BADBEE",
"!. c #B5D9E6",
"~. c #BBDDF3",
"^. c #BBDDF8",
"/. c #BEE1F4",
"(. c #B3E1F0",
"). c #C2D3DB",
"_. c #C4D3E1",
"`. c #CDDAE5",
"'. c #C3DCED",
"]. c #C8D7E7",
"[. c #D3DCE3",
"{. c #C5DDF5",
"}. c #C3E2EF",
"|. c #C4E2F4",
" X c #CCE6F7",
".X c #C7E9F5",
"XX c #C5E4F9",
"oX c #CBE7FB",
"OX c #C7EBF9",
"+X c #C5EAFA",
"@X c #CDECF9",
"#X c #D3EDFD",
"$X c #D9EFFD",
"%X c #D6F0FF",
"&X c #DBF4FE",
"*X c #E4F7FE",
"=X c #E6FCFF",
"-X c #EDFEFE",
";X c #FCFFFE",
/* pixels */
"  O % ; = % , t o.# p < 9 & O 9 % # 5 i h q f 9 i u a *.: 9 c 5 ",
"& : < 9 8 : : $ = < , % . x p 1 / ; : : p u = * t u , < < > f p ",
"% @ y.+XP.U.Y.h.h.:.*Xb.;X~.L.#X8.q.8.r.XXS.#XP.N.#Xz.c.'.E.a h ",
"% - w.I.|.=X!.N.J.1.l.S.H.G.#Xl.R P.XX-X@XQ.k.OXh.&X*XQ.K.~.9 t ",
"9 - q.H.b 9._ ' ..G b q ).A G G D %.{ Z 3.7.3.V { _ i.~ 0.'./ : ",
"8 - F.E Z V V.d g %.%.' q } L q r ] 7.M | A z 3.n ! _ { M.u.1 < ",
"* - r.w.%.q V b | D G ;.7.D c N G D ..b ' l ' L L V %.X.$XN., 8 ",
": : q.<.D A ..L +.z } Z F 4.@._.e q 4.m ' F ' p._.H f s.R.U.u a ",
"* h I.t.e Z l 5 ' D r 2 D d.a.i.^ S l ;.k | `.`.w _.! X.N.|.f t ",
"@ = E.y.Z S Z | D 4 : Z 3 ' 0 D s.r ).i.7.d._.C.R.v  .D XXc.5 & ",
"o @ -.U _.F L z -.} w.,.q.:.b.c.1.~.1.;X-X'.V.V.m 3.[ %.E.~.W : ",
"# @ #.#.N 3 p 5 r C I P U l.S.F.N.=X:.1.G.%XR.i.z | S } c.W.W 9 ",
"# + <.$.g b r 2 9 D <.q.: : 3 6 p s 7 a %XQ.7.e m ..D } T.P.h ! ",
": = F.[ j f g g O.> P.K @ @ 5 y y a > t c.y.Z G B.e ' G =XF.9 h ",
": 5 N.&Xy f d { Z.;.T -.@ = _ { _ H 6 t t.0.} | D a.m N M.y.9 & ",
": = &.z.h f { _ X.! 5.#.* 5 X.J [ %.@ y ,.c.7.} D  .F r XXoX: : ",
"B o.5.5._ D j } O.V ..[ X 5 D V g N = s y.^.O.' m Z m r -XY 9 B ",
"% # /.&.D _ p.{ { ;.c.c.* 6 L S N d : h D.Q.~ ;.G m S ~ b.XX< < ",
"h p l.H.[ H { S ).D Q.Q.: 9 B 2 5 y @ > |.|.| A 0 S V ^ ~.J., 8 ",
"5 5 J.P.' g m ).L `.8.Q.% & , t 9 `   W c.|.G e ;.n.D f.oXL.i & ",
"t p G.F 8 4 G [.b +. Xc.U U ;XU.U.|.c.z.c.oXm r ..O.$.C M.Q.X a ",
"< 1 W.,.: e n Z.4.L {.c.P F.;Xt.F.#.P Q.c.W.' ' _ L g %.{.-X6 1 ",
"^ 8 P U L w r _ f.n.b | d w i.R.z 9 b S G ' S s.{ L $.^ H.!.a - ",
"! # #.T 8 q b F D { ;.L ^ 5 -.~ ' ' b e L r z L ..j V [ U.Z.*.X ",
"u X #.:.5 5 d r } ' C q 8 S ' { +.D Z D w l B.Z d q _ $./.z.a y ",
"h , XX5.r G d d r r %.L 6.' ' ' s.D p G Z ' A O.q D { [ U.h., ( ",
"t = %.v.q 0 q q q } 4.V. .H ..' X.D ] D Z L z z [ _ { { (.L.y =.",
"5 9 N.t.H O.).C.3.| ' w ' S K ' O.C C V.] Z L } p.%.D _ '.=X6 u ",
"9 p c.E. .P.<.c.8./.5.U ^.XXU h.r.Q.c.0.K.,.R c.J.G.|.b.b..X! h ",
"B & c.1.1.z.8.$.$. .:.'.S.g.Y.E.~.|.W.I.t.G.e.e.w.H.OXOXU.N.t # ",
". 8 , : 5 9 6 y $ u p / Q x Q Q Q 9 y t B 1 < a +.8 W = > p = h ",
"h % q p y y : = 5 9 & + , O 8 5 8 9 6 & s i 1 % 5 p & 9 W p h 9 "
};
