/* XPM */
static char *bHdp[] = {
/* columns rows colors chars-per-pixel */
"32 32 198 2 ",
"   c #4E6F7D",
".  c #4C6773",
"X  c #576E74",
"o  c #526F7B",
"O  c #577377",
"+  c #587176",
"@  c #54717C",
"#  c #5B747B",
"$  c #55787E",
"%  c #5E7879",
"&  c #4D6C80",
"*  c #4E7284",
"=  c #557483",
"-  c #5C7783",
";  c #5C7A86",
":  c #56768A",
">  c #56788B",
",  c #5C7B8B",
"<  c #5B748A",
"1  c #5F7990",
"2  c #647B86",
"3  c #647D8C",
"4  c #6C7F8D",
"5  c #6A7F95",
"6  c #647F92",
"7  c #5A828E",
"8  c #5E8290",
"9  c #5F8997",
"0  c #63828C",
"q  c #6A838D",
"w  c #638292",
"e  c #6B8592",
"r  c #648894",
"t  c #6B8A94",
"y  c #62879A",
"u  c #62899B",
"i  c #6B8C9B",
"p  c #718694",
"a  c #738B96",
"s  c #7A8C97",
"d  c #718699",
"f  c #768D9A",
"g  c #7A8D9B",
"h  c #6C919C",
"j  c #749195",
"k  c #73939C",
"l  c #7C929C",
"z  c #72989F",
"x  c #7E9A9E",
"c  c #5E8BA3",
"v  c #628CA3",
"b  c #6B8DA2",
"n  c #778DA4",
"m  c #6591A4",
"M  c #6A91A1",
"N  c #6792AA",
"B  c #6A93AA",
"V  c #6E98AA",
"C  c #7192A2",
"Z  c #7C94A2",
"A  c #7199A4",
"S  c #799AA3",
"D  c #7296AA",
"F  c #7A95AB",
"G  c #7299AA",
"H  c #7B9BAC",
"J  c #759BB0",
"K  c #7B9CB1",
"L  c #7BA0AB",
"P  c #75A1AC",
"I  c #76A1B3",
"U  c #7DA1B2",
"Y  c #7DA3B8",
"T  c #7FADBC",
"R  c #73A3B9",
"E  c #7CADC3",
"W  c #79B1CA",
"Q  c #82969E",
"!  c #8294A1",
"~  c #849BA6",
"^  c #8B9AA4",
"/  c #829CAB",
"(  c #899EAD",
")  c #929FA7",
"_  c #829CB2",
"`  c #87A0A7",
"'  c #83A1AC",
"]  c #95A3AD",
"[  c #83A3B3",
"{  c #8AA4B4",
"}  c #84A9B5",
"|  c #8BA9B4",
" . c #84A4B8",
".. c #8AA5B9",
"X. c #85AABB",
"o. c #8CABBB",
"O. c #91A6B6",
"+. c #99A5B1",
"@. c #92AAB5",
"#. c #93ACBB",
"$. c #9BADBA",
"%. c #87B2BA",
"&. c #8BB1BB",
"*. c #95B1BC",
"=. c #9BB1BD",
"-. c #8EACC1",
";. c #93AEC0",
":. c #9AAEC1",
">. c #85B4C6",
",. c #8DB4C3",
"<. c #86B5CB",
"1. c #89B2CA",
"2. c #86B9CD",
"3. c #89B8C9",
"4. c #95B1C2",
"5. c #9CB4C2",
"6. c #91BAC6",
"7. c #9CB6CA",
"8. c #91BACD",
"9. c #9EB9CA",
"0. c #86B3D0",
"q. c #8FBFD6",
"w. c #83BAD9",
"e. c #85BBD6",
"r. c #92BED7",
"t. c #91BDD9",
"y. c #A1B5C2",
"u. c #AAB0C0",
"i. c #A3B9C5",
"p. c #A2B6C9",
"a. c #A3BBCA",
"s. c #ABBCCA",
"d. c #B0BDCD",
"f. c #8EC3CB",
"g. c #92C2CE",
"h. c #8EC1D4",
"j. c #8CC1D9",
"k. c #92C1D6",
"l. c #9ACCD6",
"z. c #91C2D8",
"x. c #9CC5DB",
"c. c #9DC5D9",
"v. c #ACC1CC",
"b. c #B3C1CE",
"n. c #ABC3D2",
"m. c #A6CADE",
"M. c #ABCFDB",
"N. c #B4C3D2",
"B. c #BBCAD4",
"V. c #BAC9D7",
"C. c #BDD1DD",
"Z. c #96C4E3",
"A. c #99C5E0",
"S. c #9DCAE1",
"D. c #9FCEEC",
"F. c #95CCE0",
"G. c #A3C5E2",
"H. c #A5CFE3",
"J. c #AACDE4",
"K. c #BECFE1",
"L. c #A6D0E5",
"P. c #ADD2E5",
"I. c #ABD2EA",
"U. c #A6D2EB",
"Y. c #B1D4E3",
"T. c #B9D5E6",
"R. c #B1D5EB",
"E. c #BAD5EA",
"W. c #B3D8EE",
"Q. c #BADAED",
"!. c #B2D8E3",
"~. c #B2D7F1",
"^. c #B2DAF4",
"/. c #BBDDF3",
"(. c #B5E2F6",
"). c #BDE1F4",
"_. c #C3D2DD",
"`. c #C8D5DE",
"'. c #C3D3E1",
"]. c #C3D3E0",
"[. c #C3DBED",
"{. c #CBDAE9",
"}. c #CCD7E4",
"|. c #D2DCE5",
" X c #C4DDF4",
".X c #C3DEF9",
"XX c #C3E2F4",
"oX c #C4E6FC",
"OX c #C8E2F9",
"+X c #CDEAFD",
"@X c #D2EFFF",
"#X c #D9EFFD",
"$X c #D0F0FF",
"%X c #DAF4FF",
"&X c #E0F2FE",
"*X c #EEFFFE",
"=X c #F1FFFD",
"-X c #FEFFFF",
/* pixels */
"R E W j.g.2.x.P.*X1.^.x.I.0.E U.E 3.x.R.).I.).L.Y.Q.[.-Xk.H./.l.",
"<.r.Z.S.J.j.z.6.8.c.x.<.E /.Q.G.#Xj.r.r.I.E.3.6.P.Q.S.x.Z.r.(./.",
"2.>., ! e t t 2 ; @ ] 3 u.f q ^ ; > ; , ! 0 ! q p Q 4 2 ! d .XQ.",
"0.w.> t Z ] a q t - > 6 5 5 ^ , = q Z ] ^ j , x ; ` ] a 4 g J.P.",
"D.e.> e b 9.' [ ..H k i _.H K H H ;.| D 4.5.4.A | ' 5.( - s #Xt.",
"S.w.w > G z N.k k =.;.[ r [ U a i { 7.D ..H M 4.G / ' | 4 3 G.Z.",
"<.w., > *.t A i { H K ;.7.H b C K H o.M  .v  .L L z #.@.^ q x.H.",
"z.j., = H V o.U 5.M  .V J 5.O.}.9 r :.B [ G  .i.'.L j y.s p [./.",
"2.XXt 2 c D v 0 [ H i 8 H s.9.y.( D v -.c ..{.{.r '.~ @.q l Q.Y.",
"X.k.p < D F D { J y 3 G w [ r H a.i ].y.9.d.'.V.K.N } H ! 3 x.2.",
">.>.# @ '.J H b o. .N b N i H H k #.C `.V.$.N.N.B 4.X.4.a f  Xt.",
"%.X.+ + M 6 C 0 i F 7 8 u G G [ _ N.i C _ s.C.p.b ..D [ q a XXL.",
"X.o.= O k h t w e H i m V G R ' &.O.{ #.s.#.7.r N o.H [ p e OX@X",
"h.f.r + l j k C #.3 [ 0 r h G | { $.S { / D B K n.v [ K ] w L.).",
"j.F.q ^ j t h | V.*.v t 9 z ' | ' P ' { F i } ..H p.G C 4 , S.r.",
"h.g.% 2 z j | ' | / k t C H @.P } $.t o.b K 9.[ J ..J i Z ! r.j.",
"XX*X# % ' L A  .#.S t q 0 H L A z k A O.F ;.#.[ B D M i +.  I.oX",
">.,.l % H ' i.} @.#.H G k ' [ G b h G #.K o._ :.K m G / w Z S.Z.",
"oX^.3 e | P ..A C.H #.#.V [ 4.I L { r S =.=...D r G A ( f e x.S.",
"x.x.w e } k M _.U }.C o.M M H  . .B.w =.H =.K y ,.s.H d.! p P.1.",
"~.R.e . w 9 K |.h 4.p.H y y |.| | *.H H H 5.M b o.#.&.S 4 s } .X",
"Z.G.a = , u V B.5.U =.H 0 U _.Z K t w #.H ..{ [ [ [ k *.l +.x.G.",
"%XZ..    .y i ' d.v.M } M y i.T.M r h V I [ G a.| K #.' q g [.e.",
"$X-.+ * 0 t M H H o.#.K ' q ;./  . .b u [ i b U o.z z } f q -XY ",
"Q.} + - 0 0 h t [ } H t 0 G U ..$.K D / y v n.G h t ' o.l 2 Q.T.",
").c.l - i J M h h i 5.K 9.U  .' a.H f H D } F 4.t ' | } a ; c.&X",
"R.8.# 0 e r t a t [ 5.N.X.U o.[ #.F { K D _ i b } L | | f a !.-X",
"S.L.q 2 I #._.C.:. .[ y _ G U  .*.Z S N.{ D Y _ i.5.H ' l ] M.T.",
"J.(.3 d @ q = 0 - g # o f Z   , - s 3 ; 5 = & 6 e 6 l 0 0 x +X).",
"XX>.4 $ $ 4 - # # + = s 6 1 a f n Q d t 2 5 < : : e ! x t q Y.6.",
"E S.x.z.c.J.m.P.6.E./.@X+X/.+X+X+XL.!.J. XJ.S./.=XS.oXq.c.Q.8.Q.",
").2.U.W.R.^.h.k.l.L.,.%.x.E x.S.S.L.J.8.T.E.G.<.S.^.6.M.XXW.OXL."
};
