/* XPM */
static char *bGdfZmxvb3I_[] = {
/* columns rows colors chars-per-pixel */
"32 32 174 2 ",
"   c #76956B",
".  c #78976E",
"X  c #76996D",
"o  c #778F77",
"O  c #769373",
"+  c #7A9574",
"@  c #7B9974",
"#  c #76927B",
"$  c #7A947D",
"%  c #7C997B",
"&  c #809D7E",
"*  c #778D80",
"=  c #7A8D83",
"-  c #7A8D8B",
";  c #769282",
":  c #7C9583",
">  c #7B9983",
",  c #7C958A",
"<  c #7A9889",
"1  c #819E83",
"2  c #829D8B",
"3  c #809694",
"4  c #849C92",
"5  c #84A185",
"6  c #8DAB85",
"7  c #85A38C",
"8  c #89A58C",
"9  c #8CAB8B",
"0  c #91AE8D",
"q  c #8FB38B",
"w  c #92B984",
"e  c #91B48B",
"r  c #94BA8C",
"t  c #89A593",
"y  c #8EAB93",
"u  c #8FAA99",
"i  c #91AD94",
"p  c #9FAD96",
"a  c #91A69F",
"s  c #92AE9B",
"d  c #8EB090",
"f  c #92B395",
"g  c #98B694",
"h  c #95BA93",
"j  c #99BA95",
"k  c #93B19B",
"l  c #99B19D",
"z  c #96B99A",
"x  c #98BA9A",
"c  c #A0AC96",
"v  c #A8AC9B",
"b  c #AAB29D",
"n  c #A4B99A",
"m  c #94ACA3",
"M  c #99AFA2",
"N  c #95A6AA",
"B  c #96ACAA",
"V  c #99AEAC",
"C  c #94B2A2",
"Z  c #99B2A3",
"A  c #97B9A1",
"S  c #99B9A2",
"D  c #95B3A9",
"F  c #99B4AA",
"G  c #97B9A8",
"H  c #99BAAA",
"J  c #96AEB0",
"K  c #9AB4B2",
"L  c #9CBAB3",
"P  c #9DB6BA",
"I  c #9EBABB",
"U  c #A1ADA1",
"Y  c #A2B4A4",
"T  c #ADB5A3",
"R  c #A3BAA4",
"E  c #A1BCAB",
"W  c #B2B5A2",
"Q  c #B2B5AC",
"!  c #B8B4A8",
"~  c #BBBBAC",
"^  c #A1BCB3",
"/  c #95C18C",
"(  c #9AC294",
")  c #9BC19C",
"_  c #A1C89C",
"`  c #9DC2A2",
"'  c #9EC1AA",
"]  c #A1C4A3",
"[  c #A3CCA3",
"{  c #A2C3AB",
"}  c #A8CBAB",
"|  c #A9D0A4",
" . c #AAD2AA",
".. c #A2C2B3",
"X. c #ABCCB4",
"o. c #A5C1BC",
"O. c #ACD0B6",
"+. c #B8DDBB",
"@. c #B4E6A9",
"#. c #BAEEA9",
"$. c #B7E5B1",
"%. c #B9E5B3",
"&. c #BCEEB2",
"*. c #BAE5BC",
"=. c #BEEDBB",
"-. c #BEF1B9",
";. c #C2EDBD",
":. c #C4F4BE",
">. c #BBDFC3",
",. c #BBDCC5",
"<. c #BCDACE",
"1. c #BBDBD0",
"2. c #BFDCD8",
"3. c #B9E2C2",
"4. c #BDE0C2",
"5. c #BBE2C5",
"6. c #B9E2C4",
"7. c #BAE1C2",
"8. c #BEEBC0",
"9. c #BEEBC2",
"0. c #BFECC1",
"q. c #BDEBC6",
"w. c #BFEDC5",
"e. c #BFECC4",
"r. c #BAE1CF",
"t. c #BBE2CC",
"y. c #BFEACD",
"u. c #B9E3D7",
"i. c #BCE3D0",
"p. c #B9E3D9",
"a. c #C0E1C6",
"s. c #C1EBC3",
"d. c #C0EFC3",
"f. c #C3EEC3",
"g. c #C1EBC5",
"h. c #C2EAC7",
"j. c #C0EDC4",
"k. c #C3ECC4",
"l. c #C1ECC3",
"z. c #C2E2CD",
"x. c #C1E3CC",
"c. c #C2EBCB",
"v. c #C0ECCA",
"b. c #C2EBCD",
"n. c #C3EACD",
"m. c #C2EACF",
"M. c #C1E9CD",
"N. c #C1ECCE",
"B. c #C1EBCC",
"V. c #C4F3C4",
"C. c #C8F6CF",
"Z. c #C9F6CF",
"A. c #C3EAD5",
"S. c #C0EAD6",
"D. c #C4EBD6",
"F. c #C1EDD6",
"G. c #C2ECD4",
"H. c #C5ECD7",
"J. c #C3EBD6",
"K. c #CDEED1",
"L. c #C4E5DA",
"P. c #C4E6D8",
"I. c #C5EAD8",
"U. c #C3EDD9",
"Y. c #C3ECD9",
"T. c #C9F5D3",
"R. c #CAF0D9",
"E. c #C9F4D8",
"W. c #C8F3DF",
"Q. c #C9F4D9",
"!. c #C3E6E2",
"~. c #C5EDE2",
"^. c #C8ECE2",
"/. c #CCF2E7",
/* pixels */
": $ % $ & , % : : - ; < > # % 5 # ; , , , , : @ #   % ; # # @ o ",
"O O X . @ # @ @ % ; , : < $ X $ : % , = , = #   #   # + @ + . O ",
"+ : ;.;.d.v.f.d.n.S.p.F.F.n.#.d.S.A.!.L.L.n.8.&.=.$.5.>.=.=.X O ",
"O % *.$.;.h.=.q.d.r.u.F.H.N.=.H.A./.^.I.R.S.n.=.g.%.5.3.=.*.+ O ",
"$ , w.n.z A z g l D B H G L A H H L ^ G H G G z h f M e #.&.X % ",
", > v.n.z S h x F k m F G L l H H H L A ) S z x S A z F =.=.% : ",
"o : v.d.z A l S F B a F F G x H H L K S H S k A L Z x A &.*.+ # ",
"# : E.Z.S H M G C C D H G L S G H I L H x C D G A f s f %.*.$ : ",
": , W.n.` H F G Z m s H H E l H F I P K S F G A H k M x *.=.= > ",
"1 : U.v.` G F F Z C m ..G { R Z F I V K B F K F H A H F z.n.2 , ",
": , v.h.) z s l s u a ..k h r h q H m F F k F F H z G F 5.w.% $ ",
"2 , ~.E.' G H F Z s c o.S ) h z f L N Z m C C B C l x D 2.4.> $ ",
"$ $ v.=.) G x z f y T ' k z h x k ^ B B V Z M s s f x l ,.5.; = ",
"$ O =.y.h x x A z t W o.D S A H s I V V H k s y e e x s +.*.# * ",
": , y.w.` L H z f t b { k z h C y ^ N K H m k i 0 0 ( k ,.3.: # ",
"$ $ 8.V.` H G A A t v E d R z Z y X.V ^ F S S s f f ] C 5.g.= o ",
", & y.V.A H G e e 5 p j i M h k 8 } B L ^ z S f z y ` S w.=.@ : ",
"2 , S.E.H L D z e 9 f x a G F k 8 X.m H L z j k z t ] A r.N.: ; ",
"3 , I.E.{ P K A z f z ..k L Z C 8 O.u ' L A z f z d R S h.h.> , ",
"2 5 A.C.A H G A A y ( ) k F f s 5  .d ` A z f d z 9 T j -.s.% + ",
"2 < H.v.A F F C z y ) ` k S i f 5 [ d G ) z k k z z ~ h :.d.$ , ",
"2 , I.x.z D C z S d ( x r S m l 2  .k G ) h k C x g ~ f #.=.5 % ",
"5 : r.v.z C H S A f ) z k z k Z 5 | e C ( r k C S l ~ f V.:.% % ",
"5 : 4.=.j F z x A k A z s S f C 6 ` ( z / r k z j R ! e =.#.@ > ",
"4 : *.a.x F m h A h ` { A A l D y _ h z ( r f h z R ~ e ;.=.$ > ",
"2 % *.*.R A S k C z H ' H z F A f ` e h ( r e s z n Q i 3.=.> < ",
"% % $.$.w k h k q h z ` z h l z d j z z h r f f z R v i =.=.> 7 ",
"@ + %.@.r z j i f f z z z q j z e h h h h r C z C l Z l w.w., 2 ",
"# : y.*.d.A.S.4.i.y.n.h.y.%.=.n.*.=.w.*.8.d.z.s.v.y.P.<.n.C.< , ",
"% : d.*.w.Z.I.a.+.S.S.N.x.*.=.d.*.y.y.t.r.;.t.;.y.w.<.1.3.=.> < ",
"@ % % $ + 1 , % : 2 , < , $ $ % $ < , ; % + , @ : # - = , % : : ",
"> 1 7 ; @ & 2 % > : > % , o > : @ & > # : @ + @ = # = - # @ , % "
};
