/* XPM */
static char *bW9uc3Rlcl8y[] = {
/* columns rows colors chars-per-pixel */
"32 32 184 2 ",
"   c #11110E",
".  c #111112",
"X  c #7E0101",
"o  c #4C6A78",
"O  c #526F7A",
"+  c #586F78",
"@  c #4E707C",
"#  c #5A7177",
"$  c #55737D",
"%  c #5B757B",
"&  c #5A7677",
"*  c #810001",
"=  c #FF3F3F",
"-  c #FE413E",
";  c #FF3F41",
":  c #FE4141",
">  c #FF7F7F",
",  c #FE807E",
"<  c #536F85",
"1  c #4E7284",
"2  c #567583",
"3  c #5D7783",
"4  c #5D7B86",
"5  c #56768A",
"6  c #56788B",
"7  c #5C7C8D",
"8  c #597889",
"9  c #5F7990",
"0  c #637B85",
"q  c #657D8B",
"w  c #6D7F8B",
"e  c #697F95",
"r  c #FF7F82",
"t  c #5F848D",
"y  c #64828C",
"u  c #6A838D",
"i  c #638292",
"p  c #6B8592",
"a  c #6C8A94",
"s  c #62879A",
"d  c #63899A",
"f  c #6A8C9B",
"g  c #638992",
"h  c #728695",
"j  c #738B96",
"k  c #7A8B96",
"l  c #748D99",
"z  c #7A8D9A",
"x  c #718699",
"c  c #6C919C",
"v  c #749195",
"b  c #73939C",
"n  c #7C929C",
"m  c #73989F",
"M  c #7E9A9E",
"N  c #618BA2",
"B  c #6A8DA2",
"V  c #6591A4",
"C  c #6B91A3",
"Z  c #6F9AA7",
"A  c #6C93AB",
"S  c #6A96A9",
"D  c #7294A2",
"F  c #7E94A2",
"G  c #7498A4",
"H  c #7296AB",
"J  c #739AAA",
"K  c #7B9BAC",
"L  c #7A97A8",
"P  c #759BB2",
"I  c #7C9CB2",
"U  c #778DA4",
"Y  c #7CA1AB",
"T  c #75A2B4",
"R  c #7DA1B3",
"E  c #7FA3BA",
"W  c #7FADBC",
"Q  c #7CADC3",
"!  c #79B1CA",
"~  c #82959E",
"^  c #8193A1",
"/  c #859BA3",
"(  c #8B9BA4",
")  c #839DA9",
"_  c #929FA7",
"`  c #819BB6",
"'  c #83A1AC",
"]  c #95A3AD",
"[  c #83A3B4",
"{  c #8BA4B3",
"}  c #85A9B4",
"|  c #8CAAB4",
" . c #84A4B8",
".. c #85AABA",
"X. c #8CABBB",
"o. c #8DA3BB",
"O. c #92ABB7",
"+. c #94ACBB",
"@. c #9AAEBC",
"#. c #98A4B1",
"$. c #87B2BA",
"%. c #8CB3BC",
"&. c #94B1BC",
"*. c #FE8081",
"=. c #FEBEBE",
"-. c #FDC0BF",
";. c #8FACC0",
":. c #93AEC1",
">. c #85B4C6",
",. c #86B4CD",
"<. c #85B9CC",
"1. c #88B8CB",
"2. c #89B4C8",
"3. c #94B2C3",
"4. c #9BB4C2",
"5. c #91BAC6",
"6. c #91BACD",
"7. c #9EB9CA",
"8. c #9CB7C8",
"9. c #86BAD6",
"0. c #92BDD6",
"q. c #92BED9",
"w. c #ACAFC2",
"e. c #A2B9C4",
"r. c #A3B8CA",
"t. c #B2BACF",
"y. c #FFBEC1",
"u. c #8DC2CD",
"i. c #92C2CC",
"p. c #8CC2D6",
"a. c #8CC1DA",
"s. c #91C1D5",
"d. c #91C1D9",
"f. c #9DC6DB",
"g. c #9BC9D8",
"h. c #ADC1CB",
"j. c #B2C2CF",
"k. c #A6CADE",
"l. c #A8C8D8",
"z. c #B4C3D1",
"x. c #BAC9D7",
"c. c #BAD3DA",
"v. c #96C4E3",
"b. c #9DCAE2",
"n. c #9BCAE5",
"m. c #A3C5E2",
"M. c #A4CEE3",
"N. c #AACDE4",
"B. c #A8CFEC",
"V. c #BFCEE1",
"C. c #A6D0E4",
"Z. c #ADD2E5",
"A. c #AAD3EB",
"S. c #A4D2E9",
"D. c #B1D3E3",
"F. c #B9D4E6",
"G. c #B1D4EB",
"H. c #B4DAED",
"J. c #BBDAED",
"K. c #B6D5E7",
"L. c #BADCF4",
"P. c #B4DAF4",
"I. c #BDE1F3",
"U. c #BFE1FA",
"Y. c #B5E2F6",
"T. c #C4D2DD",
"R. c #FEC0C0",
"E. c #C3D3E1",
"W. c #C7DBEB",
"Q. c #D2DCE8",
"!. c #C4DCF4",
"~. c #C3DEF9",
"^. c #C3E2F5",
"/. c #C5E5FD",
"(. c #C9E3FE",
"). c #CEEAFE",
"_. c #C6EAF8",
"`. c #D3EEFF",
"'. c #D9EFFD",
"]. c #DCF3FF",
"[. c #D0F0FF",
"{. c #E7F9FD",
"}. c #F1FFFC",
"|. c #FEFFFE",
/* pixels */
"T Q ! a.u.1.f.Z.}.;.P.f.B.,.Q A.Q 1.g.K.I.Z.I.C.D.J.!.|.p.M.L.g.",
",.q.v.b.N.a.d.5.0.f.f.,.Q P.H.m.].9.s.q.G.J.<.5.Z.J.b.f.v.0.Y.L.",
"<.9.7 / p a a 0 4 $ ] q w.z p ( 4 8 3 7 n y / p a ~ 0 0 z x ^.J.",
",.! 8 h F ] j u g % 8 i p e / 7 1 p ^ ] ( l 6 ~ 4 ] _ l e k N.G.",
"n.9.6 p C 7.' [ | I D f E.K I K L 3.| H &.4.:.D | ) e.) 0 k '.0.",
"n.9.p 6 S G j.b b +.@.[ g [ ` a c { 8.A X.K C 3.S / ' O.w q m.v.",
"<.9.7 6 &.a Z c | K I @.8.K D D I L X.C [ N [ Y R m &.O.( u f.M.",
"d.a.7 2 K A O.R &.C  .H P * X * X X * S  .P  .e.E.Y j e.l h W.L.",
"<.^.h 0 N H s i  .K a * * - , , , r - * * o.Q.W.d T.' O.u ^ J.D.",
"W d.h 7 A L H | P s * : *.r R.=.=.y.r *.: * E.c.V.V } L ~ q f.,.",
"..>.$ O E.P I B X.* : *.y.y.=.R.y.-.R.R.r = * z.A 3.X.:.k z !.q.",
"$.} & + A q D y * - *.R.=., r *.r , , =.=.> = * N | P [ y a ^.M.",
";...2 & b c f y * *.y.> *.*.*.*.*., r *., -., X V | K [ h p (.`.",
"p.u.u # M v b * : *.r , , , , *.r , *., > r *.- * V  .R ] e M.I.",
"p.b.y ~ j a c * , *.> *.r , , *.*.*.*.> *.*.r r * r.J C q q b.0.",
"u.p.& y m v | * *.*., , - ; : : - = - : *.*., *.* ..P f ^ ^ 0.a.",
"^.}.4 & ' ' D X *.*.r |.. : - ; = ; : |.  *.> *.* J V a #.@ S./.",
"<.%.n % K ' e.X , *.; . . - : : ; : : .   = *., X C J ) i ~ b.v.",
"_.P.4 p | Y X.X : r :   . : - : - ; ;   . ; *.- * S G ' k p k.f.",
"f.n.u u  .C c T.X *.: : : : ; = - ; - - : : *.* 3.h.K j.~ h B.,.",
"Z.A.x o i s P Q.* ; , - - : : ; - - ; - ; *.- * X.@.%.G w k ..~.",
"v.m.h < 7 s J x.4.X - , *.; - : : ; : *.> = X [ ' [ b &.n ] k.m.",
"].v.o O  .d f ' t.h.* X : , *.> , *.*.: * X S r.| R +.' y k J.9.",
"[...& < y a C P Y | O.R X * * X X X X * [ a B R X.m G [ l p |. .",
"J.| # 2 y y c f [ [ L a y J R X.@.K H ) s s l.G c a ' %.z 0 J.K.",
"^.g.n 3 f P c c c f &. .7.R  .' r.K f K H  .L 3.a Y | [ j 4 f.{.",
"G.0.# y a d p a a [ @.z...R X.[ @.K { I H  .B B } ' { | v h Z.|.",
"b.M.u 0 I +.T.c.:. .[ s ` J Y ..&.F F z.{ H I [ e.4.K ' n ] Z.F.",
"M.Y.q j $ p 2 y 3 z 3 O l F @ 0 3 k q 4 w < 1 e p p n y y ~ ).I.",
"^.>.e $ $ 0 0 & # & $ ~ i 9 j l U ^ l a q e 5 2 5 u ~ M a u Z.5.",
"Q b.f.q.f.N.k.Z.5.F.J.`.).L.)././.C.D.Z.!.N.n.L.}.b.^.q.g.J.6.I.",
"U.<.A.H.G.H.p.s.g.C.2.%.f.Q f.b.b.N.N.6.F.K.m.,.n.P.6.k.^.H.^.Z."
};
