/* XPM */
static char *bW9uc3Rlcl8z[] = {
/* columns rows colors chars-per-pixel */
"32 32 188 2 ",
"   c #10120F",
".  c #0F1410",
"X  c #111112",
"o  c #7E0101",
"O  c #4F6F7C",
"+  c #4C6773",
"@  c #546E79",
"#  c #4B7079",
"$  c #577377",
"%  c #55737C",
"&  c #5A747B",
"*  c #5E787A",
"=  c #587176",
"-  c #810001",
";  c #FF3F3E",
":  c #FE413E",
">  c #FF3F41",
",  c #FF4141",
"<  c #FF7F7E",
"1  c #FE817E",
"2  c #4E6E82",
"3  c #4E7385",
"4  c #557483",
"5  c #5D7683",
"6  c #5C7A85",
"7  c #56768A",
"8  c #56788B",
"9  c #5C7B8C",
"0  c #597789",
"q  c #637B86",
"w  c #647D8C",
"e  c #6C7F8D",
"r  c #697F95",
"t  c #677C94",
"y  c #FF7F81",
"u  c #5F848D",
"i  c #63828C",
"p  c #6B838D",
"a  c #648291",
"s  c #6B8592",
"d  c #628896",
"f  c #6C8A94",
"g  c #62879B",
"h  c #638A9C",
"j  c #6A8C9B",
"k  c #728694",
"l  c #728B95",
"z  c #7A8C96",
"x  c #758C99",
"c  c #7B8D9B",
"v  c #718699",
"b  c #6D919C",
"n  c #749195",
"m  c #73939C",
"M  c #7C929C",
"N  c #73989F",
"B  c #7C9B9E",
"V  c #628CA2",
"C  c #6A8DA2",
"Z  c #768FA3",
"A  c #6591A4",
"S  c #6C91A2",
"D  c #6A93AB",
"F  c #6F99AA",
"G  c #6693AA",
"H  c #7193A2",
"J  c #7D93A2",
"K  c #7298A4",
"L  c #7295AA",
"P  c #7299A9",
"I  c #7B9BAC",
"U  c #7A97A9",
"Y  c #759BB1",
"T  c #7C9DB2",
"R  c #7CA1AC",
"E  c #75A1AC",
"W  c #75A2B4",
"Q  c #7CA1B4",
"!  c #7DA3B9",
"~  c #7FADBC",
"^  c #7CADC3",
"/  c #79B1CA",
"(  c #82959E",
")  c #8193A1",
"_  c #859BA3",
"`  c #8B9BA5",
"'  c #839DAA",
"]  c #889FAD",
"[  c #929FA7",
"{  c #809CB4",
"}  c #83A2AC",
"|  c #87A0A7",
" . c #95A3AD",
".. c #83A4B4",
"X. c #8AA3B2",
"o. c #85AAB5",
"O. c #8CAAB4",
"+. c #84A5B9",
"@. c #83AABA",
"#. c #8CABBB",
"$. c #8AA4BA",
"%. c #99A5B1",
"&. c #94ADBB",
"*. c #95ADBB",
"=. c #8AB0BD",
"-. c #86B1B8",
";. c #94B1BD",
":. c #99B4BF",
">. c #FE8082",
",. c #FFBFBE",
"<. c #FEC0BE",
"1. c #94AFC1",
"2. c #85B4C6",
"3. c #8DB4C3",
"4. c #86B4CD",
"5. c #88B2CA",
"6. c #85B9CC",
"7. c #89B8CA",
"8. c #88B8C6",
"9. c #94B2C3",
"0. c #9BB5C2",
"q. c #91BACC",
"w. c #98B9C8",
"e. c #8EBFD3",
"r. c #84B9D6",
"t. c #92BDD5",
"y. c #91BDD9",
"u. c #ACAFC2",
"i. c #A2B9C4",
"p. c #A2B8C8",
"a. c #B0BECB",
"s. c #FFBEC0",
"d. c #8EC3CB",
"f. c #92C2CE",
"g. c #8EC2D5",
"h. c #8CC1D9",
"j. c #91C1D7",
"k. c #9ACCD7",
"l. c #91C1D9",
"z. c #9DC6DB",
"x. c #9AC7DB",
"c. c #ACC1CD",
"v. c #B3C1CE",
"b. c #A6CADE",
"n. c #ABC7D5",
"m. c #B5C3D2",
"M. c #B9C9D5",
"N. c #BAD3DA",
"B. c #96C4E3",
"V. c #9DCAE2",
"C. c #9CCAE6",
"Z. c #A3C5E2",
"A. c #A5CFE3",
"S. c #AACDE4",
"D. c #A8CFEC",
"F. c #BFCEE1",
"G. c #A6D0E5",
"H. c #ADD2E5",
"J. c #ABD3EB",
"K. c #A5D1EA",
"L. c #B2D5E2",
"P. c #B1D4EB",
"I. c #B4DAED",
"U. c #BBDAED",
"Y. c #BAD4E7",
"T. c #BADBF3",
"R. c #B2D9F3",
"E. c #BDE1F3",
"W. c #BFE1FA",
"Q. c #B5E2F6",
"!. c #C3D3DE",
"~. c #FFC0C0",
"^. c #C3D3E1",
"/. c #C8DAEB",
"(. c #D2DCE5",
"). c #C4DDF4",
"_. c #C3DEF9",
"`. c #C4E1EF",
"'. c #C3E2F6",
"]. c #C4E6FD",
"[. c #CDEAFD",
"{. c #C8E3F8",
"}. c #D5EFFE",
"|. c #D2F0FF",
" X c #DBF3FF",
".X c #E7F9FF",
"XX c #F1FFFC",
"oX c #FEFFFF",
/* pixels */
"W ^ / h.f.7.z.J.XX5.R.z.D.4.^ D.^ 8.z.P.E.H.E.G.L.U.).oXj.A.T.k.",
"4.g.B.V.D.l.j.q.q.z.z.4.^ T.I.Z. Xy.j.y.P.U.8.q.H.I.V.z.B.t.Q.U.",
"6.6.9 ) f f s q 6 %  .w u.c s ` 6 7 5 9 M i _ s f ( w i ) k _.U.",
"4.r.7 s M  .l p f % 6 a s r _ 9 3 f M  .` l 9 ( q | [ z e c S.J.",
"K.r.8 s S w.} ..O.T S j ^.I T T U 9.O.L 1.0.;.H O.' i._ 5 z }.y.",
"B.r.s 8 F N m.m m *.;...d ..{ f j X.w.F $.I A 9.P ' ' O.e w Z.B.",
"6.r.9 0 ;.j H S X.I T 0.0.I H H I I #.S ..V ..R Q N ;.*._ p z.S.",
"l.h.0 4 I L #.R 0.C ..L Y - o - - - - D ..Y +.p.!.E n i.z k ).U.",
"6.'.l q V D h a ..I f - - : >.1 >.>.: o - $.(./.d ^.] O.p M U.P.",
"~ l.k 9 L U L O.Y g - , >.1 ,.,.,.,.>.>., - ^.M.F.A o.I ) e z.2.",
"@.2.& O ^.Y I C #.o : >.s.,.,.s.s.,.,.~.y , - m.D 1.+.9.l x ).y.",
"=.=.$ $ S t S i j - >.~.<.1 >.y >.>.< s.~.>.o p.C #.L ..i l `.G.",
"@.3.% * m b j i - , <.>.>.>.< 1 1 1 >.>.1 ,.: - G #.I ..z s {.|.",
"g.d.i = N n m H - >.< >.1 1 >.y < >.y 1 1 < >.o n.V ..T  .t G.E.",
"h.V.i ` l l j O.o >.y y >.; > , > , : < >.1 < - I p.P H e 9 V.e.",
"6.f.* i N n O.} - 1 >., , > , : > ; > : > >.>.- Y +.Y j J ) y.g.",
"{..X* * } R K ..- >., > : , ; , , , : , , > y - D P S j %.2 K.].",
"/ 3.J * I } p.O.o y , ; oXX , , > : oXX , , >.o T D P ' i M x.C.",
"[.I.6 s O.E #.P - >.: ; X X > : , > X X ; ; >.o d F S X.z s z.V.",
"z.k.s s ..b S !.o , y , X . , ; , ; X   , >., - 3.a.I v.( k D.4.",
"P.I.s + a d Y (.S o >., ; , , : > , : , ; >.- C O.*.-.U e z o._.",
"B.Z.v 4 9 g P M.:.- , y , , , > > : > > >., - } ....m ;.z %.z.Z.",
" Xl.+ % +.g j } a.c.- : y >.> , , , y 1 > o L p.O.Q #.} s c /.r.",
"|.3.% 2 i f S P R O.&.- - , 1 y 1 >.: o o j C Q #.B K o.l p oX! ",
"U.o.= % i i j j ..+.I f i o - o - - - ' g h n.P b f } =.c q U.Y.",
"'.z.c q j T S b x h 0.R w.Q ..] p.I j I L ..U 1.f R O...l 6 z..X",
"J.7.& i f d s f j } 0.m.#.Q #...*.I $.I L ! C C o.R O.O.n k H.oX",
"A.A.s q Q *.!.N.1.+...g { P T @.;.J J M.X.L ..{ i.:.I | m  .H.Y.",
"G.Q.e v @ s 4 i & c * @ Z J # w 4 c w 0 e 4 2 t s r M i i ( }.E.",
"'.2.w % % e q $ * = 5 z w w f x J ( l k w r 0 7 0 p ( B f p L.q.",
"^ V.V.e.z.G.b.H.q.Y.I.|.[.T.[.].[.G.L.H.).S.V.T.XXV.'.j.z.U.q.U.",
"W.6.J.P.I.P.g.g.k.G.q.#.B.^ x.V.V.b.S.t.Y.Y.Z.4.V.R.q.b.'.I.{.G."
};
