/* XPM */
static char *bW9uc3Rlcg__[] = {
/* columns rows colors chars-per-pixel */
"32 32 189 2 ",
"   c #12110F",
".  c #0F1110",
"X  c #111111",
"o  c #7E0101",
"O  c #4B6676",
"+  c #4D6F7B",
"@  c #526F7A",
"#  c #576E76",
"$  c #4D727B",
"%  c #5B7277",
"&  c #56737D",
"*  c #5B757B",
"=  c #5B7677",
"-  c #810001",
";  c #FF3F3E",
":  c #FE413F",
">  c #FF3F40",
",  c #FE4141",
"<  c #FF7F7E",
"1  c #FE817F",
"2  c #4F6B81",
"3  c #526F81",
"4  c #4E7184",
"5  c #567483",
"6  c #5C7783",
"7  c #5D7B86",
"8  c #56768A",
"9  c #56788B",
"0  c #5C7B8C",
"q  c #5A758A",
"w  c #5F7990",
"e  c #637C85",
"r  c #657D8C",
"t  c #6A7E8C",
"y  c #6B7F95",
"u  c #647F92",
"i  c #FE7F81",
"p  c #5E8595",
"a  c #63838C",
"s  c #6B838D",
"d  c #648393",
"f  c #6B8592",
"g  c #648893",
"h  c #6C8A94",
"j  c #62879A",
"k  c #6A8B9B",
"l  c #628B9B",
"z  c #718694",
"x  c #748C96",
"c  c #7B8B96",
"v  c #748D99",
"b  c #7B8D9B",
"n  c #718699",
"m  c #6C919C",
"M  c #749294",
"N  c #72939C",
"B  c #7B929C",
"V  c #73989F",
"C  c #7E969B",
"Z  c #5B8BA2",
"A  c #628BA3",
"S  c #6A8DA0",
"D  c #6B91A1",
"F  c #6C94AB",
"G  c #6794A9",
"H  c #7294A2",
"J  c #7D92A1",
"K  c #7199A6",
"L  c #799AA4",
"P  c #7295AA",
"I  c #729AAB",
"U  c #7B9BAC",
"Y  c #7A96AB",
"T  c #759BB1",
"R  c #7C9CB2",
"E  c #7B95B0",
"W  c #778DA4",
"Q  c #7CA1AC",
"!  c #75A1AA",
"~  c #75A2B4",
"^  c #7CA1B3",
"/  c #7EA3B8",
"(  c #7EACBB",
")  c #7CADC3",
"_  c #79B1CA",
"`  c #82959E",
"'  c #85989F",
"]  c #8193A1",
"[  c #839CA5",
"{  c #8B9AA5",
"}  c #849DAC",
"|  c #929FA7",
" . c #819BB6",
".. c #83A1AB",
"X. c #95A3AD",
"o. c #83A4B4",
"O. c #8AA3B4",
"+. c #84AAB5",
"@. c #8BA9B4",
"#. c #84A4B9",
"$. c #86A8BA",
"%. c #8CAABB",
"&. c #8CA5BA",
"*. c #94ADBB",
"=. c #95A9B6",
"-. c #87B2B9",
";. c #8BB0BC",
":. c #8CB9BF",
">. c #95B0BD",
",. c #FE8081",
"<. c #FEBFBE",
"1. c #FDC0BD",
"2. c #82ADC0",
"3. c #90AAC1",
"4. c #8AB1C3",
"5. c #86B5CC",
"6. c #85B9CC",
"7. c #89B8CA",
"8. c #86B2C7",
"9. c #94B1C2",
"0. c #9CB4C2",
"q. c #91BAC6",
"w. c #91BACD",
"e. c #9EB9CA",
"r. c #9AB7C9",
"t. c #86B3D0",
"y. c #8FBFD6",
"u. c #85BADA",
"i. c #82BAD5",
"p. c #92BED7",
"a. c #93BDDB",
"s. c #A2B9C4",
"d. c #A6B7C9",
"f. c #B1BCCE",
"g. c #FEBFC1",
"h. c #8DC3CD",
"j. c #92C2CC",
"k. c #8DC2D5",
"l. c #8CC1DA",
"z. c #92C2D5",
"x. c #93C2DA",
"c. c #9DC6DB",
"v. c #9CC9D8",
"b. c #B1C1CE",
"n. c #A6CADE",
"m. c #ACC9D7",
"M. c #B4C3D2",
"N. c #B9C8D7",
"B. c #BAD3DA",
"V. c #96C4E3",
"C. c #9DCBE1",
"Z. c #9ECCEA",
"A. c #A3C5E3",
"S. c #A4CEE3",
"D. c #AACDE5",
"F. c #A6D0E4",
"G. c #ADD2E5",
"H. c #AAD2EB",
"J. c #A5D1EA",
"K. c #B1D4E3",
"L. c #BAD4E5",
"P. c #B1D4EB",
"I. c #B4D9EC",
"U. c #BADAED",
"Y. c #B6D5E7",
"T. c #BADCF4",
"R. c #B4DAF5",
"E. c #BDE1F2",
"W. c #BEE1F9",
"Q. c #B5E2F6",
"!. c #C5D3DE",
"~. c #FFC0C1",
"^. c #C2D3E1",
"/. c #C3DCEC",
"(. c #CBD8E7",
"). c #C3DDF3",
"_. c #C4DDFB",
"`. c #C3E2F6",
"'. c #C5E5FB",
"]. c #CEEAFE",
"[. c #C8E7FC",
"{. c #D3EEFF",
"}. c #D9EFFD",
"|. c #CFF0FF",
" X c #DAF4FF",
".X c #EEFFFE",
"XX c #E0F2FE",
"oX c #FEFFFF",
"OX c #F1FFFD",
/* pixels */
"~ ) _ l.j.7.C.G.OX8.R.c.H.5.) J.) 7.c.P.W.G.E.F.P.U.).oXk.S.T.v.",
"5.l.V.C.D.l.x.q.w.c.c.5.) T.U.A.}.l.y.p.P.Y.7.q.G.U.C.c.V.p.Q.T.",
"5.6.0 ` f h f e 7 & X.r d.c z { 7 q 7 0 ] a ' f s ` e e b z ).U.",
"5.u.8 f J X.x s h 5 9 u t y ' q 4 f ] X.[ M 0 C 7 X.X.x y b D.P.",
"Z.i.9 h D e...o.@.U H k ^.U R R U >.@.P 9.0.9.H @...0.} e c }.p.",
"c.u.f 9 F K b.N N >.*.o.g o.R z k O.r.F &.U D 9.P [ ..@.t r A.V.",
"i.u.0 9 >.h V D O.U R 9.r.U H H R U %.S +.A o.^ ^ V *.=.{ t c.S.",
"z.z.9 5 U P %.^ 0.D #.P I 0.&.(.p k 0.G o.I #.s.^.Q M s.c x /.T.",
"6.E.x e A F l d o.U h p U - - - - - o 3.Z &.(.(.l !...=.s B U.K.",
"$.z.z 0 P E P @.I j a - - , 1 ,.1 1 ; - - f.^.B.L.A #.U ] r c.7.",
"$.8.& 3 ^.T R S 3.#.o : < ,.<.<.~.<.,.i > o M.M.F 9.$.9.v x ).a.",
"-.-.& # D d S a k - , 1 1.1.g.<.<.g.g.g.,.> o 0.k @.I o.a x `.F.",
"4.%.6 = N D k a o ; 1 g.g.1 ,.i 1 1 ,.1.<.1 > o G @.R o.x d [.{.",
"k.h.a % N M N o ; ,.<.i < i ,.1 1 1 1 ,.,.~.i , - A o.R X.y F.E.",
"l.C.a { x x m - ,.i < 1 ,.,.,.,.1 ,.i ,.,.,.,.,.- d.K D r e C.a.",
"k.h.= r N M o , ,.1 ,.< ,.,.,.1 ,.< ,.,.i ,.i ,.> - T k ] ] p.l.",
"`..X* = ..Q - 1 1 1 ,.oXX > , , > : > oX. i 1 ,.1 - D S =.3 J.'.",
"6.q.] = U ..- 1 ,.< , X . ; : , , : : . X , 1 i i o I [ r ] c.Z.",
"`.R.r f @.! o ,.< > :   X , : > , > ; X X : : ,.i - N } x f c.c.",
"c.c.a f o.P o , i : , , > , , : , , , , , , : ,., - U b.' z H.5.",
"P.P.f O d p R o , ,.; , : , > : , , : : , , ,., o *.>.L t b +.'.",
"V.C.n 5 0 j P N.- , ,.,., ; > , : > , ; 1 ,., - o.o.N >.c X.n.A.",
" Xx.O & o.j h ..f.- - : 1 i ,.1 1 ,.i 1 : - - e.@.R ;...s b U.u.",
"|.;.& 2 d h D T Q @.*.o - - o - o - - - - k D R @.V H @.x s oX/ ",
"U.+.# & a a k k o.o.U h a P ^ %.*.U P [ j Z b.P m h ..%.c a U.L.",
"E.n.B 6 k R D m m k >.o.r.o.o...d.R v U P #.Y 9.h Q @.+.x 7 n. X",
"P.p.% a h k h h h ..>.M.$.^ %.o.*.U O.} P / S S $...@.@.m x K.oX",
"C.F.s e R =.!.B.9.#.@.j  .I ~ $.*.L L M.O.P / o.s.0.U ..B X.m.L.",
"D.Q.a n & d 5 a 6 b 6 @ b ] $ 0 6 c r q t 5 2 u f y B a a ` {.E.",
"`.8.t * & e e = % = & b d q x n W ` v f e y q 8 8 f ' C h s G.q.",
") C.V.p.x.D.n.G.q.L.T.{.].T.].[.[.F.K.K.).D.C.T.OXC.'.p.v.T.q.E.",
"W.6.H.I.I.I.k.z.v.F.4.-.c.) c.C.S.F.D.w.Y.Y.A.5.C.R.q.n.`.I.`.D."
};
