/* XPM */
static char *b3Blbl9jaGVzdA__[] = {
/* columns rows colors chars-per-pixel */
"32 32 170 2 ",
"   c #1E1A16",
".  c #1E1A19",
"X  c #211715",
"o  c #211A16",
"O  c #201718",
"+  c #201B18",
"@  c #1F2322",
"#  c #222222",
"$  c #31322F",
"%  c #323232",
"&  c #6B2A07",
"*  c #6C2A0A",
"=  c #474746",
"-  c #484647",
";  c #474844",
":  c #484945",
">  c #474749",
",  c #484848",
"<  c #4B6572",
"1  c #4C6A75",
"2  c #566D75",
"3  c #5B6F78",
"4  c #4E707A",
"5  c #587276",
"6  c #547279",
"7  c #5A757B",
"8  c #5C787A",
"9  c #A65325",
"0  c #A95325",
"q  c #A65229",
"w  c #AA522A",
"e  c #E5932F",
"r  c #E69434",
"t  c #E89434",
"y  c #E69539",
"u  c #FCDA64",
"i  c #FDD969",
"p  c #4F6B80",
"a  c #547383",
"s  c #5D7582",
"d  c #577887",
"f  c #5C7A86",
"g  c #52778B",
"h  c #587789",
"j  c #5C7A8B",
"k  c #637A86",
"l  c #687C87",
"z  c #667D8D",
"x  c #6C7F8D",
"c  c #667F93",
"v  c #64838D",
"b  c #6A838C",
"n  c #678695",
"m  c #6B8493",
"M  c #6E8994",
"N  c #718694",
"B  c #7A8797",
"V  c #748B96",
"C  c #7A8B95",
"Z  c #738E9B",
"A  c #7C8E99",
"S  c #74929B",
"D  c #7C919C",
"F  c #7D93A0",
"G  c #73A3B9",
"H  c #7AA5B8",
"J  c #7EAEBC",
"K  c #7CACC3",
"L  c #79B1CC",
"P  c #80979D",
"I  c #8294A1",
"U  c #8D97A3",
"Y  c #8D9AA3",
"T  c #96A3AD",
"R  c #98A5AE",
"E  c #86AEB6",
"W  c #83AEBC",
"Q  c #88ADBF",
"!  c #99A7B2",
"~  c #87B2BB",
"^  c #8AB1BC",
"/  c #8BAEC1",
"(  c #85B4C4",
")  c #8EB6C2",
"_  c #8CB9C6",
"`  c #86B3CB",
"'  c #89B4CB",
"]  c #85B9CD",
"[  c #8BB9CA",
"{  c #90B5C7",
"}  c #91BBC5",
"|  c #91BACD",
" . c #86B3D1",
".. c #86B9D5",
"X. c #81BBDA",
"o. c #8CBDD9",
"O. c #90BCD5",
"+. c #92BDD9",
"@. c #8EC3CB",
"#. c #91C1CC",
"$. c #8DC2D5",
"%. c #8CC2DA",
"&. c #91C0D4",
"*. c #9CC3D5",
"=. c #9ACDD4",
"-. c #93C2DA",
";. c #9CC6DB",
":. c #9CC9DE",
">. c #A3C7DD",
",. c #A7CCDE",
"<. c #AACFDE",
"1. c #97C3E3",
"2. c #9EC6E1",
"3. c #95CCE0",
"4. c #9CCAE2",
"5. c #A3C5E3",
"6. c #A1CCE2",
"7. c #ABCCE3",
"8. c #A0CFED",
"9. c #A9CDE8",
"0. c #B0CFE4",
"q. c #A4D1E5",
"w. c #ACD3E6",
"e. c #A6D3E8",
"r. c #ACD2EB",
"t. c #AED8E8",
"y. c #B1D4E5",
"u. c #B9D3E6",
"i. c #B2D9E0",
"p. c #B1D3EB",
"a. c #B9D6E9",
"s. c #B4DAED",
"d. c #BADAED",
"f. c #B1D6F0",
"g. c #B3DAF3",
"h. c #BBDBF1",
"j. c #BCDFF2",
"k. c #BCDDF3",
"l. c #BCDBF8",
"z. c #B7E1F7",
"x. c #B3E1F1",
"c. c #BFE0F1",
"v. c #BEE1F6",
"b. c #BDE0F4",
"n. c #C6DBEE",
"m. c #C1DAEE",
"M. c #C4DEF2",
"N. c #C4DFF4",
"B. c #C4DBF3",
"V. c #C3DEF9",
"C. c #C3E0F0",
"Z. c #C2E3F7",
"A. c #CBE8F6",
"S. c #C7E3F9",
"D. c #C3E5FC",
"F. c #C8E6FE",
"G. c #CFECFC",
"H. c #D2E7FF",
"J. c #D2ECFD",
"K. c #DCEDFF",
"L. c #CFF0FF",
"P. c #D4F0FE",
"I. c #DBF1FF",
"U. c #D9F7FF",
"Y. c #E0F2FE",
"T. c #ECFEFE",
"R. c #F0FFFC",
"E. c #F3FEFF",
"W. c white",
"Q. c #FFFEFE",
/* pixels */
"G K L %.#.] *.w.T.( g.;.r.` J 9.L ] *.p.v.w.b.q.y.d.n.W.$.6.l.=.",
"` +.1.6.9.-.-.} O.;.;.` K h.h.5.K.%.$.-.t.a.[ } r.s.4.4.1.+.z.h.",
"] ] j P                     . .   o   o   .     o       A N N.h.",
" .X.d m   9 r t r r r r w   r u u t o 9 r r t y r t 0   x A 7.r.",
"4...h m   t u u u u i u u t o 9 9   r u u u u u u u r o j B K.-.",
"4.X.n g                           o X         +       o x k 5.-.",
"..o.j j   &   . # # # #   # # # # # # . # # # @     *   U b ;.9.",
"+.%.g a   * &   # # # # + # @ # # # #   @ # # # o & &   Z N B.b.",
"] M.N k + 9 * + # # # # . # # @ # # # . # # # #   & 9   b A h.y.",
"J &.M j   9 0 + # # % $ . % % % % % % . % % # # . 9 0 . I z ;.] ",
"W ( 7 4   * 9   % $ $ $   % $ % % % $ . $ $ % $ . 9 * + Z V B.+.",
"~ ~ 6 3   + +   +     o   o +       o     +       +     v Z C.7.",
"/ / a 8   9 9 + o     +                 o         9 9   N b S.P.",
"$.@.n 2   9 9   o + o +           o     + .   o . 9 9   T c q.v.",
"%.3.b Y   9 t             +   o +       X .       y 0   b f 4.+.",
"] #.8 l   e r         +   o         o   X         t t . P I +.%.",
"Z.T.s 8   r r   o     .                 +     + o r t   ! 4 e.D.",
"( ) D 8 + r u     .   o     o o   o   o o   .   . u r + n D 5.1.",
"A.f.k M + u u + r u u u u u u u u u u i i u u r . u u   V n ;.4.",
":.4.v m   r t . q t r r e y t r t t y e r r r 9   r e   P N p.` ",
"r.p.m < . 0 9   + o   + +   +         + +   + .   9 q o x C E V.",
"1.5.V a   0 9   % % % $ % % % % $ % % % $ % % %   q 9 o A R ;.5.",
"U.2.1 4 . 9 9 o % ; , % ; ; = > = = ; ; % , = % + 9 9 . b A m.o.",
"G.Q 6 a o q 9 . , ; , % , > - > > = = > % , ; =   9 9 O V b W.H ",
"a.E 5 a + 0 * . - - > % ; > - > > > ; = % - = -   & 0   A k j.a.",
"Z.;.D s o * & . % % % % % $ % $ % % % % % % % % o & *   N k ;.I.",
"p.| 5 v   * * o   + + . + +   o o   + + . . . . . * * . S N i.W.",
"4.9.b k   & & + * 9 9 r r r r t r t r t t 9 9 & . * &   S R <.a.",
"7.g.n N   & & + * * 9 9 9 r r r t r r 9 9 0 & *   * * o v I G.c.",
"v.( c 8 .   . .       + .           . . .     X         M b w.} ",
"K 4.;.o.*.7.>.t.} u.h.J.G.h.H.F.F.q.i.7.V.7.3.j.E.6.Z.&.*.d.| j.",
"v.] r.s.p.s.%.$.=.9._ ^ ;.K 4.4.4.<.9.| u.u.5. .4.g.| ,.Z.s.S.7."
};
