/* XPM */
static char *UGQ_[] = {
/* columns rows colors chars-per-pixel */
"32 32 234 2 ",
"   c #010202",
".  c #0A0708",
"X  c #180703",
"o  c #151819",
"O  c #110F0C",
"+  c #260605",
"@  c #380705",
"#  c #3B1A15",
"$  c #2C1913",
"%  c #3A211A",
"&  c #2E2C16",
"*  c #1E1F21",
"=  c #1C2124",
"-  c #22252E",
";  c #353434",
":  c #2B1F35",
">  c #581A0D",
",  c #5C1810",
"<  c #471611",
"1  c #651810",
"2  c #422A18",
"3  c #5C271D",
"4  c #4B3716",
"5  c #5E3311",
"6  c #41390B",
"7  c #682414",
"8  c #752717",
"9  c #6D3013",
"0  c #4F3128",
"q  c #683C2F",
"w  c #564129",
"e  c #754626",
"r  c #724830",
"t  c #644D14",
"y  c #2D2347",
"u  c #333D49",
"i  c #383160",
"p  c #443B40",
"a  c #423A6D",
"s  c #374049",
"d  c #3C4155",
"f  c #59565B",
"g  c #5E5043",
"h  c #6D5443",
"j  c #455863",
"k  c #7A4869",
"l  c #4D6A77",
"z  c #586A76",
"x  c #5A747A",
"c  c #567379",
"v  c #52656C",
"b  c #75736F",
"n  c #646A75",
"m  c #68777E",
"M  c #72716E",
"N  c #6D6B5C",
"B  c #852C1D",
"V  c #8A2F23",
"C  c #95352A",
"Z  c #933430",
"A  c #AC3B3C",
"S  c #A33839",
"D  c #83581A",
"F  c #8A471A",
"G  c #964732",
"H  c #935839",
"J  c #925433",
"K  c #B25C3C",
"L  c #AA4139",
"P  c #987827",
"I  c #9A672E",
"U  c #B87536",
"Y  c #A76B2C",
"T  c #C97C38",
"R  c #A22640",
"E  c #945B40",
"W  c #B5514F",
"Q  c #B85858",
"!  c #B64C51",
"~  c #937156",
"^  c #906951",
"/  c #A77455",
"(  c #A36C46",
")  c #C35B5A",
"_  c #C66B4A",
"`  c #C86C6C",
"'  c #C56668",
"]  c #CB716F",
"[  c #D3B733",
"{  c #F8CB3E",
"}  c #868779",
"|  c #A0A96A",
" . c #AB9957",
".. c #CF9154",
"X. c #E1995F",
"o. c #DDAB4C",
"O. c #E0A74E",
"+. c #CA946B",
"@. c #CF8F61",
"#. c #E7A266",
"$. c #EDB27E",
"%. c #EDAB75",
"&. c #59488A",
"*. c #635393",
"=. c #4F6D83",
"-. c #567583",
";. c #5D7682",
":. c #56788B",
">. c #5B7989",
",. c #4F7083",
"<. c #647B85",
"1. c #657D8C",
"2. c #6F7D88",
"3. c #697F94",
"4. c #606382",
"5. c #745FA2",
"6. c #7B68AA",
"7. c #8573BD",
"8. c #5A808D",
"9. c #63838C",
"0. c #6B838D",
"q. c #648392",
"w. c #6B8592",
"e. c #6B8994",
"r. c #6B8C9B",
"t. c #64889A",
"y. c #728795",
"u. c #738B95",
"i. c #7B8D9B",
"p. c #798C97",
"a. c #6D919C",
"s. c #73929C",
"d. c #7C939D",
"f. c #75959A",
"g. c #7D8383",
"h. c #688DA2",
"j. c #6C91A2",
"k. c #6E99A9",
"l. c #6792A9",
"z. c #7294A2",
"x. c #7199A9",
"c. c #7B9BAC",
"v. c #7895A6",
"b. c #7B9CB2",
"n. c #759BB1",
"m. c #7BA1AB",
"M. c #7DA1B3",
"N. c #79A7B9",
"B. c #7CACC3",
"V. c #79B1CA",
"C. c #888686",
"Z. c #82959E",
"A. c #92928B",
"S. c #B3AA8D",
"D. c #859AA7",
"F. c #8C9EAC",
"G. c #83A1AC",
"H. c #88A0AA",
"J. c #98A5AD",
"K. c #83A4B3",
"L. c #84AAB5",
"P. c #8CA9B4",
"I. c #8DABBB",
"U. c #85A8BA",
"Y. c #94AAB7",
"T. c #8AB1BB",
"R. c #94B1BE",
"E. c #BABEB6",
"W. c #AAAFAB",
"Q. c #B29F90",
"!. c #CCA481",
"~. c #F0B887",
"^. c #D7BAA8",
"/. c #E8BFA1",
"(. c #F8C796",
"). c #FFD29B",
"_. c #C5C2BB",
"`. c #FED6AB",
"'. c #FEDAAD",
"]. c #FBD3A4",
"[. c #FFDDB2",
"{. c #FFD8BE",
"}. c #E8D1B5",
"|. c #FEEBBC",
" X c #FEE5B7",
".X c #94AEC1",
"XX c #86B5CB",
"oX c #87B6C9",
"OX c #9EB4C2",
"+X c #91BACC",
"@X c #97B5C6",
"#X c #87B9D5",
"$X c #92BED7",
"%X c #91BDD9",
"&X c #8EAAC0",
"*X c #A2B9C7",
"=X c #92C2CE",
"-X c #8DC2D4",
";X c #8CC1D9",
":X c #9CC6DB",
">X c #96C5D7",
",X c #8EC3CB",
"<X c #A7C9DA",
"1X c #B6C6D4",
"2X c #B3C7D1",
"3X c #9CCAE2",
"4X c #98C7E4",
"5X c #A5CFE3",
"6X c #AACDE4",
"7X c #A2C5E2",
"8X c #B7CCE2",
"9X c #A7D1E5",
"0X c #ADD2E5",
"qX c #ABD3EA",
"wX c #B1D4EB",
"eX c #BBDAED",
"rX c #B5D5E8",
"tX c #B6DAF4",
"yX c #BDE1F3",
"uX c #BAE1F8",
"iX c #D3D5D9",
"pX c #C6CBCD",
"aX c #FAEBC0",
"sX c #C4D7E7",
"dX c #C4DDF5",
"fX c #C2E2F5",
"gX c #C8E7FB",
"hX c #D5EFFE",
"jX c #CFEDFA",
"kX c #E9FBFE",
"lX c #FCFCFE",
"zX c #F1F6F6",
"xX c #E7EAEA",
"cX c #E9D8C8",
/* pixels */
"N.B.V.;X=XXX:XqXkX&XtX:XqX#XB.qXB.#X:XqXuXqXyX9X0XeXfXlX-X5XtX:X",
"XX$X4X3X6X;X>X+X+X:X:Xv.b E ^ / / E J D.<XrXoX+X0XeX:X:X4X$XuXeX",
"XX#X>.D.w.e.w.<.>.;.A.E +.].]. X X].(./ ; 9.Z.e.0.Z.2.0.i.y.fXeX",
"XXV.:.e.v.J.u.0.q.;.H $.aXaX|.'.`.[.[.].#.= >.d.9.D.H.p.3.i.6XwX",
"4X#X:.e.j.@XG.K.I.b @.`.|.|.|.[.`.'.`.[.(.H D.s.P.G.OXD.<.p.hX%X",
"3X#Xw.:.k.s.2Xs.s.r %.~.[.'.[.'.'.`.`.].~.@.n R.x.G.G.P.2.1.7X4X",
"#X#X>.:.R.r.z.j.D.N iX^.).'.`.'.'.`.[./._.2XM G.m.f.R.Y.D.2.:X5X",
";X;X:.x c.x.I.M.g.W.zXJ.~.].].`.'.].].!.xXiX} R.sXm.u.*Xp.u.dXeX",
"#XfXe.<.t.l.h.3.p.W.xXA.pXE.(. X'._.W.E.W.lXC.dXt.8XH.Y.0.i.eX0X",
"T.-Xy.>.x.v.x.U.n.$ } / s f } (.(.b f g r C.C.iX8Xl.K.c.D.1.:XoX",
"U.XXx l sXn.c.h.&X  +...z   @.~.%.e   Q.^ +.m *Xk..XU.@Xu.p.dX%X",
"T.T.x x j.1.z.9.a.j e @.}.| ^.}.}.S.| {.H w R.*Xr.I.x.K.9.u.fX9X",
"U.oXx x f.j.r.9.e.c.; H ).cXlXxXlXxX|.%.# i.@Xt.l.U.c.K.p.w.gXjX",
",X,X0.z f.f.s.s.I.f > X r S.lXA._.zX^ 4 < , w.b.2Xl.K.b.J.1.6XuX",
";X4X9.D.u.u.a.P.C.I J S @ X } o o N X 1 ! F q K.c.OXx.z.2.>.3X%X",
"-X,Xx 9.f.f.P.c.q , ..#.K F . y : + K _ #.P 8 < n.U.x.r.v.D.%X;X",
"fXkX;.x G.m.z.D.1 C 9 t [ ) a *.5.k W [ D , A V z k.j.r.Y.=.9XgX",
"oXoXs.m c.G.*X< V A B @ { ! &.6.7.k Z [ + 3 C C p l.x.D.w.d.3X4X",
"jXwX>.e.P.m.P.< W Q B + Y T i &.*.r U D X + , 3 2 n.z.D.p.w.:X4X",
":X3Xw.w.K.a.a.X ) Q Z . 7 9 # i : > 5 1 + m o q # *Xb.2XZ.y.wXoX",
"wXqX3.l q.t.n.. B G 9 8 8 V 7 < , 8 V C 8 o l.s <.R.T.c.1.p.K.dX",
"4X<Xy.-.8.t.x.p.e $.~ > S ) S 7 Z A A L V # P.K.K.G.f.R.Z.J.3X7X",
"hX4Xl l K.t.a.v.w ~ r 8 ) ` ` G W ] W A Z 7 v @XP.M..XH.0.i.sX#X",
"jX&Xc -.9.e.a.m.f.. 9 A ] ` ' 8 ] ' ] W A 9 4.b.I.f.z.K.p.0.lXN.",
"eXT.c -.1.9.r.r.K.m.& G _ ' W X ' ' ` ` K P <.x.a.e.G.T.i.<.eXrX",
"uX:Xd.;.r.n.a.a.a.r.F.& t I U X o.o.o.T Y * y..Xe.m.P.K.u.>.:XkX",
"wX+Xc 9.e.t.e.e.w.K.z   O % & O & 4 4 O . 0.h.j.L.G.P.P.u.u.0XlX",
"5X6X0.<.M.I.iX8X@XK.    $ ; & X 2 4 % X   o M.b.*XOXc.G.d.J.<XeX",
"9XtX3.u.c w.-.9.x d.      . . O 0 0 q     o ,.3.w.w.Z.9.9.Z.jXyX",
"fXoX1.x c 1.;.x x c j .         u 4.u   o 3.:.:.:.0.Z.v.e.0.0X+X",
"B.3X3X;X>X9X<XqX+XrXeXOX2.  . . - - O G.8X8X3XtXkX5XgX-X:XeX+XyX",
"uXXXqXwXrXtX-X-X>X9X@XT.:XB.:X3X3X6X6X#XrXrX7XXX:XtX+X<XfXrXfX0X"
};
