/* XPM */
static char *UGw_[] = {
/* columns rows colors chars-per-pixel */
"32 32 237 2 ",
"   c #010204",
".  c #070B0A",
"X  c #1D1209",
"o  c #0D0D16",
"O  c #0A1319",
"+  c #171012",
"@  c #2C170F",
"#  c #17231A",
"$  c #3E280C",
"%  c #2C2314",
"&  c #141C23",
"*  c #1E272B",
"=  c #272628",
"-  c #343739",
";  c #302B2F",
":  c #2C1A28",
">  c #48170D",
",  c #57190C",
"<  c #581814",
"1  c #4E0B09",
"2  c #631E0C",
"3  c #6A1917",
"4  c #533516",
"5  c #532815",
"6  c #662515",
"7  c #762713",
"8  c #673917",
"9  c #763618",
"0  c #6B220F",
"q  c #640B21",
"w  c #452C26",
"e  c #4E382C",
"r  c #7B2824",
"t  c #733A24",
"y  c #612622",
"u  c #5A4A31",
"i  c #7C592B",
"p  c #7B4E37",
"a  c #7B4C16",
"s  c #333548",
"d  c #463D76",
"f  c #452C4C",
"g  c #39424A",
"h  c #3D4852",
"j  c #3F5058",
"k  c #4F534D",
"l  c #575A57",
"z  c #494D4F",
"x  c #605354",
"c  c #67685B",
"v  c #756855",
"b  c #7C715D",
"n  c #464969",
"m  c #605960",
"M  c #4E6B78",
"N  c #556C78",
"B  c #5A747A",
"V  c #597479",
"C  c #50666A",
"Z  c #6C6E6F",
"A  c #84351E",
"S  c #832826",
"D  c #91352A",
"F  c #9C3632",
"G  c #922A2E",
"H  c #A8393A",
"J  c #8B571C",
"K  c #8F701C",
"L  c #895A2B",
"P  c #955A33",
"I  c #8E4F2E",
"U  c #AD5432",
"Y  c #977221",
"T  c #966430",
"R  c #AB7A29",
"E  c #B06439",
"W  c #B54A4A",
"Q  c #BA5546",
"!  c #B1574D",
"~  c #836356",
"^  c #916E55",
"/  c #A47B5E",
"(  c #BB784E",
")  c #8F7864",
"_  c #C35B5C",
"`  c #C66767",
"'  c #CD6A71",
"]  c #CB7372",
"[  c #D2736D",
"{  c #D27146",
"}  c #7D857A",
"|  c #9C8229",
" . c #A89026",
".. c #BB855A",
"X. c #868D72",
"o. c #BE997C",
"O. c #8F8A52",
"+. c #D2875E",
"@. c #C38A5F",
"#. c #D2A540",
"$. c #D89B66",
"%. c #D39E78",
"&. c #CA946B",
"*. c #E09D66",
"=. c #D2A178",
"-. c #EBAE78",
";. c #534783",
":. c #557483",
">. c #5E7683",
",. c #56788B",
"<. c #5D7B8C",
"1. c #597789",
"2. c #556D81",
"3. c #647B85",
"4. c #657D8C",
"5. c #697B85",
"6. c #6D7D8F",
"7. c #705DA7",
"8. c #5F8997",
"9. c #63828C",
"0. c #6A838D",
"q. c #648291",
"w. c #6B8592",
"e. c #6C8994",
"r. c #6B8B9B",
"t. c #628899",
"y. c #738B95",
"u. c #748D9A",
"i. c #778997",
"p. c #6C919C",
"a. c #74939C",
"s. c #7C929C",
"d. c #769499",
"f. c #758A8F",
"g. c #668CA2",
"h. c #6C91A2",
"j. c #6A93A9",
"k. c #7293A2",
"l. c #7195AA",
"z. c #7199A9",
"x. c #7C9CAD",
"c. c #7896A5",
"v. c #7B9DB2",
"b. c #759BB1",
"n. c #7BA1AB",
"m. c #7BA4B6",
"M. c #7CADC4",
"N. c #79B1CA",
"B. c #97988B",
"V. c #82969E",
"C. c #899699",
"Z. c #95948F",
"A. c #AB998A",
"S. c #A2A59F",
"D. c #869AA6",
"F. c #929FA7",
"G. c #83A1AC",
"H. c #87A0A7",
"J. c #93A4AE",
"K. c #83A4B4",
"L. c #8CA9B4",
"P. c #8CACBB",
"I. c #85A8B8",
"U. c #95AAB7",
"Y. c #8AB0BD",
"T. c #87B2B8",
"R. c #96B1BE",
"E. c #ADB0AD",
"W. c #D9AD84",
"Q. c #C1AC97",
"!. c #EBBB88",
"~. c #C1BCAB",
"^. c #D3BCAE",
"/. c #F3C08F",
"(. c #E7C196",
"). c #FBCC9C",
"_. c #C2C4BF",
"`. c #E9C4A2",
"'. c #F7CFA1",
"]. c #FEDBAE",
"[. c #F9D5A8",
"{. c #FEDCB1",
"}. c #EFDBBA",
"|. c #FFE2B5",
" X c #FDEBBB",
".X c #FFE6B9",
"XX c #87B5CB",
"oX c #87B6C8",
"OX c #91BACC",
"+X c #97B6C6",
"@X c #86BAD5",
"#X c #92BED7",
"$X c #91BDD9",
"%X c #A4B8C6",
"&X c #92C2CE",
"*X c #8CC1D9",
"=X c #8EC2D5",
"-X c #9DC6DB",
";X c #96C6D9",
":X c #8EC3CB",
">X c #A9C2CD",
",X c #B9C4CC",
"<X c #A8C9DA",
"1X c #B6C6D2",
"2X c #B7D2DB",
"3X c #9DCAE1",
"4X c #98C6E4",
"5X c #A4CEE3",
"6X c #A9CDE4",
"7X c #A3C7E3",
"8X c #B8CCE4",
"9X c #ADD3E5",
"0X c #AAD2EB",
"qX c #A6D1E7",
"wX c #B1D4EB",
"eX c #BBDAED",
"rX c #B4D6E9",
"tX c #B6DAF3",
"yX c #BDE1F3",
"uX c #BAE1F8",
"iX c #C7C9C4",
"pX c #C5D3DE",
"aX c #D9D3D7",
"sX c #DDE0D9",
"dX c #C3D6E6",
"fX c #C3DDF5",
"gX c #D2DCE5",
"hX c #C2E1EF",
"jX c #C3E2F6",
"kX c #C7E7FB",
"lX c #D5EFFE",
"zX c #D4F3FF",
"xX c #EAF8FC",
"cX c #FEFFFF",
"vX c #F5F8F7",
"bX c #E8ECEC",
"nX c #EFDAC7",
/* pixels */
"m.M.N.*X:XXX-X9XxXoXtX4X0XXXM.qXN.XX-X9XtXwXfXqX9XeXfXcX=X<XtX;X",
"XX$X4X5X6X*X=XOXOX<X+X~ ^ %.%.W.%.%.+.~ Z.2XoX+X9XeX3X-X4X#XuXyX",
"XX@X<.c.e.e.w.3.3.N ~ $.!. X X{.{.{.{.!.( c V.0.0.C.4.4.s.i.yXeX",
"XXN.,.e.D.J.u.0.w.m ( '.{. X X{.].{.{.{.-.p h d.9.H.F.u.6.i.6XwX",
"0XN.,.w.r.+XG.K.D.^ *.{.]. X X].].].{.'.$.) ; q.L.H.+XD.>.i.lX;X",
"4X@Xw.,.j.k.1Xa.f./ '.{.[.].].[.[.)./.$.Q.iXx C z.D.G.L.6.4.7X4X",
"@X*X<.1.R.e.k.h.C.v '.|.|.].[.[.`.W.^.nXvXbXX.g n.d.R.U.D.5.-X7X",
"*X*X1.:.x.z.P.m.F.k (. X(.[.~._.S.B.iXcXbX_.Z.z dXn.d.%Xi.y.fXyX",
"XXjXe.3.g.l.g.4.c.z ..).-.Z Z A.O.} Z.bXaXE.Z.x 8.dXD.L.0.s.eX9X",
"m.;Xy.<.l.c.l.K.z.n T -./.# # o.*.b ^ B.iXiXm C.8Xg.K.x.D.4.-XoX",
"m.oXB M dXb.x.g.I.5.O.`.=.O.X.}.[.) ) b B.S.z U.j.+XK.+Xu.i.fX$X",
"oXY.V B h.q.h.9.i.C._.cX~.(.[.|.[...e k v k C.+Xh.P.l.K.9.u.hX6X",
"Y.P.B B d.p.r.9.6.S.S.sXbXA.[.).-.P X : - B %Xt.j.P.v.K.i.w.kXlX",
"=X:X9.N a.d.a.a.U.D.l l iXc $.@.P 7 q 1 X B k.v.>Xg.K.v.J.4.5XyX",
"*X;X0.F.e.p.p.L.pXJ.M s m ; u r S U { U , s v.I.x.%Xz.k.6.>.3X#X",
"@X:XB 9.d.d.L.G.J.D.>.n ;.s o 7 E J R L 8 5 5.x.b.I.z.r.c.D.$X*X",
"jXxXB B G.n.k.K.+X5.; 7.7.n : F I Y 1 0 9 8 ; u.j.l.j.t.U.2.qXuX",
"oXOXs.B x.G.%XL.F.Z w n ;.f S Q J  .1 F D 0 @ 5.v.j.b.D.4.V.3X4X",
"kXrX4.w.L.n.P.z.%Xx 8 u ; L E R Y 9 , W W G > z t.z.c.D.i.w.-X3X",
";X3X9.e.K.h.g.pX>.y 1 J 4 J T 9 6 7 1 D [ ! r ; oX%Xx.,XD.w.wXXX",
"wXwXw.M 8.8.v.gXf p 5 1 3 q G F H D , 6 ] ` S ; P.R.T.c.5.i.P.fX",
"3X7Xy.:.<.t.l.1Xl p 9 2 r W ` W H F 0 < ! D 6 w K.K.d.R.s.J.-X7X",
"zX;XM M K.t.h.D.%Xl 2 < S ' ] ` H H 7 3 6 E p s L.v.Y.G.0.s.fX@X",
"zXoXN 2.9.e.h.x.D.Z A @ I ` ` [ W U S 0 u !.T z P.a.c.K.i.0.cXm.",
"eXI.N B 9.9.r.r.K.} L X ! [ ' ` ' H 9 7 4 i % n p.e.G.T.i.9.eXrX",
"uX<Xs.3.r.b.h.p.u.q.b @ Y #.+.+.+.U J 8 9 % % 4.e.n.L.L.u.>.-XxX",
"9X#XV 9.e.r.e.e.w.n.U.: $ | | | R i 4 4 $ X = 9.I.G.L.L.u.w.9XcX",
"3X5X0.3.m.U.pX2X+XK.e.& @ @ % X X       O . * u.%XR.x.G.d.J.2XrX",
"9XtX4.r.N q.:.9.:.e.- % e 4 w % X   O O & & s >.e.q.s.9.9.V.lXyX",
"yXoX4.B B 3.3.B V C * g z ; : X   . . h s 2.1.,.1.0.D.s.f.0.9XOX",
"M.3X3X;X-XqX<X9X+X>Xn * * & O     e.5.<XfX8X;XeXxX5XkX=X-XeXOXeX",
"uXXX0XrXwXwX*X*X-X7X+XP.$XM.-X-X3X9X7XOXrXrX7X@X3XtXOX<XjXrXjXqX"
};
