/* XPM */
static char *UHU_[] = {
/* columns rows colors chars-per-pixel */
"32 32 224 2 ",
"   c #020101",
".  c #0A0A08",
"X  c #15171E",
"o  c #150F0B",
"O  c #370A09",
"+  c #2B1814",
"@  c #2E140D",
"#  c #302716",
"$  c #201D26",
"%  c #1B2529",
"&  c #313231",
"*  c #540D09",
"=  c #49160C",
"-  c #55190B",
";  c #481C17",
":  c #5B1C12",
">  c #440704",
",  c #65170E",
"<  c #661E13",
"1  c #711B1B",
"2  c #55260A",
"3  c #4A2B18",
"4  c #5A3718",
"5  c #513114",
"6  c #692215",
"7  c #752616",
"8  c #733311",
"9  c #461F24",
"0  c #631A23",
"q  c #492B29",
"w  c #533231",
"e  c #6C2827",
"r  c #71342F",
"t  c #3E4438",
"y  c #554B18",
"u  c #774917",
"i  c #75641C",
"p  c #794827",
"a  c #7A4A36",
"s  c #53412B",
"d  c #2A3341",
"f  c #3A3E4A",
"g  c #473E43",
"h  c #3A434B",
"j  c #374855",
"k  c #484C48",
"l  c #4E5649",
"z  c #57554A",
"x  c #4D5754",
"c  c #6F5749",
"v  c #696559",
"b  c #6D705F",
"n  c #525A61",
"m  c #495D6C",
"M  c #53666E",
"N  c #4D6A77",
"B  c #556E77",
"V  c #5B747A",
"C  c #58747A",
"Z  c #4D6066",
"A  c #757566",
"S  c #6F7172",
"D  c #812B16",
"F  c #8D3224",
"G  c #963429",
"H  c #883532",
"J  c #A73A39",
"K  c #A03D26",
"L  c #8B521D",
"P  c #8F5031",
"I  c #B2423C",
"U  c #AF5038",
"Y  c #9A7130",
"T  c #B17335",
"R  c #C27B3D",
"E  c #B03F45",
"W  c #9B4641",
"Q  c #B84C4D",
"!  c #AC7241",
"~  c #B17650",
"^  c #817D6B",
"/  c #827775",
"(  c #8E6A54",
")  c #C45648",
"_  c #C15E58",
"`  c #C67155",
"'  c #CA6869",
"]  c #CD7767",
"[  c #DC7B78",
"{  c #D5726E",
"}  c #7E8476",
"|  c #C38B3E",
" . c #898977",
".. c #BF8C61",
"X. c #B8864B",
"o. c #C38E43",
"O. c #CB8955",
"+. c #D08D6B",
"@. c #C8A57F",
"#. c #EFB17E",
"$. c #557484",
"%. c #56788B",
"&. c #5D7B8B",
"*. c #5C7885",
"=. c #4D6C80",
"-. c #647B86",
";. c #647D8D",
":. c #627683",
">. c #657F92",
",. c #63828C",
"<. c #6B848D",
"1. c #72848E",
"2. c #638292",
"3. c #6B8592",
"4. c #6C8A94",
"5. c #6A8C9B",
"6. c #638899",
"7. c #728493",
"8. c #738C96",
"9. c #758D9A",
"0. c #7A8D9B",
"q. c #788A96",
"w. c #6C919B",
"e. c #73939D",
"r. c #7D929C",
"t. c #769599",
"y. c #5E8BA2",
"u. c #688DA2",
"i. c #6C91A1",
"p. c #6A94A9",
"a. c #7293A3",
"s. c #7C9BAD",
"d. c #7496A9",
"f. c #789BB2",
"g. c #7BA1AA",
"h. c #7BA4B6",
"j. c #7BADC4",
"k. c #79B1CA",
"l. c #999A8B",
"z. c #82969F",
"x. c #88969E",
"c. c #8D9092",
"v. c #A59983",
"b. c #A7A698",
"n. c #869AA6",
"m. c #879DB0",
"M. c #929FA8",
"N. c #83A2AC",
"B. c #8BA4AB",
"V. c #94A3AD",
"C. c #83A4B4",
"Z. c #8CA9B4",
"A. c #8CABBC",
"S. c #87A8B7",
"D. c #95A8B5",
"F. c #89B1BA",
"G. c #95B1BD",
"H. c #AAABA7",
"J. c #BBBCB6",
"K. c #AAAEAF",
"L. c #D4AD8A",
"P. c #EEB88B",
"I. c #C6BEBB",
"U. c #FCC28D",
"Y. c #ECC69C",
"T. c #F8C999",
"R. c #CCC2B7",
"E. c #FDDBAC",
"W. c #FCD6AA",
"Q. c #FFDDB1",
"!. c #FCD6B1",
"~. c #EBCEA2",
"^. c #FFE3B4",
"/. c #FFEAB9",
"(. c #86B9CB",
"). c #88B5C9",
"_. c #91BACD",
"`. c #95B6C6",
"'. c #86B9D6",
"]. c #92BED7",
"[. c #91BDDA",
"{. c #91AEC1",
"}. c #A5BAC8",
"|. c #92C2CE",
" X c #8EC1D5",
".X c #8BC1D9",
"XX c #9CC6DB",
"oX c #97C4D8",
"OX c #8FC4CC",
"+X c #B7C0C8",
"@X c #A8C9DC",
"#X c #B1C8D3",
"$X c #9DCAE2",
"%X c #98C7E3",
"&X c #A4CEE3",
"*X c #AACDE4",
"=X c #A3C5E2",
"-X c #ADD3E5",
";X c #A7D2EA",
":X c #B2D4EB",
">X c #BBDAED",
",X c #B4D5E8",
"<X c #B6DAF4",
"1X c #BBE1F5",
"2X c #CCCCCC",
"3X c #C5C6C6",
"4X c #CECED2",
"5X c #CAD2D8",
"6X c #DCDBDC",
"7X c #D6D5D4",
"8X c #D0CFCA",
"9X c #E5DCD7",
"0X c #FEF1C1",
"qX c #C2D9E9",
"wX c #C3DEF8",
"eX c #DADEE1",
"rX c #C3E3F6",
"tX c #C8E6FB",
"yX c #D5F3FF",
"uX c #CFEBF8",
"iX c #E4E5E5",
"pX c #E9FBFD",
"aX c #FEFEFF",
"sX c #F1FFFD",
/* pixels */
"h.j.k.'.|.).=X-XsX).<XXX;X).j.;Xk.`.XX:XrX-XrX-X-X>XqXaX X&X<XXX",
"(.].%X$X;X.X.X`._.$X].c.c ` +.L.L.@.+.~ & #X(.`.-X>X%X@X%X].1X>X",
"(.'.&.n.3.4.4.-.-.B c.! L.Q.Q.E.E.!.W.Y.O.& 1.<.<.x.-.,.z.3.rX>X",
"(.k.%.3.a.V.8.<.7.V r P.Q.0X0X^.Q.E.Q.Q.W...Z r.,.n.V.8.>.0.*X:X",
"$X'.%.4.a.`.N.C.B.A R W.^././.Q.W.!.E.E.E.U.4 ,.Z.N.`.n.:.c.uX[.",
"%X'.3.%.d.e.#Xe.8./ P.L.U.Q.E.E.E.^.^.E.P.@.( n.d.n.N.Z.;.;.=X%X",
"'.'.&.%.G.4.a.w.n.A 2X6XR.U.Y.E.Y.~.L.@...} } & w.t.G.D.n.<.XX&X",
".X.X%.$.s.d.A.h.B.b.3XiX5X9X8XR.l.b.v.H.+Xb v v +Xg.8.}.q.7.wX>X",
").rX7.-.u.p.u.>.7.S 8X6X7X4X4X7X3XK.I.3XH.A A & *.>Xn.D.3.0.>X,X",
"F. X7.&.d.d.p.Z.;.z J.2X6X2X8X+XiX2X4XK.H.^  .k #Xu.C.s.n.;.oX(.",
"h.).C =.qXd.s.u.f.k l.J.8XeX6X3XiX7X4XJ.^  .k x.u.`.C.`.8.8.wX[.",
"F.A.C C i.2.a.,.u.*.k } l.3X6X7XeX6XJ. . .z S G.u.Z.d.h.<.8.rX&X",
"F.F.*.C t.i.5.,.4.a.w % z } b.6XR.R.K.A w + C.y.p.A.s.C.q.3.tXuX",
" XOX,.M e.t.e.a.V.z 1 1 q # l S x l v s = , r 3.#Xu.C.s.V.>.;X1X",
".X%X,.M.w.4.w.B.K.5 T J J e r q q q 0 1 J L u w 8.`.p.a.;.&.$X].",
" XOXV <.t.t.Z.r.w 6 P T +.{ ` ] ] +.U ) o.Y 8 < m S.f.5.z.z.[..X",
"rXpXV V N.g.a.1.: G 7 u Y ! ! o.o.o.T T L 3 , D q w.u.5.D.=.;X1X",
"(.`.e.V s.N.}.1.e Q J > = - 2 2 2 2 8 u > . = 7 O p.f.n.,.r.$X$X",
"tX>X,.3.Z.g.A.h F { _ 7 O * , * * * , , - o O - ; p.e.N.9.3.XX$X",
"oXXX3.<.C.w.w.+ K ' ' 1 = D G H F F F 8 7 O o r p +Xh.+Xn.4.:X).",
":X,X3.N 2.6.f.k < r r = - G U Q Q ` 7 G D = j c z G.Z.s.>.q.Z.wX",
"%X$X7.$.%.6.d.q.+ U 4 O - E p P W T - Q 7 : n :.<.C.t.G.z.M.$X=X",
"yXoXN N S.6.w.<.# #.+.  F J 7 1 H r W Q G 1 + M.C.m.{.N.<.q.qX'.",
"uX).B %.,.4.w.d.n s 4 @ J J Q ' [ [ [ { Q 7 w 0.A.e.e.C.9.4.aXh.",
">XS.B C ,.2.5.5.n.Z # L P J ~ ' ~ O.O.+._ L @ >.w.4.N.F.r.-.>X,X",
"1X@Xr.*.5.f.w.w.5.6.S # 4 P X.L y i i Y X.y h S.4.g.Z.C.8.*.XXpX",
":X_.C ,.4.6.4.4.3.C.B.h @ # o . @ ; 3 + o % >.u.S.N.Z.Z.8.7.-XaX",
"$X;X<.-.h.D.5X,X`.d.h     $ % o 3 w w 3 . . 6.f.}.G.s.N.r.V.@X>X",
"&X1X;.9.B 3.$.,.V <.      . .   h f f $     j >.4.3.r.,.,.z.yX1X",
"1X).>.V C -.*.V V M &           x d d $ . o m %.%.<.z.z.4.<.-X`.",
"j.&X%X XoX&X@X-X_.,X*Xn   . . . X X X   q.m.oX<XsX$XrX XoX>X_.1X",
"<X(.:X:X:X<X X XoX;X`.A.%Xk.$X$X=X&X*X[.,X,X=X(.%X<X_.@XrX,XrX-X"
};
