/* XPM */
static char *UHI_[] = {
/* columns rows colors chars-per-pixel */
"32 32 231 2 ",
"   c #030203",
".  c #080908",
"X  c #0C141A",
"o  c #121511",
"O  c #24160C",
"+  c #361208",
"@  c #281A17",
"#  c #270D12",
"$  c #31271C",
"%  c #33280F",
"&  c #1D1E25",
"*  c #1C1C34",
"=  c #252D34",
"-  c #363839",
";  c #2B2E32",
":  c #481509",
">  c #58180C",
",  c #511110",
"<  c #611C0C",
"1  c #6D1F15",
"2  c #47261C",
"3  c #542216",
"4  c #563814",
"5  c #4B3412",
"6  c #692816",
"7  c #782518",
"8  c #753917",
"9  c #643613",
"0  c #453538",
"q  c #482C28",
"w  c #792324",
"e  c #7B3727",
"r  c #673422",
"t  c #5F4311",
"y  c #694418",
"u  c #77411F",
"i  c #534A36",
"p  c #6A4933",
"a  c #2F3A42",
"s  c #353F44",
"d  c #3F2B4D",
"f  c #4C3F6D",
"g  c #4A3D51",
"h  c #3C454D",
"j  c #304040",
"k  c #3C4D54",
"l  c #3B4B62",
"z  c #454945",
"x  c #5A5B57",
"c  c #444F58",
"v  c #645551",
"b  c #6D625A",
"n  c #475C65",
"m  c #4A407C",
"M  c #615C60",
"N  c #4E6B77",
"B  c #556D75",
"V  c #5A747B",
"C  c #597579",
"Z  c #586166",
"A  c #6D6F63",
"S  c #767A77",
"D  c #70776F",
"F  c #802B1C",
"G  c #87391A",
"H  c #852B22",
"J  c #88312D",
"K  c #99362D",
"L  c #933731",
"P  c #A73938",
"I  c #955837",
"U  c #845434",
"Y  c #B3503B",
"T  c #966B2E",
"R  c #A36826",
"E  c #A27D25",
"W  c #9F4441",
"Q  c #B44645",
"!  c #B3514D",
"~  c #9A6548",
"^  c #896355",
"/  c #886C51",
"(  c #A9714A",
")  c #B37750",
"_  c #8D7F6C",
"`  c #C55B59",
"'  c #C55E61",
"]  c #C7696B",
"[  c #D2756F",
"{  c #AC8A2E",
"}  c #C58E37",
"|  c #D4A33C",
" . c #97896F",
".. c #AC8A6C",
"X. c #B88452",
"o. c #D8935A",
"O. c #E1A454",
"+. c #E2886D",
"@. c #DEA574",
"#. c #E1A779",
"$. c #FBC57F",
"%. c #594E89",
"&. c #557483",
"*. c #56788B",
"=. c #5D7B8C",
"-. c #5C7887",
";. c #4C6E80",
":. c #637B86",
">. c #647D8C",
",. c #6A7F8E",
"<. c #697F94",
"1. c #836CBA",
"2. c #63828C",
"3. c #6B838D",
"4. c #768388",
"5. c #648291",
"6. c #6B8593",
"7. c #638895",
"8. c #6B8994",
"9. c #6B8C9C",
"0. c #63889B",
"q. c #728B96",
"w. c #758C9A",
"e. c #778997",
"r. c #6C919D",
"t. c #73939C",
"y. c #7C929C",
"u. c #75959A",
"i. c #668CA2",
"p. c #6C91A2",
"a. c #6A94A9",
"s. c #7293A3",
"d. c #7199A9",
"f. c #7B9BAD",
"g. c #7796A6",
"h. c #7B9DB2",
"j. c #759BB1",
"k. c #7BA1AB",
"l. c #7DA1B3",
"z. c #7AA7B9",
"x. c #7CACC4",
"c. c #79B1CA",
"v. c #8B918C",
"b. c #83969E",
"n. c #8D989E",
"m. c #989C97",
"M. c #868F8A",
"N. c #A19690",
"B. c #BCA283",
"V. c #BAA896",
"C. c #A8AA9D",
"Z. c #869AA7",
"A. c #929FA7",
"S. c #83A1AC",
"D. c #87A0A7",
"F. c #95A3AE",
"G. c #83A3B4",
"H. c #8CAAB5",
"J. c #8CACBB",
"K. c #85A8B8",
"L. c #96ABB8",
"P. c #8AB0BD",
"I. c #85B4BA",
"U. c #94B1BD",
"Y. c #BBBCBB",
"T. c #ACAEAC",
"R. c #D4AF89",
"E. c #E4AC81",
"W. c #F7B683",
"Q. c #E3B792",
"!. c #FBCC9C",
"~. c #F6C696",
"^. c #F0C38E",
"/. c #DCC5AB",
"(. c #D3CABF",
"). c #FFDBAD",
"_. c #FBD6A7",
"`. c #FEDCB2",
"'. c #F8D9B5",
"]. c #FFCDA0",
"[. c #FDE4B7",
"{. c #FEE0AE",
"}. c #85B9CC",
"|. c #88B5C9",
" X c #91BACD",
".X c #97B6C5",
"XX c #87BAD5",
"oX c #92BDD5",
"OX c #91BDD9",
"+X c #A5B9C7",
"@X c #92C2CE",
"#X c #8EC2D5",
"$X c #8CC1D9",
"%X c #9DC6DB",
"&X c #96C5D8",
"*X c #8EC3CB",
"=X c #A8CADA",
"-X c #B6C6D3",
";X c #B3C7D1",
":X c #9DCAE1",
">X c #98C6E4",
",X c #A5CFE3",
"<X c #A9CDE5",
"1X c #A3C5E2",
"2X c #ACD3E5",
"3X c #A9D2EA",
"4X c #B1D4EB",
"5X c #BBDAED",
"6X c #B5D6E8",
"7X c #B6DBF4",
"8X c #BFCEE1",
"9X c #BDE1F3",
"0X c #BAE1F8",
"qX c #BFE0EF",
"wX c #CACBC6",
"eX c #C5D3DE",
"rX c #D5D7D4",
"tX c #FEF4C2",
"yX c #C3D6E6",
"uX c #D5DBE3",
"iX c #C4DDF4",
"pX c #C3E2F6",
"aX c #C8E6FA",
"sX c #D5EFFE",
"dX c #D4F3FF",
"fX c #C4E1EF",
"gX c #E2E4E8",
"hX c #E9FBFE",
"jX c #FEFFFF",
"kX c #F4FEFE",
"lX c #F0F0F1",
/* pixels */
"z.x.c.XX@X}.%X4XhX|.7X%X3X|.|.3Xx.|.%X4XaX2XfX3X2X5XiXjX#X,X7X%X",
"|.oX>X:X3X$X$X.X X%X%XK.e.^ ~ ~ ~ ~ ~ ^ L.eX|..X2X5X:X%X>XoX0X5X",
"}.XX=.Z.8.8.6.-.:.V n.b ) ~._._._.{.).@.( b b.3.8.n.:.>.y.e.9X5X",
"}.c.*.6.g.F.q.3.5.N i o._.[.`.).[.tXtX[.!.) M g.-.D.D.y.<.e.<X4X",
">XXX*.6.t..XS.G.Z.h i o.!.[.).{._.[.[.[.{.@.^ S H.S..XZ.:.e.sXoX",
":XXX5.*.d.t.;Xt.c - m.@.@.~._.'.).[.`.).)._.) ^ d.Z.S.H.>.>.1X>X",
"XXXX=.-.U.9.s.p.; x gXgX/.R.^.!.]._._.).`.)._ v k.u.U.L.A.5.=X1X",
"$X$X-.&.f.d.J.l.z _ wXlXjXuXV.V.(./.`.'.[._.^ - yXk.q.+Xe.q.yX9X",
"XXpXq.:.0.a.i.<.- S T.wXlXY.u. .V.u.m.@.{.#.v ,.7.yXZ.J.3.y.5X2X",
"z.&Xq.=.d.f.d.K.s x Y.rXY./ / X.X.= & @.~.( M +X8Xi.G.g.Z.>.%X|.",
"z.|.V N 8Xj.f.9.y.j N.C.A  ...R.'.D i $.#.~ S -Xa..XK..Xq.w.iXOX",
"P.P.C C p.<.p.2.9.B z A b v ..Q.[.{.^.B.rX(.m.L.i.J.d.G.3.q.fX<X",
"P.|.&.C u.r.9.2.3.f.n i - . I W.~.^.V.rXkXwXT.4.a.J.f.G.e.6.pXsX",
"*X X2.C u.u.t.s.L.:.g.o + : 6 ( #.^. .uXM.A m.M.=Xi.G.h.F.5.,X9X",
"$X>X3.n.8.q.r.H.-XU.l : w P K 7 e U i S - n Z.G.g.+Xd.s.,.-.:XOX",
"}.@XC 2.u.u.H.S.L.f.- 9 T | } Q H # * c f g..XG.j.K.j.9.y.Z.OX$X",
"aXhXV V S.k.s.G.J.k 4 9 > > 9 R P $ m 1.%.z A.Z.a.j.a.9.F.N 3XpX",
"}..Xy.V f.S.+XJ.C ; : 7 K , E R K w d %.m d v L.j.a.d.Z.5.Z.:X>X",
"aX4X-.6.H.k.J.d.z # 7 Y Y 1 9 { } Q e ; - r v y.0.g.s.F.e.6.%X:X",
"%X:X3.7.K.r.p.eX; 3 P ' Q > 1 < 8 { E y 9 8 3 0 |.+Xh.+XZ.6.4X|.",
"4X6X6.N 5.0.j.uX+ w ` [ U , F P K w , , , > 6 0 H.U.U.g.,.e.J.iX",
">X%Xq.&.2.0.a.;X: > J ' e > F P ! ' Q w , 8 U p G.G.u.U.e.F.:X1X",
"dX%XN N G.0.r.S.@ r I e < 7 K P ` [ ] J > 1 - ,.H.h.P.S.5.w.yXOX",
"sX|.&.;.2.8.p.k.; p #./ : 7 P Q ] ] ] Y : > v h.J.u.s.H.e.3.jXz.",
"6XK.C V 2.2.9.9.j $ I p > 7 K ` ] ' [ ~ + p _ s.r.8.S.P.y.:.5X6X",
"0X=Xy.-.9.j.p.r.j & % u G G Y [ +.+.O.} 5 r <..X8.k.H.G.8.:.&XhX",
"4X XV 2.8.7.8.8.V z O % 4 y T { { { { 5 $ >.i.p.K.S.H.H.u.e.2XjX",
":X<X3.:.l.L.eX8XU.k   X . . . % % q 2 + & 9.h.h.+X.Xf.D.y.F.=X6X",
",X7X2.w.B 7.&.2.V c . X & X . . @ 3 2 2 @ a ;.<.8.5.y.2.2.b.dX9X",
"9X|.<.V C 2.:.V C B n z = .   . O $ ; c s a *.&.-.6.b.b.3.3.2X.X",
"x.:X:X$X&X<X=X2X X6X5XiXiXf.Z.&   . X & & z >X7XkX:XpX#X%X7X X9X",
"pX}.3X6X4X4X$XoX&X,X.XI.=Xx.:X%X<X<X<XoX6X6X1X}.>X7X X=XpX4XaX,X"
};
