/* XPM */
static char *cmVk[] = {
/* columns rows colors chars-per-pixel */
"32 32 174 2 ",
"   c #040100",
".  c #0B0000",
"X  c #140001",
"o  c #1B0001",
"O  c #240000",
"+  c #2B0101",
"@  c #340101",
"#  c #3C0101",
"$  c #330B00",
"%  c #3D0B00",
"&  c #430201",
"*  c #4C0201",
"=  c #450D01",
"-  c #4C0D01",
";  c #550D00",
":  c #451300",
">  c #4E1602",
",  c #4D1B02",
"<  c #521F02",
"1  c #741E03",
"2  c #4E2301",
"3  c #542401",
"4  c #5C2501",
"5  c #542A02",
"6  c #5A2A02",
"7  c #553201",
"8  c #5B3202",
"9  c #5C3A06",
"0  c #5E360A",
"q  c #5D3C09",
"w  c #642502",
"e  c #6B2504",
"r  c #622A03",
"t  c #6C2B05",
"y  c #6C2509",
"u  c #632D09",
"i  c #6D2D0A",
"p  c #742605",
"a  c #7C2606",
"s  c #742C06",
"d  c #7B2C07",
"f  c #752609",
"g  c #7C270A",
"h  c #752D0B",
"j  c #7C2C09",
"k  c #653405",
"l  c #6C3306",
"z  c #643906",
"x  c #643308",
"c  c #6D340A",
"v  c #613B0A",
"b  c #6B3C0A",
"n  c #713207",
"m  c #72320B",
"M  c #7B340C",
"N  c #723A0B",
"B  c #7C3C0E",
"V  c #7D3411",
"C  c #753F13",
"Z  c #7D3D11",
"A  c #65430C",
"S  c #6C430C",
"D  c #72430D",
"F  c #7A450D",
"G  c #754411",
"H  c #7E4312",
"J  c #754B14",
"K  c #7C4B13",
"L  c #7B5316",
"P  c #735318",
"I  c #7C5218",
"U  c #832D0D",
"Y  c #82340D",
"T  c #833B0F",
"R  c #8B3B0E",
"E  c #843611",
"W  c #843C12",
"Q  c #8B3C14",
"!  c #85430F",
"~  c #844313",
"^  c #8C4414",
"/  c #844A15",
"(  c #8C4B16",
")  c #84451B",
"_  c #8D451A",
"`  c #844A18",
"'  c #8B4C1B",
"]  c #924314",
"[  c #924D16",
"{  c #924519",
"}  c #944C1B",
"|  c #8E5317",
" . c #865319",
".. c #8C531A",
"X. c #845B19",
"o. c #885C1F",
"O. c #93541D",
"+. c #9B541E",
"@. c #945C1F",
"#. c #8D601C",
"$. c #945220",
"%. c #9C5421",
"&. c #935E21",
"*. c #9D5C24",
"=. c #A05420",
"-. c #9D6123",
";. c #A46226",
":. c #946A44",
">. c #9B6E47",
",. c #9C6C49",
"<. c #9C744B",
"1. c #9E7E4F",
"2. c #A46D4B",
"3. c #A96F4A",
"4. c #A3744C",
"5. c #AC744C",
"6. c #A47D4D",
"7. c #AC7E4F",
"8. c #B2714E",
"9. c #B9774F",
"0. c #A77650",
"q. c #AD7650",
"w. c #A77E50",
"e. c #AD7E54",
"r. c #B57351",
"t. c #BA7551",
"y. c #B37D54",
"u. c #BB7C54",
"i. c #BD7C59",
"p. c #C7714E",
"a. c #C26B50",
"s. c #C17753",
"d. c #C27955",
"f. c #C87A54",
"g. c #C17959",
"h. c #C97F58",
"j. c #A38553",
"k. c #AD8454",
"l. c #AB8954",
"z. c #B78155",
"x. c #B08455",
"c. c #B28152",
"v. c #B98055",
"b. c #B98756",
"n. c #BD8357",
"m. c #B08854",
"M. c #B98856",
"N. c #B98E57",
"B. c #BE8658",
"V. c #BA8058",
"C. c #B88858",
"Z. c #B88F5B",
"A. c #B88F59",
"S. c #B79057",
"D. c #B1975E",
"F. c #B9905A",
"G. c #BA925F",
"H. c #B99559",
"J. c #B09858",
"K. c #B4A15D",
"L. c #B79661",
"P. c #BF9660",
"I. c #BB9862",
"U. c #C68158",
"Y. c #C98359",
"T. c #C18A5E",
"R. c #C8895E",
"E. c #CA895F",
"W. c #C8905F",
"Q. c #C0985D",
"!. c #CF8F63",
"~. c #D88F62",
"^. c #C09761",
"/. c #D59162",
/* pixels */
"+ o X o O o o @ o . o o o O o O O # @ @ O o X . X o o . O + @ & ",
". G.k.H.G.^.l.z.C.z.z.c.l.M.z.5.Z.t.s.u.e.4.<.1.j.D.x.6.C.T.N + ",
"X q 6.l.^.C.H.6.4.v.b.e.z.M.H.u.t.6.s.y.4.k.<.c.k.l.l.1.H.G m @ ",
"o 7 b l.Z.y.x.b.y.<.k.5.N.y.y.l.6.1.5.5.t.5.z.6.J.K.L.I.K q N @ ",
"o r 5 q u.6.z.T.t.4.4.t.;.i.s.i.6.i.u.4.h.U.5.c.M.x.H.P ~ J 9 o ",
"o t m r x k.b.c.y.i.2.4.0.p.t.s.U.u.s.u.c.i.u.y.H.w.0 G -.-.&.# ",
"O j m u l r 0.5.y.u.0.3.0.i.8.g.5.8.>.d.d.8.y.9.5.N b ! O.' / + ",
"@ V i r 6 m s t.5.t.t.q.3.0.9.u.R.u.5.u.u.g.,.t.e s b / Z Q W & ",
"@ m c h e p e w r.8.s.r.f.9.u.s.q.8.q.,.a.t.5.s.p p h B B ) ) * ",
"@ Y m r t s h 3 4 5.5.3.s.s.t.8.!.2.8.,.:.t.:.f p e h h V V V # ",
"+ M w y d h w w 3 h 9.3.u.4.v.~.u.t.r.t.r.r.4 1 p V f g E Y Z # ",
"X e m s t h i 4 3 g h 0.4.Y.v.E.e.u.8.8.8.1 w a j a j U i E ^ @ ",
"o E m m j i h m x M M r c.U./.c.i.8.9.r.e i c Z T R [ } Q _ _ + ",
"# j s d l m t t 5 Z m h s g.n.!.8.d.8.t w t y r Q W ( +.%.^ k # ",
"# U h s c h w 6 e x t h j t u.R.i.>.e y s t h 5 T ^ ( ~ B ) H # ",
"# j Q ^ ' x W u m Z F m t t m 5.4.4 y y w U x b W B Q N ^ ^ H & ",
"@ M Q { W c B F N D m s t h h   . 5 s 3 4 5 7 5 Z 8 ^ 9 } x ^ # ",
"+ V ~ Y m 3 ~ N E ! n s j y + . X O r w 5 6 8 8 8 ^ ^ x v z z X ",
"@ h R m W B h _ W { m g j X + O X . O l 6 q 2 b A G B F v v 8 X ",
"@ p u G } B } ( ( ( T M @ o   O o o + X 3 6 3 0 A z J / S b A % ",
"+ 3 Q [ %.W Q ^ } ..) @ @ . . X o X . o X 6 w k 8 A #.X.A A  .> ",
"@ _ Y ( ~ ] Y ] ( O.% % o o . . o o X X . . 3 r 6 A o.K I I | - ",
"# s Y E ( } } ^ S + % o X o . o X + o o X X . 6 k v z A L J  .@ ",
"# M s ! ( +.*.G @ # o . X o o X O O . o o X . o r 6 v q G K K @ ",
"@ ~ ` | +.%.( - X X   X o X X o X O o o o o o X o 3 3 4 N H K @ ",
"# H | ..;.&.= @ + o o o o X O o O + O O O O + o o X 4 M T N N + ",
"* / O.' O.3 : + . + O X X X X + + + $ @ + @ o O O O + M d M C O ",
"& ' O.+.& < : + X + o o O X o X + # = > + @ + o O O + @ d j c o ",
"& ~ ' % & = o X O O o o O + = X + * # # O + @ O o O O O @ 3 r O ",
"& ] # # @ @ + o o O O o O @ % - X @ # & # @ # + + O + + + . 2 o ",
"+ o . + # O O o o O + + + + = @ o & * # & @ O # @ O o o O .   O ",
"X @ & # X + + # + O O O + + O @ o # & # ; & # # + o @ .   . o o "
};
