/* XPM */
static char *cmdj[] = {
/* columns rows colors chars-per-pixel */
"32 32 168 2 ",
"   c #1E1A16",
".  c #1E1A19",
"X  c #211916",
"o  c #211A19",
"O  c #440C0C",
"+  c #480B0A",
"@  c #69110F",
"#  c #671312",
"$  c #691212",
"%  c #6A2C07",
"&  c #6C2A0A",
"*  c #4F6F7D",
"=  c #4D6874",
"-  c #576E74",
";  c #536E7A",
":  c #4C717A",
">  c #577377",
",  c #5B7276",
"<  c #57737C",
"1  c #5A757B",
"2  c #5D797A",
"3  c #60777F",
"4  c #951917",
"5  c #991A16",
"6  c #971A1A",
"7  c #991A1B",
"8  c #BF211E",
"9  c #BD2122",
"0  c #C0221E",
"q  c #A65325",
"w  c #A95325",
"e  c #E59434",
"r  c #E89434",
"t  c #E59438",
"y  c #E89338",
"u  c #FCDA64",
"i  c #4F6B81",
"p  c #4E7287",
"a  c #567482",
"s  c #5D7683",
"d  c #577884",
"f  c #5D7986",
"g  c #56768B",
"h  c #59768B",
"j  c #567B8A",
"k  c #5D7B8A",
"l  c #5A7A90",
"z  c #657781",
"x  c #637C85",
"c  c #657C8B",
"v  c #6C7F8D",
"b  c #637D90",
"n  c #6A7E94",
"m  c #63838C",
"M  c #6A848C",
"N  c #6C898F",
"B  c #71858E",
"V  c #648391",
"C  c #6B8592",
"Z  c #6C8A96",
"A  c #718696",
"S  c #738B96",
"D  c #7A8B94",
"F  c #72879A",
"G  c #758D99",
"H  c #7B8C9B",
"J  c #76909C",
"K  c #7D929C",
"L  c #7E9C9E",
"P  c #758EA2",
"I  c #788CA5",
"U  c #7E94A1",
"Y  c #78A5BA",
"T  c #79A7BB",
"R  c #7CADC3",
"E  c #7AB0CA",
"W  c #808E99",
"Q  c #80959E",
"!  c #8294A1",
"~  c #8B97A2",
"^  c #8798A0",
"/  c #8B9BA3",
"(  c #8B98A8",
")  c #94A4AC",
"_  c #9AA4AE",
"`  c #92A1A4",
"'  c #86ADB2",
"]  c #84AEBB",
"[  c #88ABBE",
"{  c #9DA6B7",
"}  c #86B3BA",
"|  c #8AB2BE",
" . c #8BAEC1",
".. c #87B2C5",
"X. c #8AB4C3",
"o. c #89B9C7",
"O. c #85B6CC",
"+. c #8AB4CB",
"@. c #85B9CD",
"#. c #8BBACC",
"$. c #93B4C7",
"%. c #92BAC5",
"&. c #92BACC",
"*. c #87B2D2",
"=. c #82B9D7",
"-. c #8FBFD6",
";. c #83BBDA",
":. c #8BB9DA",
">. c #93B7D1",
",. c #91BED6",
"<. c #91BDD8",
"1. c #AAB0C0",
"2. c #8EC2CC",
"3. c #94C3CD",
"4. c #8EC1D4",
"5. c #8CC2D9",
"6. c #91C1D5",
"7. c #9ACCD5",
"8. c #92C2DB",
"9. c #9CC6DB",
"0. c #96CEDF",
"q. c #9DCBDF",
"w. c #9DC2D5",
"e. c #A2C6DE",
"r. c #A6CDDE",
"t. c #ABCFDD",
"y. c #96C4E2",
"u. c #99C6E2",
"i. c #9DCAE2",
"p. c #A3C5E3",
"a. c #AEC7E5",
"s. c #A5CFE3",
"d. c #A9CEE4",
"f. c #A0CEEF",
"g. c #AACEE8",
"h. c #B0CAE3",
"j. c #A4D1E3",
"k. c #ADD3E4",
"l. c #ACD2EA",
"z. c #A5D2E9",
"x. c #B4D5E3",
"c. c #B9D9E4",
"v. c #B1D5EA",
"b. c #B9D4EA",
"n. c #B5D9ED",
"m. c #BBDBEE",
"M. c #B1DAF3",
"N. c #BBDCF1",
"B. c #BADCF9",
"V. c #B4E1F6",
"C. c #BEE1F4",
"Z. c #B7E1F9",
"A. c #C2DCEC",
"S. c #C4DDF4",
"D. c #C3DEFB",
"F. c #C2E2EF",
"G. c #C3E3F5",
"H. c #C8E8F7",
"J. c #C5E6FD",
"K. c #C9E5FC",
"L. c #CDEAFE",
"P. c #D2EFFF",
"I. c #D9EFFC",
"U. c #DCF3FE",
"Y. c #EEFFFF",
"T. c #F0FFFC",
"R. c #FEFFFF",
"E. c #FEFFFE",
/* pixels */
"Y R E 5.3.@.e.l.Y...M.9.l.*.R g.E o.9.v.C.k.C.j.l.m.S.E.6.q.B.7.",
"O.-.u.i.g.5.6.%.&.9.u.*.R N.N.p.I.:.4.8.l.c.#.%.k.m.i.q.y.,.Z.m.",
"O.O.l K Z Z C x f < ) b 1.S B ^ k j s k Q m Q C N Q c c H A S.m.",
"O.=.h A K _ S M Z 1 j b C n / k p m U _ / G l Q x / ` J A D a.l.",
"f.=.j C X . .   .       X .   o         X     .   .   o s D I.5.",
"i.;.C g   & % o O $ $ $ + $ $ # $ $ $ O $ $ $ + o % & X v c p.y.",
"@.;.k g . & & X $ @ # $ O $ $ # $ $ $ O $ @ $ @   % & o ~ v u.d.",
"5.4.g d   & q   6 6 6 6 # 6 6 6 6 6 6 $ 6 6 6 6 . w %   S S A.C.",
"@.G.A z   w q   6 6 6 6 # 6 6 6 6 6 6 $ 6 6 6 6 . q q o M H m.x.",
"} -.C k X q w . 7 6 6 7 $ 6 6 7 6 6 6 $ 6 6 6 6   w q . ! c 9.O.",
"T  .< < X q q o 8 9 8 9 6 9 0 9 9 0 9 6 9 8 9 9 o q q   S J S.<.",
"| ] < <   q e X 9 9 9 9 6 9 9 9 9 9 9 6 9 8 9 9   e q X m Z G.d.",
"[ X.d 1 X e e . 9 9 9 9 6 9 9 9 9 9 9 7 9 9 9 9   e r X D V H.P.",
"4.2.V ,   e r . 6 7 6 6 @ 6 6 6 7 6 7 $ 6 6 7 6   r r   ) V s.C.",
"5.i.m /   e r . # 6 5 6 $ 6 6 6 6 6 6 $ 6 5 4 # . r e   n k i.,.",
"2.2.2 x   e u %   o     X X o X . X X .     .   & u y X Q ! <.5.",
"G.Y.1 2   e u u u u u u e   e u u r   e u u u u u u e   { i z.J.",
"O.X.H 2   w e e e r e q . r u r y u r o q e r e e e q   m K i.u.",
"H.v.k C o .   .   .       q u     u q     X . . . .   X H m u.q.",
"0.i.M C   q q   $ $ @ $ + . u X   u . O $ $ $ $   q q   Q A v.+.",
"l.v.C =   r e   # 7 7 # $   q u u q   @ @ 7 6 $ . e e X v D ] D.",
"y.p.F a X e e o 6 6 7 $ 6 $ X q q   $ 6 $ 7 7 6 . e r   K _ 9.p.",
"U.u.= ;   e q o 6 6 6 $ 6 7 #     @ 7 6 $ 7 6 6   q r X N D A.:.",
"P.| ; p . q w   $ 6 6 $ 6 6 6 $ $ 6 6 6 # 6 6 $ . q q   S M E.T ",
"m.' , a   q q   o .     .     X o     o .   . X . q q X H x m.b.",
"S.9.K s   q &   % q w e e e r r e r y e e q w &   % q   S f w.U.",
"v.&.1 m X & &   & & q q q e e e e r e q q q & %   % & o G Z x.E.",
"i.j.C z   o X               X X X o       X   . X X .   J _ t.c.",
"d.Z.c F ; C d V s H z * P Q : k d D m s v a p c C V K m m Q L.F.",
"G...M < < x s , , > < H b b A G I Q G Z c n h g g N U L C N x.%.",
"R i.9.8.9.d.e.k.&.c.N.P.L.B.L.K.K.j.x.d.S.h.q.N.T.q.J.6.w.N.>.C.",
"C.@.z.n.v.M.6.6.7.s.$.] 9.R i.i.i.d.d.&.c.b.p.*.i.M.&.r.G.v.H.d."
};
