/* XPM */
static char *d2FsbDM_[] = {
/* columns rows colors chars-per-pixel */
"32 32 127 2 ",
"   c #000001",
".  c #1E1204",
"X  c #1C1409",
"o  c #231203",
"O  c #2B1A03",
"+  c #22160A",
"@  c #221A0B",
"#  c #291B0B",
"$  c #311B0A",
"%  c #241B11",
"&  c #2A1C11",
"*  c #2A220F",
"=  c #32210C",
"-  c #3A230C",
";  c #3A290E",
":  c #2C2113",
">  c #2D2018",
",  c #322312",
"<  c #3A2313",
"1  c #352815",
"2  c #3A2912",
"3  c #342A18",
"4  c #3B2A1A",
"5  c #3D2F22",
"6  c #3D3427",
"7  c #3D342A",
"8  c #3F3828",
"9  c #3F3B30",
"0  c #422709",
"q  c #412C13",
"w  c #433215",
"e  c #41311A",
"r  c #513A1B",
"t  c #423324",
"y  c #433926",
"u  c #4A3B24",
"i  c #42362A",
"p  c #493729",
"a  c #43392C",
"s  c #4A3B2B",
"d  c #523F27",
"f  c #523C2A",
"g  c #433B31",
"h  c #4A3B32",
"j  c #4C412F",
"k  c #52422B",
"l  c #5A442C",
"z  c #5A492E",
"x  c #4B4132",
"c  c #4D423B",
"v  c #524332",
"b  c #5A4432",
"n  c #554935",
"m  c #5A4932",
"M  c #53473A",
"N  c #554939",
"B  c #5A4B39",
"V  c #5F513A",
"C  c #614C33",
"Z  c #624F3B",
"A  c #635135",
"S  c #63513A",
"D  c #69543B",
"F  c #67593F",
"G  c #69593B",
"H  c #715A3A",
"J  c #70603F",
"K  c #6A5A42",
"L  c #775F43",
"P  c #746141",
"I  c #6E6555",
"U  c #6F675C",
"Y  c #6E685C",
"T  c #766656",
"R  c #746852",
"E  c #756855",
"W  c #756857",
"Q  c #7C6850",
"!  c #7D6855",
"~  c #7E6C54",
"^  c #7D6F55",
"/  c #71645B",
"(  c #70665A",
")  c #73675B",
"_  c #776758",
"`  c #75675A",
"'  c #74665B",
"]  c #74665D",
"[  c #75675E",
"{  c #766E5B",
"}  c #74685C",
"|  c #766D5E",
" . c #756E5E",
".. c #776E5F",
"X. c #7B6F59",
"o. c #7C6D58",
"O. c #796B5E",
"+. c #786C5C",
"@. c #786C5E",
"#. c #7E6D5D",
"$. c #7E6C5E",
"%. c #7C6F5E",
"&. c #7C6F5F",
"*. c #7E6E5E",
"=. c #7F6F5F",
"-. c #7D705D",
";. c #7D705F",
":. c #766C60",
">. c #7F6F60",
",. c #7E7663",
"<. c #816C57",
"1. c #876F57",
"2. c #876D5C",
"3. c #85705F",
"4. c #87755D",
"5. c #86745E",
"6. c #85765F",
"7. c #86765F",
"8. c #8D775F",
"9. c #847160",
"0. c #847766",
"q. c #877666",
"w. c #857867",
"e. c #8E7E65",
"r. c #8E7E67",
"t. c #8F7D69",
"y. c #967E66",
/* pixels */
"                                                                ",
"  T 4.O.=.4.[ :.=.=.E X.E T W T } I ` %.:.] { ] Y >.%.6.y.{ u   ",
"  # q.=.=.=.T 9.R 0.q.{ ' ' T ! [ o.o./ I Y W ..[ =.[ =.r.# w   ",
"  # q =.e.Q %.9.E q.y.,.R R 1.2.~ { ^ Q 4.,.:.:.{ =.%.2.e , =   ",
"  - = < s v b b s D Z k x S D z h a a c x x m n x v A l = ; 2   ",
"  e , $ k b l B k J S V x S D k h l m N v k x m n z C z $ w ;   ",
"  2 # O C l B G b P D S j S m l f m m C B k x c B B v z = ; e   ",
"  - q $ s v l F m G B F v m v B v S m A k k v x h N m v , < ,   ",
"  = 2 , j b s v S b z S n m v m k P G v x n v k b m b v < = <   ",
"  , , & s x b f Z b b m N b v m z G B z k x v b v B m v = , ,   ",
"  % % % j v x s V b x N M n v v k C C k m v l k v n S v , , ,   ",
"  : & : x x j z B v m v M v v v s n m h f m k s v N j x 1 , ,   ",
"  : , & x c x D v S S B m N v x h x s v v b j s v N N v : , ,   ",
"  , 2 : v b c B N h h g 9 g g g a 8 s x s n x j n B m b 3 , =   ",
"  = # : h 8 g h c x g 9 c g h g h x x x a m x x v B D c @ & 1   ",
"  & = : h x x c g g g g g g a a a s v a g c 8 a k b v h & @ :   ",
"  & & & g a a a 7 a a g 6 i g g a g 8 x a g a s k k k s 2 , 2   ",
"  & & X 7 i 6 h y s s s 6 g a i s g 6 a x a h j k s 7 s , , ,   ",
"  O + . h i t a i k u 7 v s d s l p 6 a s h g a a 8 g v 2 3 ,   ",
"  O & + t 6 e t t u s i s f f e s a a s s a 7 g h a a N 2 4 ;   ",
"  # # o a t t u a k s i x y 7 6 x h 7 7 g h h 6 h h V v - , <   ",
"  # O # y s k u y k s y s p a 7 y a t s g g a s B k m m < , -   ",
"  # O = a s s s i m u t s k a i a a d s a s a k v m H z 2 , $   ",
"  # : # s y a u i k f u k u y y s s v a k f 8 K A c B l , 2 ,   ",
"  o = O s y s y t z k i i i a m v f s s b y s m V S F A 4 e ,   ",
"  # O @ s i k m y k s t v m v v z m s s f s B v v k C z e q ,   ",
"  O O < x s b v y k k s k B m m b B k 7 g g s v k N m l 0 ; 4   ",
"  O - O                                                 r 4 <   ",
"  , *                                                     2 3   ",
"  2                                                         2   ",
"                                                                ",
"                                                                "
};
