/* XPM */
static char *d2FsbDI_[] = {
/* columns rows colors chars-per-pixel */
"32 32 136 2 ",
"   c #000000",
".  c #1E1206",
"X  c #1C130A",
"o  c #1F1B10",
"O  c #231304",
"+  c #281705",
"@  c #241905",
"#  c #2A1A03",
"$  c #22160A",
"%  c #231A0C",
"&  c #2A1B0A",
"*  c #311B09",
"=  c #241B11",
"-  c #2A1B12",
";  c #2B210F",
":  c #32210B",
">  c #3A230B",
",  c #3A2A0E",
"<  c #2C2113",
"1  c #2E211A",
"2  c #322312",
"3  c #3A2412",
"4  c #332A15",
"5  c #3B2912",
"6  c #32271A",
"7  c #352A18",
"8  c #3A2B19",
"9  c #3E3218",
"0  c #3D2F22",
"q  c #3D3427",
"w  c #3D352A",
"e  c #3F3828",
"r  c #422B0C",
"t  c #412B12",
"y  c #423213",
"u  c #43321A",
"i  c #48341B",
"p  c #49381C",
"a  c #50391A",
"s  c #423323",
"d  c #423826",
"f  c #4B3A24",
"g  c #42372A",
"h  c #493729",
"j  c #43392C",
"k  c #4A3B2B",
"l  c #523F27",
"z  c #523D2A",
"x  c #433B31",
"c  c #4A3C33",
"v  c #4C412F",
"b  c #52422B",
"n  c #5A452A",
"m  c #5A492F",
"M  c #4B4132",
"N  c #4B423B",
"B  c #524332",
"V  c #594532",
"C  c #544935",
"Z  c #5A4932",
"A  c #54473A",
"S  c #54493A",
"D  c #5A4A3A",
"F  c #5F503B",
"G  c #614832",
"H  c #634E3B",
"J  c #635135",
"K  c #62513B",
"L  c #6A5A3A",
"P  c #6A5A43",
"I  c #775F43",
"U  c #6E6555",
"Y  c #6F675C",
"T  c #6E685C",
"R  c #766656",
"E  c #756855",
"W  c #7D6A54",
"Q  c #73665C",
"!  c #766C5D",
"~  c #7C6D5D",
"^  c #7D705E",
"/  c #766D61",
"(  c #7C6E61",
")  c #7D7261",
"_  c #846E57",
"`  c #806D5E",
"'  c #816E5F",
"]  c #866F5F",
"[  c #846F5A",
"{  c #886E5D",
"}  c #83715B",
"|  c #867058",
" . c #86705B",
".. c #83705F",
"X. c #85705F",
"o. c #85755C",
"O. c #86745C",
"+. c #85775D",
"@. c #87765C",
"#. c #84755E",
"$. c #85755E",
"%. c #86745E",
"&. c #87755F",
"*. c #86765F",
"=. c #8D775F",
"-. c #8C785D",
";. c #8E7D5F",
":. c #817463",
">. c #817464",
",. c #817664",
"<. c #847764",
"1. c #877666",
"2. c #877863",
"3. c #857867",
"4. c #8F7B60",
"5. c #8D7B63",
"6. c #8B7B64",
"7. c #8C7B67",
"8. c #8D7D64",
"9. c #8E7E65",
"0. c #8E7C66",
"q. c #8E7E67",
"w. c #877768",
"e. c #8F7D69",
"r. c #8F7F68",
"t. c #907C61",
"y. c #947F64",
"u. c #977F67",
"i. c #957F68",
"p. c #958466",
"a. c #9D8666",
"s. c #968068",
"d. c #93856B",
"f. c #95876D",
"g. c #9C8C6B",
"h. c #A08D6D",
/* pixels */
"                                                                ",
"  R %.~ ~ 2.Q ~ ~ ~ E ~ R R R R Q U R ~ / Q / Q Q :.~ $.s.~ f   ",
"  & 3.~ ~ ~ R ' E 3.-.^ E Q E W Q W ~ Q U T Q ~ Q ~ Q ) e.& y   ",
"  & 5 :.y.W ) ' E 1.e.) R U | %.W ! W W $.( ! ! ! ^ ) { u 2 :   ",
"  > : 2 ~ ' } ] R d.0.~ / q.p.-.Q R Q / ~ Q +.,.! ..-.> : , 5   ",
"  y 2 & * :.} 2.W g.0.2.! 0.i.W ! %.&.,.) ~ ! <.,.$.t , & y ,   ",
"  5 & * t 3 &.p.$.h.i.0.~ q.$.| W $.%.t.$.^ ! / 1.8 2 5 : , u   ",
"  r t * & 2 > f.$.a.1.d.~ o.' 2.( q.$.4.~ W ..^ < 4 5 2 2 3 2   ",
"  : 5 < < 2 * 2 K B m K C Z B Z b I L B M C B B 2 8 3 2 3 ; 3   ",
"  2 2 - & ; 5 * H Z V Z S V B Z Z L Z m b M B B 2 8 5 2 * 2 2   ",
"  = - = ; 2 2 & K B B D A C B B b G J b m B n z 2 4 i 2 2 2 2   ",
"  < - < - < < 5 D B V B A B B B k C C c z G b k : 7 < 2 2 2 2   ",
"  < 2 < < < < i B K J D Z S B M x v k B B V B k 2 6 8 2 < 2 2   ",
"  2 8 < 2 2 < 8 A M N j x j x x x j k B k Z M v 8 8 5 2 7 2 2   ",
"  : & < - = = = N c x x N x c x k v M x k C M M 2 8 p < % - 2   ",
"  - : < - - < 1 x x x x x x j j j k B v x M x j : 2 2 - - % <   ",
"  = - - = % % % w j j x q g c x j x e M x x j f : : : & 8 < 5   ",
"  - - X X @ X % d k f k q x g j k x w e M k c b : & X & 2 2 2   ",
"  # % . = $ . $ g b f g B k l k V h w g k x j j % X = 2 8 4 2   ",
"  # - $ O O + O q f k g k z f s l j g k k j w x = = % 8 , 8 ,   ",
"  & & O % O O + k b k j v d w 0 M x w g x x c q - - t 2 > 2 3   ",
"  & # & $ & : # s v k s k k g g j k s k x x j k 8 : 8 5 3 2 >   ",
"  & # : @ & & & j Z f s k b j w j j z k k k j z 2 5 p , 5 2 *   ",
"  & < & & % & # g b b f b f j d k f B e B z w P u < 8 > 2 5 2   ",
"  @ : # & % &                                     u p u 8 u 2   ",
"  & # @ & @                                         t 5 i t <   ",
"  # # > 2                                             > r 5 8   ",
"  + > &                                                 a u 2   ",
"  3 <                                                     3 4   ",
"  8                                                         8   ",
"                                                                ",
"                                                                "
};
