/* XPM */
static char *d2FsbA__[] = {
/* columns rows colors chars-per-pixel */
"32 32 188 2 ",
"   c #020101",
".  c #0B0302",
"X  c #0D0B02",
"o  c #0A090B",
"O  c #140402",
"+  c #1A0704",
"@  c #120B02",
"#  c #1B0D04",
"$  c #13060C",
"%  c #130A0A",
"&  c #1A0D0C",
"*  c #1B1205",
"=  c #15120D",
"-  c #1B120B",
";  c #1C180D",
":  c #140B12",
">  c #190B12",
",  c #161416",
"<  c #1A1213",
"1  c #171A11",
"2  c #1B1A15",
"3  c #1A131A",
"4  c #1B1A1C",
"5  c #271E01",
"6  c #2C1C05",
"7  c #21150A",
"8  c #221B09",
"9  c #221312",
"0  c #241D14",
"q  c #2A1E12",
"w  c #241A1B",
"e  c #1D2017",
"r  c #1D221C",
"t  c #29250A",
"y  c #31250D",
"u  c #262216",
"i  c #2B2310",
"p  c #20211A",
"a  c #282419",
"s  c #362F1D",
"d  c #36311B",
"f  c #3D3413",
"g  c #1D1E23",
"h  c #1E2223",
"j  c #212422",
"k  c #332C24",
"l  c #353422",
"z  c #42352D",
"x  c #5A4D3D",
"c  c #4F4343",
"v  c #4D4A43",
"b  c #564B45",
"n  c #5A4D45",
"m  c #564B4A",
"M  c #5C5548",
"N  c #5B4E53",
"B  c #5C4E5A",
"V  c #5A5257",
"C  c #5E5955",
"Z  c #5C5259",
"A  c #5E5C5D",
"S  c #645447",
"D  c #63554C",
"F  c #6B5E4E",
"G  c #645B4C",
"H  c #625554",
"J  c #635C55",
"K  c #6C5E51",
"L  c #62535B",
"P  c #625A5B",
"I  c #6A5A5A",
"U  c #73644D",
"Y  c #6B6251",
"T  c #62615C",
"R  c #6A645A",
"E  c #65685D",
"W  c #7C6F5E",
"Q  c #736B54",
"!  c #7A7356",
"~  c #5F5D60",
"^  c #645761",
"/  c #635A62",
"(  c #646364",
")  c #696262",
"_  c #6B6963",
"`  c #666569",
"'  c #6B6768",
"]  c #6A6C69",
"[  c #756666",
"{  c #7A6664",
"}  c #7D6C64",
"|  c #75666B",
" . c #79666C",
".. c #746C6D",
"X. c #7B6D6C",
"o. c #6F706B",
"O. c #7B7165",
"+. c #7C736D",
"@. c #796671",
"#. c #776C74",
"$. c #7B6D75",
"%. c #7C6F79",
"&. c #767372",
"*. c #7A7273",
"=. c #7D7B75",
"-. c #7C7279",
";. c #7E7B7C",
":. c #817565",
">. c #837B66",
",. c #82756C",
"<. c #827B6C",
"1. c #8B7D6E",
"2. c #827573",
"3. c #847C75",
"4. c #81737B",
"5. c #827A7B",
"6. c #8A7C7C",
"7. c #8B7D72",
"8. c #87826F",
"9. c #8C836B",
"0. c #838174",
"q. c #8C8273",
"w. c #83827A",
"e. c #8B847D",
"r. c #8E897C",
"t. c #90867C",
"y. c #918C79",
"u. c #9B8E7D",
"i. c #7E7C81",
"p. c #837781",
"a. c #827B82",
"s. c #897F80",
"d. c #848384",
"f. c #8A8283",
"g. c #868986",
"h. c #898984",
"j. c #858589",
"k. c #8B868A",
"l. c #85898A",
"z. c #8E8B89",
"x. c #928E8B",
"c. c #928B85",
"v. c #8F9183",
"b. c #8F928B",
"n. c #959283",
"m. c #9C9384",
"M. c #95938D",
"N. c #9C958C",
"B. c #9E9391",
"V. c #9A9A92",
"C. c #A39B96",
"Z. c #A59E9C",
"A. c #A99C9C",
"S. c #AFA294",
"D. c #A5A09D",
"F. c #AEA19C",
"G. c #AFAB9E",
"H. c #A4A295",
"J. c #A59BA1",
"K. c #AB9EA4",
"L. c #AE9EA8",
"P. c #AEA2A4",
"I. c #ADA6AC",
"U. c #AEA8AD",
"Y. c #AFAFAF",
"T. c #ACA8A9",
"R. c #B0A0A1",
"E. c #B5A7A7",
"W. c #B0A7A2",
"Q. c #B5A8A1",
"!. c #B3A9A5",
"~. c #B7AEAE",
"^. c #B3ADAE",
"/. c #B8B5A2",
"(. c #B7B0A8",
"). c #B6B6AC",
"_. c #BFB4AE",
"`. c #B0AEB1",
"'. c #B3AFB0",
"]. c #B7ACB0",
"[. c #B3B3B4",
"{. c #B8B5B0",
"}. c #B8B9B4",
"|. c #B5B6B8",
" X c #B9BEB8",
".X c #C6C7B7",
"XX c #CAC6BA",
"oX c #CFC9B9",
/* pixels */
"            @   1       .           .   X . X     @ X 5         ",
"  Z.I.T.}.[.^..X XF.R.J.E.P.J.].A.A.Z.A.S./.XXQ.E.{.`.~.!.P.b   ",
"  _ P.T.|.`.[.oXC.G.(.F.B.T.K.E.W.K.F.A.A.P.`.K.L.I.I.U.T.H R   ",
"o P Z {.[.).[.).{.!._.F.].K.A.L.D.E.Q.F.P.Z.G.C.Z.L.U.`./ L L   ",
"  ( ^ P ..a.d.d.M.3.=.5.-.a.X.*.*.N.2.5.*.2.d.-.a.*.a.a.( ( ~ . ",
"  B B / d.#.d.l.g.d.z.&.a.a.f.2.2.X.N.a.5.$.$.4.3.4.a.-.J / P   ",
"  B Z / ;.a.g.*.d.d.0.2.a.4.%.5.{ [ O.3.q.X.X.@.%.%.-.i./ Z ^   ",
"  Z I N a.;.g.f.a.a.3.d.-.&.X.$.3.t.<.<.5.2.X.%.-.5.-.p.Z Z /   ",
"  L / Z b.3.a.a.i.l.-.&.$.6.5.e.e.e.u.,.5.-.4.$.a.d.i.s.B V ) = ",
"  / / / d.k.a.a.d.d.4.4.%.-.4.d.e.e.8.3.3.5.-.a.d.d.p.a.N / ^   ",
"  / Z ( a.-.a.a.d.4.a.5.-.a.4.4.-.5.w.3.w.4.a.a.a.a.a.i.P P B   ",
"  / ` / j.d.d.a.f.[ -.4.p.3.-.$.&.r.-.+.3.-.a.4.5.-.-.d.A ( /   ",
"  ] ` ` a.5.3.a.6.[ -.$.4.2.$.-.8.3.5.h.d.=.-.-.4.-.-.g.o.A ` o ",
"  A T P r.h.5.l.i.f.*.4.a.6.} X.e.e.d.d.a.4.;.%.5.-.a.i.` _ A   ",
"  Z ( ] r._ =.w.5.-.4.a.4.a.;.*.w.5.4.-.@.$.*.-.d.d.;.-.A ( (   ",
"o / ( ( -.3.-.+.$.-.4.$.-.-.a.s.4.-.$.@.3.w.&.4.e.5.g.4.B T E   ",
"  ( ) P *.-.a.f.4.f.} ,...a.p.$.%.$.4.3.M.3.a.e...5.r.=.L D ( X ",
"  / P P *.a.-.a.4.4. .4.-.-.%.-.-.$.@.f.x.f.w.*.$.$.-.;.( R `   ",
"  ( T ( *.%.5.-.-.i.f.X.a.4.a.-.a.$.w.a.5.d.5.{ $.5.;.e.( / (   ",
"  A _ ' -.a.k.a.$.%.a.%.;.4.a.-.4.p.3.a.g.5.d.7.+.w.g.f./ H I   ",
"  m J / 4.-.a.a.a.a.a.-.a.a.a.%.$.w.x.a.d.x.*.<.a.=.m.5.c A L   ",
". M N ( -.5.a.j.a.a.5.| s.a.a.p.%.a.d.d.d.d.4.e.0.5.$.-.D Z )   ",
"@ ` P Z k.d.a.i.a.j.d.f.;.5.a.p.-.-.=.d.d.a.4.m.<.h.w.4.M J J = ",
"@ ( L Z a.a.a.l.l.d.d.h.&.5.d.X.+.w.q.w.*.i.5.9.w.w.9.7.n J R   ",
"  L / / d.d.d.i.d.5.d.e.w.d.2.3.a.=.+.V.f...3.h.n.n.w.>.F F U # ",
"  C ( / -.j.d.d.d.f.#.m.+.u.w.-.5.C.y.-.3.2.a.d.z.M.0.H.b F S @ ",
"  ( z C M.3.d.6.5.6.8.1.>.0.M.+.v.y.n.y.O.-.5.d.d.d.M.g.Q D F . ",
"  _ <.v < * < , , 3 0 f 6 y @ # O 2 - k . $ : 2 3 h r 2 ! } x   ",
"  J G * @ X p u < 0 7 % & + . 7 . 9 q & > > : < 4 4 h d d T W   ",
". Y + O 0 ; h 4 p 7 q & - t # - 7 & + $ $ > > % 2 , 4 l   w H   ",
"@ t 6 < a O 4 4 3 3 0 8 7 & 7 < % : > & 3 2 % > % 4 - e h < 3 & ",
"  .             .       #                 * .     o X   .       "
};
