/* XPM */
static char *d2hpdGVfZmxvb3I_[] = {
/* columns rows colors chars-per-pixel */
"32 32 175 2 ",
"   c #856A57",
".  c #8B6E5C",
"X  c #8F7866",
"o  c #927662",
"O  c #947C65",
"+  c #947C6A",
"@  c #987D69",
"#  c #97856F",
"$  c #9A836E",
"%  c #978571",
"&  c #9B8571",
"*  c #9D8A73",
"=  c #A0826A",
"-  c #AA846D",
";  c #A98672",
":  c #A58D76",
">  c #AB8A73",
",  c #A58D78",
"<  c #AB8E78",
"1  c #B18D75",
"2  c #A39076",
"3  c #AF9177",
"4  c #A5927B",
"5  c #AB947D",
"6  c #A3987C",
"7  c #AB987F",
"8  c #B29077",
"9  c #B1927A",
"0  c #B49A7E",
"q  c #A79780",
"w  c #AD9680",
"e  c #AB9B83",
"r  c #B29D85",
"t  c #B99B83",
"y  c #B19F8A",
"u  c #BC9F89",
"i  c #BAA186",
"p  c #B3A38B",
"a  c #BAA38A",
"s  c #B6A98F",
"d  c #BCA98C",
"f  c #B6A591",
"g  c #BAA592",
"h  c #B6AA91",
"j  c #BAAB93",
"k  c #BEAD9B",
"l  c #BCB396",
"z  c #BAB39A",
"x  c #C1A286",
"c  c #CEA285",
"v  c #C1A48A",
"b  c #C3A98D",
"n  c #C9AB8E",
"m  c #D0A386",
"M  c #D6A98C",
"N  c #C5AA91",
"B  c #C9AC92",
"V  c #C2B193",
"C  c #CAB194",
"Z  c #C3B399",
"A  c #CCB399",
"S  c #C5BA9E",
"D  c #CBB99B",
"F  c #D1B297",
"G  c #DFB696",
"H  c #D1B59A",
"J  c #DFB698",
"K  c #D1B99C",
"L  c #D8BD9F",
"P  c #E1B99B",
"I  c #CABEA4",
"U  c #D3BCA1",
"Y  c #D8BDA2",
"T  c #D2C19F",
"R  c #E2C19E",
"E  c #CBC4AA",
"W  c #D3C1A2",
"Q  c #D9C1A3",
"!  c #D9C8A7",
"~  c #D7C4A9",
"^  c #DAC5AA",
"/  c #D6C9A9",
"(  c #DBC9AA",
")  c #DFD0AF",
"_  c #DECDB0",
"`  c #DED1B2",
"'  c #E5C1A3",
"]  c #EBC2A4",
"[  c #E1C7AC",
"{  c #E1CBAC",
"}  c #EDCCAB",
"|  c #F4CEAD",
" . c #E0D0AF",
".. c #E1CEB1",
"X. c #F3CEB1",
"o. c #E3D1B2",
"O. c #E9D2B3",
"+. c #E5DAB7",
"@. c #E9D9B7",
"#. c #E7D7B9",
"$. c #E8D6B9",
"%. c #E2D9B8",
"&. c #E9DAB9",
"*. c #F4D6B2",
"=. c #FFD7B7",
"-. c #F1D8B0",
";. c #FEDBB7",
":. c #F7D6BA",
">. c #F8D7B8",
",. c #F2DFBF",
"<. c #FFDABA",
"1. c #EEE0BE",
"2. c #F3E1BB",
"3. c #FFE1BB",
"4. c #EEDFC2",
"5. c #EEDFC0",
"6. c #F0DFC1",
"7. c #EFE0C1",
"8. c #F0E3C1",
"9. c #F2E1C1",
"0. c #FDE3C0",
"q. c #FFE2C0",
"w. c #FFE2C2",
"e. c #FEE3C2",
"r. c #FFEAC3",
"t. c #FEEBC3",
"y. c #FDE9C4",
"u. c #FEEAC5",
"i. c #FFEBC4",
"p. c #FFECC4",
"a. c #FEEAC5",
"s. c #FFEBC8",
"d. c #FDEDCB",
"f. c #FFEDCC",
"g. c #FFEDCD",
"h. c #FFEDCF",
"j. c #FFEDCC",
"k. c #F7F2CC",
"l. c #FFF3CB",
"z. c #FFF6CB",
"x. c #FFF2CD",
"c. c #FEF5CC",
"v. c #FFF6CD",
"b. c #FDF5CE",
"n. c #FFF4CE",
"m. c #FEF5CE",
"M. c #FCF7CF",
"N. c #FFF6CF",
"B. c #FEF5CD",
"V. c #FFF3D0",
"C. c #FDF7D3",
"Z. c #FEF4D0",
"A. c #FFF5D3",
"S. c #FEF8D4",
"D. c #FFFCD6",
"F. c #FFFED7",
"G. c #FEFFD7",
"H. c #FEFDD6",
"J. c #FFFDD8",
"K. c #FEFFD8",
"L. c #FFFFD8",
"P. c #FEFEDA",
"I. c #FFFFDA",
"U. c #FFFEDA",
"Y. c #FFFEE0",
"T. c LightYellow",
"R. c #FFFEE1",
"E. c #FFFEE2",
"W. c #FFFFE1",
"Q. c #FCFFE9",
"!. c #FEFFEA",
"~. c #FFFFEA",
"^. c #FEFFEB",
"/. c #FFFFF4",
"(. c #FFFFFE",
/* pixels */
"v.L.v.v.3.:.] } J P ] ' X.*.<.=.<.e.p.S.L.V.j.j.3.*.| X.} | <.=.",
"!.t.E.V.v.y.j.:.C.L.v.v.v.i.i.q.3.<.:.v.*.*.3.v.s.v.L.L.G.E.E.L.",
"i.v.y q : 2 O 4 4 + & o O . * & p y j p q r 4 4 , p e p 6 e G.Q.",
"V.| 4 z & 4 w 6 < y , * & X 4 + * e p r g l l p p p 6 2 e e B.B.",
"2.E.h Z #.T A U B d A 1 9 u n U Y ( ` ` o.+.&.` ` / Q U e p v.h.",
"P t.h h V n d Q ~ F K u b u B K ~ W { 2.7.2.&.@.W / Q D e p S.v.",
"<.R * q 1 ; A C K o.^ ( Q W H H U Q ^ ) &.7.O.) / %._ ..e p !.L.",
"f.P e , a ^ ^ _ ..~ Y A B N n B V A K W Q W W ! U I ( ` h p Q.L.",
"} | * * B U o./  .{ ^ K A A n F H H F F A U H O./ ` W K h 7 j.3.",
"} *.# o t < t v i A ( ( ^ K A D Y K K U Y U ( &.o.^ o.U e 4 e.i.",
"} } $ o t < < 8 i x v B u b A H U U Y ~ ^ Y L F W ^ W D 4 , p.L.",
"P | O O < 8 t < > t 3 9 i C C H Y Y ~ K K Y { @.o.( N C e e P.S.",
"m *.O 4 C 8 b 0 9 < 8 t 0 v B A W { [ { Q { ^ ~ U U A C 4 7 z.G.",
"G } 2 * B - { C V C A K A A A A Y { ( O.~ K F A A A K D r s E./.",
"e.' r w 3 > D A ( ^ ..~ K B C K B F L U K F F K Q @.2.y.S I /.Q.",
"X.c O e $ K v K ^ ~ B H C A H n n B K K K H T O.O.,.1.k.E E (.(.",
"X.M   O t D V B ( B 0 N 8 t a n v x x N B D { ..( ( W ( h z ^.!.",
"q.=.& # 9 N ( K n A t i A W K A t t u x x C ( O. .O.^ / e y M.q.",
"' J + % > t 8 i d D a b n A K U ( ( ~ [ o.T ^ O.{ U D B 4 , i.y.",
"' ] * 4 0 t b b T 0 C ( 7.&.&...@.K { { ..o.o.( L ! b K w q G.C.",
"| } % : v A K ( o.( T ` _ #.#.&.2.k.%. .O.O.{ ( ..D K U e e i.M.",
"} i.r : d B ^ U U / ..^ ( ^ ..U ..W A ( ( d { W / W ( ( p a G.E.",
"q.v., 5 A Q W ( K ^ ` ~ o.K ^ K W W / ..o.( ( / _ { .._ g j E.^.",
"O.l.r 5 U K Q (  .o.{ @._ ^ ^ ( Q ~ / I W W ( ( ....[ { s j Q.E.",
"G.3.* 5 U _ O.&.1.o.o. .o./ _ $.1.( {  .[ O.O.O.O.#.O.^ r a P.V.",
"i.e., 5 Q o.+.7.9.&.7.7.2.9.&.&.W T ^ ( ( [ { T D C U Y r < :.<.",
"q.e.4 e T { o.` +.&.` &.&.( ^ D W D T T T d B A C F A U y y C.S.",
"<.3.5 5 F Y L n Q W b u a n A C H Q A b n C A A U A Y ^ a e E.P.",
"=.-.4 7 5 7 t k l j j l p y , e 4 * : , 5 5 < 5 r p i j j k E.E.",
"i.i.5 < 7 7 5 : & % % @ * 4 5 p p r , 4 5 7 w y a Z p 5 j l S.S.",
"E.E.E.Q.E.D.!././.E.Q.^.E.E.G.L.E.L.G.E.L.v.t.E.G.G.v.C.P.!.E.P.",
"/./.^.B.E.^.^././.!.G.B.P.s.C.g.j.v.z.E.L.P.!.t.L.!./.!.!./.^.L."
};
